  0
SECTION
  2
HEADER
  9
$ACADVER
  1
AC1009
  9
$INSBASE
 10
0.0
 20
0.0
 30
0.0
  9
$EXTMIN
 10
127.0001
 20
0.0
 30
0.0
  9
$EXTMAX
 10
994.63018409093581
 20
678.86928832303363
 30
0.0
  9
$LIMMIN
 10
0.0
 20
0.0
  9
$LIMMAX
 10
0.0
 20
0.0
  9
$ORTHOMODE
 70
     0
  9
$REGENMODE
 70
     1
  9
$FILLMODE
 70
     1
  9
$QTEXTMODE
 70
     0
  9
$MIRRTEXT
 70
     1
  9
$DRAGMODE
 70
     2
  9
$LTSCALE
 40
1.0
  9
$OSMODE
 70
    37
  9
$ATTMODE
 70
     1
  9
$TEXTSIZE
 40
0.2
  9
$TRACEWID
 40
0.05
  9
$TEXTSTYLE
  7
STANDARD
  9
$CLAYER
  8
0
  9
$CELTYPE
  6
BYBLOCK
  9
$CECOLOR
 62
   256
  9
$DIMSCALE
 40
1.0
  9
$DIMASZ
 40
0.18
  9
$DIMEXO
 40
0.0625
  9
$DIMDLI
 40
0.38
  9
$DIMRND
 40
0.0
  9
$DIMDLE
 40
0.0
  9
$DIMEXE
 40
0.18
  9
$DIMTP
 40
0.0
  9
$DIMTM
 40
0.0
  9
$DIMTXT
 40
0.18
  9
$DIMCEN
 40
0.09
  9
$DIMTSZ
 40
0.0
  9
$DIMTOL
 70
     0
  9
$DIMLIM
 70
     0
  9
$DIMTIH
 70
     1
  9
$DIMTOH
 70
     1
  9
$DIMSE1
 70
     0
  9
$DIMSE2
 70
     0
  9
$DIMTAD
 70
     0
  9
$DIMZIN
 70
     0
  9
$DIMBLK
  1
VDDIM_DEFAULT
  9
$DIMASO
 70
     1
  9
$DIMSHO
 70
     1
  9
$DIMPOST
  1

  9
$DIMAPOST
  1

  9
$DIMALT
 70
     0
  9
$DIMALTD
 70
     2
  9
$DIMALTF
 40
25.399999999999999
  9
$DIMLFAC
 40
1.0
  9
$DIMTOFL
 70
     1
  9
$DIMTVP
 40
0.0
  9
$DIMTIX
 70
     1
  9
$DIMSOXD
 70
     0
  9
$DIMSAH
 70
     0
  9
$DIMBLK1
  1

  9
$DIMBLK2
  1

  9
$DIMSTYLE
  2
STANDARD
  9
$DIMCLRD
 70
     0
  9
$DIMCLRE
 70
     0
  9
$DIMCLRT
 70
     0
  9
$DIMTFAC
 40
1.0
  9
$DIMGAP
 40
0.09
  9
$LUNITS
 70
     2
  9
$LUPREC
 70
     4
  9
$SKETCHINC
 40
0.1
  9
$FILLETRAD
 40
0.5
  9
$AUNITS
 70
     0
  9
$AUPREC
 70
     0
  9
$MENU
  1
.
  9
$ELEVATION
 40
0.0
  9
$PELEVATION
 40
0.0
  9
$THICKNESS
 40
0.0
  9
$LIMCHECK
 70
     0
  9
$BLIPMODE
 70
     0
  9
$CHAMFERA
 40
0.5
  9
$CHAMFERB
 40
0.5
  9
$SKPOLY
 70
     0
  9
$TDCREATE
 40
2454648.7938514468
  9
$TDUPDATE
 40
2454649.3296629051
  9
$TDINDWG
 40
0.0002929861
  9
$TDUSRTIMER
 40
0.0002928009
  9
$USRTIMER
 70
     1
  9
$ANGBASE
 50
0.0
  9
$ANGDIR
 70
     0
  9
$PDMODE
 70
     0
  9
$PDSIZE
 40
0.0
  9
$PLINEWID
 40
0.0
  9
$COORDS
 70
     1
  9
$SPLFRAME
 70
     0
  9
$SPLINETYPE
 70
     6
  9
$SPLINESEGS
 70
     8
  9
$ATTDIA
 70
     0
  9
$ATTREQ
 70
     1
  9
$HANDLING
 70
     1
  9
$HANDSEED
  5
222
  9
$SURFTAB1
 70
     6
  9
$SURFTAB2
 70
     6
  9
$SURFTYPE
 70
     6
  9
$SURFU
 70
     6
  9
$SURFV
 70
     6
  9
$UCSNAME
  2

  9
$UCSORG
 10
0.0
 20
0.0
 30
0.0
  9
$UCSXDIR
 10
1.0
 20
0.0
 30
0.0
  9
$UCSYDIR
 10
0.0
 20
1.0
 30
0.0
  9
$PUCSNAME
  2

  9
$PUCSORG
 10
0.0
 20
0.0
 30
0.0
  9
$PUCSXDIR
 10
1.0
 20
0.0
 30
0.0
  9
$PUCSYDIR
 10
0.0
 20
1.0
 30
0.0
  9
$USERI1
 70
     0
  9
$USERI2
 70
     0
  9
$USERI3
 70
     0
  9
$USERI4
 70
     0
  9
$USERI5
 70
     0
  9
$USERR1
 40
0.0
  9
$USERR2
 40
0.0
  9
$USERR3
 40
0.0
  9
$USERR4
 40
0.0
  9
$USERR5
 40
0.0
  9
$WORLDVIEW
 70
     1
  9
$SHADEDGE
 70
     3
  9
$SHADEDIF
 70
    70
  9
$TILEMODE
 70
     1
  9
$MAXACTVP
 70
    64
  9
$PLIMCHECK
 70
     0
  9
$PEXTMIN
 10
1.0000000000000000E+020
 20
1.0000000000000000E+020
 30
1.0000000000000000E+020
  9
$PEXTMAX
 10
-1.0000000000000000E+020
 20
-1.0000000000000000E+020
 30
-1.0000000000000000E+020
  9
$PLIMMIN
 10
0.0
 20
0.0
  9
$PLIMMAX
 10
12.0
 20
9.0
  9
$UNITMODE
 70
     0
  9
$VISRETAIN
 70
     1
  9
$PLINEGEN
 70
     0
  9
$PSLTSCALE
 70
     1
  0
ENDSEC
  0
SECTION
  2
TABLES
  0
TABLE
  2
VPORT
 70
     1
  0
VPORT
  2
*ACTIVE
 70
     0
 10
0.0
 20
0.0
 11
1.0
 21
1.0
 12
485.76637753675448
 22
195.52473968785259
 13
0.0
 23
0.0
 14
0.5
 24
0.5
 15
0.5
 25
0.5
 16
0.0
 26
0.0
 36
1.0
 17
0.0
 27
0.0
 37
0.0
 40
1154.2232824871051
 41
1.5070242656449551
 42
50.0
 43
0.0
 44
0.0
 50
0.0
 51
0.0000000000007958
 71
     0
 72
   100
 73
     1
 74
     3
 75
     0
 76
     0
 77
     0
 78
     0
  0
ENDTAB
  0
TABLE
  2
LTYPE
 70
    25
  0
LTYPE
  2
CONTINUOUS
 70
     0
  3
Solid line
 72
    65
 73
     0
 40
0.0
  0
LTYPE
  2
CENTER
 70
     0
  3
Center ____ _ ____ _ ____ _ ____ _ ____ _ ____
 72
    65
 73
     4
 40
2.0
 49
1.25
 49
-0.25
 49
0.25
 49
-0.25
  0
LTYPE
  2
DASHDOT
 70
     0
  3
Dashdot __ . __ . __ . __ . __ . __ . __ . __
 72
    65
 73
     4
 40
1.0
 49
0.5
 49
-0.25
 49
0.0
 49
-0.25
  0
LTYPE
  2
DASHED
 70
     0
  3
Dashed __ __ __ __ __ __ __ __ __ __ __ __ __ _
 72
    65
 73
     2
 40
0.75
 49
0.5
 49
-0.25
  0
LTYPE
  2
HIDDEN
 70
     0
  3
Hidden __ __ __ __ __ __ __ __ __ __ __ __ __ __
 72
    65
 73
     2
 40
0.375
 49
0.25
 49
-0.125
  0
LTYPE
  2
HIDDEN2
 70
     0
  3
Hidden2 _ _ _ _ _ _ _ _ _ _ _ _ _ _ _ _ _ 
 72
    65
 73
     2
 40
0.1875
 49
0.125
 49
-0.0625
  0
LTYPE
  2
BORDER
 70
     0
  3
Border __ __ . __ __ . __ __ . __ __ . __ __ .
 72
    65
 73
     6
 40
1.75
 49
0.5
 49
-0.25
 49
0.5
 49
-0.25
 49
0.0
 49
-0.25
  0
LTYPE
  2
BORDER2
 70
     0
  3
Border2 __.__.__.__.__.__.__.__.__.__.__.
 72
    65
 73
     6
 40
0.875
 49
0.25
 49
-0.125
 49
0.25
 49
-0.125
 49
0.0
 49
-0.125
  0
LTYPE
  2
BORDERX2
 70
     0
  3
Borderx2  ____  ____  .  ____  ____  .  ___
 72
    65
 73
     6
 40
3.5
 49
1.0
 49
-0.5
 49
1.0
 49
-0.5
 49
0.0
 49
-0.5
  0
LTYPE
  2
CENTER2
 70
     0
  3
Center2  ___ _ ___ _ ___ _ ___ _ ___ _ ___
 72
    65
 73
     4
 40
1.125
 49
0.75
 49
-0.125
 49
0.125
 49
-0.125
  0
LTYPE
  2
CENTERX2
 70
     0
  3
Centerx2  ________  __  ________  __  _____
 72
    65
 73
     4
 40
4.0
 49
2.5
 49
-0.5
 49
0.5
 49
-0.5
  0
LTYPE
  2
DASHDOT2
 70
     0
  3
Dashdot2  _._._._._._._._._._._._._._._.
 72
    65
 73
     4
 40
0.5
 49
0.25
 49
-0.125
 49
0.0
 49
-0.125
  0
LTYPE
  2
DASHDOTX2
 70
     0
  3
Dashdotx2 ____  .  ____  .  ____  .  ___
 72
    65
 73
     4
 40
2.0
 49
1.0
 49
-0.5
 49
0.0
 49
-0.5
  0
LTYPE
  2
DASHED2
 70
     0
  3
Dashed2 _ _ _ _ _ _ _ _ _ _ _ _ _ _ _ _ _ 
 72
    65
 73
     2
 40
0.375
 49
0.25
 49
-0.125
  0
LTYPE
  2
DASHEDX2
 70
     0
  3
Dashedx2 ____  ____  ____  ____  ____  ___
 72
    65
 73
     2
 40
1.5
 49
1.0
 49
-0.5
  0
LTYPE
  2
DIVIDE
 70
     0
  3
Divide ____ . . ____ . . ____ . . ____ . . ____
 72
    65
 73
     6
 40
1.25
 49
0.5
 49
-0.25
 49
0.0
 49
-0.25
 49
0.0
 49
-0.25
  0
LTYPE
  2
DIVIDE2
 70
     0
  3
Divide2 __..__..__..__..__..__..__..__.._
 72
    65
 73
     6
 40
0.625
 49
0.25
 49
-0.125
 49
0.0
 49
-0.125
 49
0.0
 49
-0.125
  0
LTYPE
  2
DIVIDEX2
 70
     0
  3
Dividex2 ________  .  .  ________  .  .  _
 72
    65
 73
     6
 40
2.5
 49
1.0
 49
-0.5
 49
0.0
 49
-0.5
 49
0.0
 49
-0.5
  0
LTYPE
  2
DOT
 70
     0
  3
Dot . . . . . . . . . . . . . . . . . . . . . . . .
 72
    65
 73
     2
 40
0.25
 49
0.0
 49
-0.25
  0
LTYPE
  2
DOT2
 70
     0
  3
Dot2 ........................................
 72
    65
 73
     2
 40
0.125
 49
0.0
 49
-0.125
  0
LTYPE
  2
DOTX2
 70
     0
  3
Dotx2 .  .  .  .  .  .  .  .  .  .  .  .  .  .
 72
    65
 73
     2
 40
0.5
 49
0.0
 49
-0.5
  0
LTYPE
  2
HIDDENX2
 70
     0
  3
Hiddenx2 ____ ____ ____ ____ ____ ____ ____ 
 72
    65
 73
     2
 40
0.75
 49
0.5
 49
-0.25
  0
LTYPE
  2
PHANTOM
 70
     0
  3
Phantom ______  __  __  ______  __  __  ______ 
 72
    65
 73
     6
 40
2.5
 49
1.25
 49
-0.25
 49
0.25
 49
-0.25
 49
0.25
 49
-0.25
  0
LTYPE
  2
PHANTOM2
 70
     0
  3
Phantom2 ___ _ _ ___ _ _ ___ _ _ ___ _ _
 72
    65
 73
     6
 40
1.25
 49
0.625
 49
-0.125
 49
0.125
 49
-0.125
 49
0.125
 49
-0.125
  0
LTYPE
  2
PHANTOMX2
 70
     0
  3
Phantomx2 ____________    ____    ____   _
 72
    65
 73
     6
 40
5.0
 49
2.5
 49
-0.5
 49
0.5
 49
-0.5
 49
0.5
 49
-0.5
  0
ENDTAB
  0
TABLE
  2
LAYER
 70
     7
  0
LAYER
  2
0
 70
     0
 62
     7
  6
CONTINUOUS
  0
LAYER
  2
1
 70
     0
 62
     7
  6
CONTINUOUS
  0
LAYER
  2
84
 70
     0
 62
     7
  6
CONTINUOUS
  0
LAYER
  2
2
 70
     0
 62
     7
  6
CONTINUOUS
  0
LAYER
  2
3
 70
     0
 62
     7
  6
CONTINUOUS
  0
LAYER
  2
7
 70
     0
 62
     7
  6
CONTINUOUS
  0
LAYER
  2
5
 70
     0
 62
     7
  6
CONTINUOUS
  0
ENDTAB
  0
TABLE
  2
STYLE
 70
     1
  0
STYLE
  2
STANDARD
 70
     0
 40
0.0
 41
1.0
 50
0.0
 71
     0
 42
0.2
  3
txt.shx
  4

  0
ENDTAB
  0
TABLE
  2
VIEW
 70
     0
  0
ENDTAB
  0
TABLE
  2
UCS
 70
     0
  0
ENDTAB
  0
TABLE
  2
APPID
 70
     7
  0
APPID
  2
ACAD
 70
     0
  0
APPID
  2
VD_INVISIBLE_NOT_FOR_READ
 70
     0
  0
APPID
  2
VD_TEMPHATCH
 70
     0
  0
APPID
  2
VDEXTRAPARAM
 70
     0
  0
APPID
  2
PE_URL
 70
     0
  0
APPID
  2
VD_UNKNOWN
 70
     0
  0
APPID
  2
ACAD_MLEADERVER
 70
     0
  0
ENDTAB
  0
TABLE
  2
DIMSTYLE
 70
     1
  0
DIMSTYLE
  2
STANDARD
 70
     0
  3

  4

  5
VDDIM_DEFAULT
  6

  7

 40
1.0
 41
0.18
 42
0.0625
 43
0.38
 44
0.18
 45
0.0
 46
0.0
 47
0.0
 48
0.0
140
0.18
141
0.09
142
0.0
143
25.399999999999999
144
1.0
145
0.0
146
1.0
147
0.09
 71
     0
 72
     0
 73
     1
 74
     1
 75
     0
 76
     0
 77
     0
 78
     0
170
     0
171
     2
172
     1
173
     0
174
     1
175
     0
176
     0
177
     0
178
     0
  0
ENDTAB
  0
ENDSEC
  0
SECTION
  2
BLOCKS
  0
BLOCK
  8
0
  2
$MODEL_SPACE
 70
     0
 10
0.0
 20
0.0
 30
0.0
  3
$MODEL_SPACE
  1

  0
ENDBLK
  5
114
  8
0
  0
BLOCK
 67
     1
  8
0
  2
$PAPER_SPACE
 70
     0
 10
0.0
 20
0.0
 30
0.0
  3
$PAPER_SPACE
  1

  0
ENDBLK
  5
110
 67
     1
  8
0
  0
BLOCK
  8
0
  2
VDDIM_DEFAULT
 70
     0
 10
0.0
 20
0.0
 30
0.0
  3
VDDIM_DEFAULT
  1

  0
POLYLINE
  5
F1
  8
0
  6
CONTINUOUS
 62
     0
 66
     1
 10
0.0
 20
0.0
 30
0.0
1001
VDEXTRAPARAM
1071
        1
1071
        0
1071
        0
1040
1.0
1000

1000

1040
0.0
1040
0.0
  0
VERTEX
  5
200
  8
0
  6
CONTINUOUS
 62
     0
 10
0.0
 20
0.0
 30
0.0
  0
VERTEX
  5
201
  8
0
  6
CONTINUOUS
 62
     0
 10
-1.0
 20
-0.1665
 30
0.0
  0
VERTEX
  5
202
  8
0
  6
CONTINUOUS
 62
     0
 10
-1.0
 20
0.1665
 30
0.0
  0
VERTEX
  5
203
  8
0
  6
CONTINUOUS
 62
     0
 10
0.0
 20
0.0
 30
0.0
  0
SEQEND
  5
204
  8
0
  6
CONTINUOUS
 62
     0
  0
INSERT
  5
140
  8
0
  6
CONTINUOUS
 62
     0
  2
*U3
 10
0.0
 20
0.0
 30
0.0
1001
VDEXTRAPARAM
1071
        1
1071
        0
1071
        0
1040
1.0
1000

1000

1040
0.0
1040
0.0
1001
VD_TEMPHATCH
1000
VD_TEMPHATCH
1001
ACAD
1002
{
1000
R14_HATCH_DATA
1000
140
1011
1.0
1021
0.0
1031
0.0
1021
0.0
1031
0.0
1011
0.0
1021
0.0
1031
0.0
1021
1.0
1031
0.0
1011
0.0
1021
0.0
1031
0.0
1021
0.0
1031
1.0
1040
0.0
1010
0.0
1020
0.0
1030
1.0
1000
SOLID
1070
     1
1070
     0
1071
        1
1071
        2
1070
     0
1070
     1
1071
        3
1040
0.0
1040
0.0
1040
-1.0
1040
-0.1665
1040
-1.0
1040
0.1665
1071
        0
1070
     0
1070
     1
1071
        1
1040
0.0
1040
0.0
1040
0.0
1002
}
  0
ENDBLK
  5
13D
  8
0
  0
BLOCK
  8
0
  2
VDDIM_NONE
 70
     0
 10
0.0
 20
0.0
 30
0.0
  3
VDDIM_NONE
  1

  0
ENDBLK
  5
13F
  8
0
  0
BLOCK
  8
0
  2
*U3
 70
     1
 10
0.0
 20
0.0
 30
0.0
  3
*U3
  1

  0
SOLID
  5
212
  8
0
  6
CONTINUOUS
 62
     0
 10
-1.0
 20
0.1665
 30
0.0
 11
-1.0
 21
0.0
 31
0.0
 12
0.0
 22
0.0
 32
0.0
 13
0.0
 23
0.0
 33
0.0
210
0.0
220
0.0
230
1.0
  0
SOLID
  5
213
  8
0
  6
CONTINUOUS
 62
     0
 10
1.0
 20
0.0
 30
0.0
 11
0.0
 21
0.0
 31
0.0
 12
1.0
 22
-0.1665
 32
0.0
 13
1.0
 23
-0.1665
 33
0.0
210
0.0
220
0.0
230
-1.0
  0
LINE
  5
214
  8
0
  6
CONTINUOUS
 62
     0
 10
-1.0
 20
0.1665
 30
0.0
 11
-1.0
 21
0.0
 31
0.0
  0
LINE
  5
215
  8
0
  6
CONTINUOUS
 62
     0
 10
0.0
 20
0.0
 30
0.0
 11
-1.0
 21
0.1665
 31
0.0
  0
LINE
  5
216
  8
0
  6
CONTINUOUS
 62
     0
 10
0.0
 20
0.0
 30
0.0
 11
-1.0
 21
-0.1665
 31
0.0
  0
LINE
  5
217
  8
0
  6
CONTINUOUS
 62
     0
 10
-1.0
 20
-0.1665
 30
0.0
 11
-1.0
 21
0.0
 31
0.0
  0
ENDBLK
  5
219
  8
0
  0
ENDSEC
  0
SECTION
  2
ENTITIES
  0
POLYLINE
  5
5F
  8
84
 66
     1
 10
0.0
 20
0.0
 30
0.0
 70
     1
  0
VERTEX
  5
1B4
  8
84
 10
952.50168409093578
 20
373.94478832303361
 30
0.0
  0
VERTEX
  5
1B5
  8
84
 10
553.26958409093584
 20
373.94478832303361
 30
0.0
  0
VERTEX
  5
1B6
  8
84
 10
550.74228409093587
 20
435.6591883230335
 30
0.0
  0
VERTEX
  5
1B7
  8
84
 10
549.15988409093575
 20
466.49478832303362
 30
0.0
  0
VERTEX
  5
1B8
  8
84
 10
547.19138409093568
 20
497.30498832303363
 30
0.0
  0
VERTEX
  5
1B9
  8
84
 10
545.99248409093582
 20
510.31738832303353
 30
0.0
  0
VERTEX
  5
1BA
  8
84
 10
544.13828409093583
 20
523.2434883230336
 30
0.0
  0
VERTEX
  5
1BB
  8
84
 10
543.15278409093582
 20
527.90438832303346
 30
0.0
  0
VERTEX
  5
1BC
  8
84
 10
541.73548409093576
 20
532.43828832303348
 30
0.0
  0
VERTEX
  5
1BD
  8
84
 10
539.41138409093583
 20
537.35318832303346
 30
0.0
  0
VERTEX
  5
1BE
  8
84
 10
536.47508409093575
 20
541.92268832303364
 30
0.0
  0
VERTEX
  5
1BF
  8
84
 10
532.13678409093575
 20
546.69028832303366
 30
0.0
  0
VERTEX
  5
1C0
  8
84
 10
527.36158409093582
 20
551.06408832303362
 30
0.0
  0
VERTEX
  5
1C1
  8
84
 10
521.00908409093574
 20
556.32698832303356
 30
0.0
  0
VERTEX
  5
1C2
  8
84
 10
513.68368409093591
 20
562.31888832303355
 30
0.0
  0
VERTEX
  5
1C3
  8
84
 10
506.5106840909358
 20
568.39958832303364
 30
0.0
  0
VERTEX
  5
1C4
  8
84
 10
500.6026840909359
 20
573.91138832303363
 30
0.0
  0
VERTEX
  5
1C5
  8
84
 10
496.48278409093581
 20
578.67388832303345
 30
0.0
  0
VERTEX
  5
1C6
  8
84
 10
493.00808409093588
 20
583.88348832303359
 30
0.0
  0
VERTEX
  5
1C7
  8
84
 10
490.94558409093582
 20
589.07518832303356
 30
0.0
  0
VERTEX
  5
1C8
  8
84
 10
489.6501840909358
 20
594.52858832303355
 30
0.0
  0
VERTEX
  5
1C9
  8
84
 10
489.32258409093578
 20
600.47218832303349
 30
0.0
  0
VERTEX
  5
1CA
  8
84
 10
489.87628409093583
 20
606.84248832303365
 30
0.0
  0
VERTEX
  5
1CB
  8
84
 10
491.30378409093589
 20
613.45418832303346
 30
0.0
  0
VERTEX
  5
1CC
  8
84
 10
493.34078409093581
 20
619.89808832303345
 30
0.0
  0
VERTEX
  5
1CD
  8
84
 10
496.18558409093578
 20
626.34968832303355
 30
0.0
  0
VERTEX
  5
1CE
  8
84
 10
499.70098409093589
 20
632.45838832303355
 30
0.0
  0
VERTEX
  5
1CF
  8
84
 10
503.95038409093581
 20
638.17848832303355
 30
0.0
  0
VERTEX
  5
1D0
  8
84
 10
508.82208409093579
 20
643.37538832303358
 30
0.0
  0
VERTEX
  5
1D1
  8
84
 10
514.98928409093583
 20
648.33848832303363
 30
0.0
  0
VERTEX
  5
1D2
  8
84
 10
521.59068409093584
 20
652.74538832303358
 30
0.0
  0
VERTEX
  5
1D3
  8
84
 10
529.80508409093579
 20
657.33518832303355
 30
0.0
  0
VERTEX
  5
1D4
  8
84
 10
538.87028409093591
 20
661.80308832303353
 30
0.0
  0
VERTEX
  5
1D5
  8
84
 10
547.83148409093587
 20
665.68418832303348
 30
0.0
  0
VERTEX
  5
1D6
  8
84
 10
556.43188409093591
 20
668.77788832303361
 30
0.0
  0
VERTEX
  5
1D7
  8
84
 10
565.19238409093589
 20
671.13248832303361
 30
0.0
  0
VERTEX
  5
1D8
  8
84
 10
574.93828409093578
 20
672.85458832303345
 30
0.0
  0
VERTEX
  5
1D9
  8
84
 10
584.74528409093591
 20
674.23378832303365
 30
0.0
  0
VERTEX
  5
1DA
  8
84
 10
604.42008409093592
 20
676.57568832303355
 30
0.0
  0
VERTEX
  5
1DB
  8
84
 10
626.51048409093585
 20
678.86928832303363
 30
0.0
  0
VERTEX
  5
1DC
  8
84
 10
671.1306840909358
 20
676.9033883230336
 30
0.0
  0
VERTEX
  5
1DD
  8
84
 10
699.70568409093585
 20
675.17108832303359
 30
0.0
  0
VERTEX
  5
1DE
  8
84
 10
728.23238409093585
 20
672.80888832303356
 30
0.0
  0
VERTEX
  5
1DF
  8
84
 10
749.62428409093582
 20
670.2561883230336
 30
0.0
  0
VERTEX
  5
1E0
  8
84
 10
770.92728409093593
 20
667.04308832303354
 30
0.0
  0
VERTEX
  5
1E1
  8
84
 10
790.86118409093592
 20
663.34738832303356
 30
0.0
  0
VERTEX
  5
1E2
  8
84
 10
810.67828409093579
 20
659.07508832303347
 30
0.0
  0
VERTEX
  5
1E3
  8
84
 10
830.80268409093583
 20
654.08908832303359
 30
0.0
  0
VERTEX
  5
1E4
  8
84
 10
850.82298409093585
 20
648.69408832303361
 30
0.0
  0
VERTEX
  5
1E5
  8
84
 10
871.19118409093585
 20
642.82158832303355
 30
0.0
  0
VERTEX
  5
1E6
  8
84
 10
890.96258409093582
 20
636.88568832303361
 30
0.0
  0
VERTEX
  5
1E7
  8
84
 10
908.71968409093574
 20
631.37128832303347
 30
0.0
  0
VERTEX
  5
1E8
  8
84
 10
923.4110840909359
 20
626.55038832303364
 30
0.0
  0
VERTEX
  5
1E9
  8
84
 10
937.96278409093588
 20
621.33578832303363
 30
0.0
  0
VERTEX
  5
1EA
  8
84
 10
949.06258409093573
 20
616.80948832303363
 30
0.0
  0
VERTEX
  5
1EB
  8
84
 10
959.92108409093589
 20
611.74468832303364
 30
0.0
  0
VERTEX
  5
1EC
  8
84
 10
968.03128409093586
 20
607.27178832303355
 30
0.0
  0
VERTEX
  5
1ED
  8
84
 10
975.88498409093586
 20
602.3593883230335
 30
0.0
  0
VERTEX
  5
1EE
  8
84
 10
981.93518409093588
 20
597.88898832303346
 30
0.0
  0
VERTEX
  5
1EF
  8
84
 10
986.49708409093614
 20
593.78948832303354
 30
0.0
  0
VERTEX
  5
1F0
  8
84
 10
989.75338409093592
 20
589.90328832303362
 30
0.0
  0
VERTEX
  5
1F1
  8
84
 10
992.37208409093614
 20
585.6030883230336
 30
0.0
  0
VERTEX
  5
1F2
  8
84
 10
993.92148409093591
 20
580.71608832303355
 30
0.0
  0
VERTEX
  5
1F3
  8
84
 10
994.63018409093581
 20
575.61828832303354
 30
0.0
  0
VERTEX
  5
1F4
  8
84
 10
994.43968409093588
 20
568.18118832303355
 30
0.0
  0
VERTEX
  5
1F5
  8
84
 10
993.57608409093575
 20
560.75418832303365
 30
0.0
  0
VERTEX
  5
1F6
  8
84
 10
991.84878409093585
 20
549.07018832303345
 30
0.0
  0
VERTEX
  5
1F7
  8
84
 10
989.32918409093588
 20
533.25368832303366
 30
0.0
  0
VERTEX
  5
1F8
  8
84
 10
986.13388409093591
 20
514.43228832303362
 30
0.0
  0
VERTEX
  5
1F9
  8
84
 10
982.35178409093578
 20
494.05378832303347
 30
0.0
  0
VERTEX
  5
1FA
  8
84
 10
973.37798409093602
 20
452.32928832303361
 30
0.0
  0
VERTEX
  5
1FB
  8
84
 10
968.32078409093594
 20
431.7425883230336
 30
0.0
  0
VERTEX
  5
1FC
  8
84
 10
963.0401840909359
 20
411.76548832303348
 30
0.0
  0
VERTEX
  5
1FD
  8
84
 10
957.74168409093613
 20
392.6773883230336
 30
0.0
  0
VERTEX
  5
1FE
  8
84
 10
952.50168409093578
 20
373.94478832303361
 30
0.0
  0
SEQEND
  5
1FF
  8
84
  0
VIEWPORT
  5
141
 67
     1
  8
0
 10
0.0
 20
0.0
 30
0.0
 40
10.0
 41
10.0
 68
    -1
 69
     1
1001
ACAD
1000
MVIEW
1002
{
1070
    16
1010
0.0
1020
0.0
1030
0.0
1010
0.0
1020
0.0
1030
1.0
1040
0.0000000000000139
1040
10.0
1040
0.0
1040
0.0
1040
0.0
1040
0.0
1040
0.0
1070
     0
1070
   100
1070
     1
1070
     1
1070
     0
1070
     0
1070
     0
1070
     0
1040
0.0
1040
0.0
1040
0.0
1040
1.0
1040
1.0
1040
0.0
1040
0.0
1070
     0
1002
{
1002
}
1002
}
1001
VD_INVISIBLE_NOT_FOR_READ
1000
VD_INVISIBLE_NOT_FOR_READ
  0
VIEWPORT
  5
142
 67
     1
  8
0
 10
0.0
 20
0.0
 30
0.0
 40
10.0
 41
10.0
 68
     0
 69
     2
1001
ACAD
1000
MVIEW
1002
{
1070
    16
1010
0.0
1020
0.0
1030
0.0
1010
0.0
1020
0.0
1030
1.0
1040
0.0000000000000139
1040
10.0
1040
0.0
1040
0.0
1040
0.0
1040
0.0
1040
0.0
1070
     0
1070
   100
1070
     1
1070
     1
1070
     0
1070
     0
1070
     0
1070
     0
1040
0.0
1040
0.0
1040
0.0
1040
1.0
1040
1.0
1040
0.0
1040
0.0
1070
     0
1002
{
1002
}
1002
}
1001
VD_INVISIBLE_NOT_FOR_READ
1000
VD_INVISIBLE_NOT_FOR_READ
  0
ENDSEC
  0
EOF
