  0
SECTION
  2
HEADER
  9
$ACADVER
  1
AC1009
  9
$DWGCODEPAGE
  3
ansi_1250
  9
$INSBASE
 10
0.0
 20
0.0
 30
0.0
  9
$EXTMIN
 10
0.0
 20
-0.083333333333333
 30
0.0
  9
$EXTMAX
 10
1179.678813881476
 20
841.2739909767705
 30
0.0
  9
$LIMMIN
 10
0.0
 20
0.0
  9
$LIMMAX
 10
12.0
 20
9.0
  9
$ORTHOMODE
 70
     0
  9
$REGENMODE
 70
     1
  9
$FILLMODE
 70
     1
  9
$QTEXTMODE
 70
     0
  9
$MIRRTEXT
 70
     1
  9
$DRAGMODE
 70
     2
  9
$LTSCALE
 40
1.0
  9
$OSMODE
 70
 15231
  9
$ATTMODE
 70
     1
  9
$TEXTSIZE
 40
0.2
  9
$TRACEWID
 40
0.05
  9
$TEXTSTYLE
  7
STANDARD
  9
$CLAYER
  8
0
  9
$CELTYPE
  6
BYBLOCK
  9
$CECOLOR
 62
     1
  9
$DIMSCALE
 40
1.0
  9
$DIMASZ
 40
0.18
  9
$DIMEXO
 40
0.0625
  9
$DIMDLI
 40
0.38
  9
$DIMRND
 40
0.0
  9
$DIMDLE
 40
0.0
  9
$DIMEXE
 40
0.18
  9
$DIMTP
 40
0.0
  9
$DIMTM
 40
0.0
  9
$DIMTXT
 40
0.18
  9
$DIMCEN
 40
0.09
  9
$DIMTSZ
 40
0.0
  9
$DIMTOL
 70
     0
  9
$DIMLIM
 70
     0
  9
$DIMTIH
 70
     1
  9
$DIMTOH
 70
     1
  9
$DIMSE1
 70
     0
  9
$DIMSE2
 70
     0
  9
$DIMTAD
 70
     0
  9
$DIMZIN
 70
     0
  9
$DIMBLK
  1

  9
$DIMASO
 70
     1
  9
$DIMSHO
 70
     1
  9
$DIMPOST
  1

  9
$DIMAPOST
  1

  9
$DIMALT
 70
     0
  9
$DIMALTD
 70
     2
  9
$DIMALTF
 40
25.4
  9
$DIMLFAC
 40
1.0
  9
$DIMTOFL
 70
     0
  9
$DIMTVP
 40
0.0
  9
$DIMTIX
 70
     0
  9
$DIMSOXD
 70
     0
  9
$DIMSAH
 70
     0
  9
$DIMBLK1
  1

  9
$DIMBLK2
  1

  9
$DIMSTYLE
  2
STANDARD
  9
$DIMCLRD
 70
     0
  9
$DIMCLRE
 70
     0
  9
$DIMCLRT
 70
     0
  9
$DIMTFAC
 40
1.0
  9
$DIMGAP
 40
0.09
  9
$LUNITS
 70
     2
  9
$LUPREC
 70
     4
  9
$SKETCHINC
 40
0.1
  9
$FILLETRAD
 40
0.5
  9
$AUNITS
 70
     0
  9
$AUPREC
 70
     0
  9
$MENU
  1
.
  9
$ELEVATION
 40
0.0
  9
$PELEVATION
 40
0.0
  9
$THICKNESS
 40
0.0
  9
$LIMCHECK
 70
     0
  9
$CHAMFERA
 40
0.0
  9
$CHAMFERB
 40
0.0
  9
$SKPOLY
 70
     0
  9
$TDCREATE
 40
2458132.296972118
  9
$TDUPDATE
 40
2459143.336047535
  9
$TDINDWG
 40
0.0081487037
  9
$TDUSRTIMER
 40
0.0003003009
  9
$USRTIMER
 70
     1
  9
$ANGBASE
 50
0.0
  9
$ANGDIR
 70
     0
  9
$PDMODE
 70
     0
  9
$PDSIZE
 40
0.0
  9
$PLINEWID
 40
0.0
  9
$COORDS
 70
     1
  9
$SPLFRAME
 70
     0
  9
$SPLINETYPE
 70
     6
  9
$SPLINESEGS
 70
     8
  9
$ATTDIA
 70
     0
  9
$ATTREQ
 70
     1
  9
$HANDLING
 70
     1
  9
$HANDSEED
  5
677
  9
$SURFTAB1
 70
     6
  9
$SURFTAB2
 70
     6
  9
$SURFTYPE
 70
     6
  9
$SURFU
 70
     6
  9
$SURFV
 70
     6
  9
$UCSNAME
  2

  9
$UCSORG
 10
0.0
 20
0.0
 30
0.0
  9
$UCSXDIR
 10
1.0
 20
0.0
 30
0.0
  9
$UCSYDIR
 10
0.0
 20
1.0
 30
0.0
  9
$PUCSNAME
  2

  9
$PUCSORG
 10
0.0
 20
0.0
 30
0.0
  9
$PUCSXDIR
 10
1.0
 20
0.0
 30
0.0
  9
$PUCSYDIR
 10
0.0
 20
1.0
 30
0.0
  9
$USERI1
 70
     0
  9
$USERI2
 70
     0
  9
$USERI3
 70
     0
  9
$USERI4
 70
     0
  9
$USERI5
 70
     0
  9
$USERR1
 40
0.0
  9
$USERR2
 40
0.0
  9
$USERR3
 40
0.0
  9
$USERR4
 40
0.0
  9
$USERR5
 40
0.0
  9
$WORLDVIEW
 70
     1
  9
$SHADEDGE
 70
     3
  9
$SHADEDIF
 70
    70
  9
$TILEMODE
 70
     1
  9
$MAXACTVP
 70
    64
  9
$PLIMCHECK
 70
     0
  9
$PEXTMIN
 10
1.000000000000000E+20
 20
1.000000000000000E+20
 30
1.000000000000000E+20
  9
$PEXTMAX
 10
-1.000000000000000E+20
 20
-1.000000000000000E+20
 30
-1.000000000000000E+20
  9
$PLIMMIN
 10
0.0
 20
0.0
  9
$PLIMMAX
 10
0.0
 20
0.0
  9
$UNITMODE
 70
     0
  9
$VISRETAIN
 70
     1
  9
$PLINEGEN
 70
     0
  9
$PSLTSCALE
 70
     1
  0
ENDSEC
  0
SECTION
  2
TABLES
  0
TABLE
  2
VPORT
 70
     1
  0
VPORT
  2
*ACTIVE
 70
     0
 10
0.0
 20
0.0
 11
1.0
 21
1.0
 12
1198.318444112258
 22
440.5639491868863
 13
0.0
 23
0.0
 14
0.5
 24
0.5
 15
0.5
 25
0.5
 16
0.0
 26
0.0
 36
1.0
 17
0.0
 27
0.0
 37
0.0
 40
1250.386041058718
 41
1.508724832214765
 42
50.0
 43
0.0
 44
0.0
 50
0.0
 51
0.0
 71
    16
 72
   100
 73
     1
 74
     3
 75
     0
 76
     0
 77
     0
 78
     0
  0
ENDTAB
  0
TABLE
  2
LTYPE
 70
     1
  0
LTYPE
  2
CONTINUOUS
 70
     0
  3
Solid line
 72
    65
 73
     0
 40
0.0
  0
ENDTAB
  0
TABLE
  2
LAYER
 70
     7
  0
LAYER
  2
0
 70
     0
 62
     7
  6
CONTINUOUS
  0
LAYER
  2
1
 70
     0
 62
     7
  6
CONTINUOUS
  0
LAYER
  2
2
 70
     0
 62
     7
  6
CONTINUOUS
  0
LAYER
  2
5
 70
     0
 62
     7
  6
CONTINUOUS
  0
LAYER
  2
7
 70
     0
 62
     7
  6
CONTINUOUS
  0
LAYER
  2
3
 70
     0
 62
     7
  6
CONTINUOUS
  0
LAYER
  2
84
 70
     0
 62
     7
  6
CONTINUOUS
  0
ENDTAB
  0
TABLE
  2
STYLE
 70
     1
  0
STYLE
  2
STANDARD
 70
     0
 40
0.0
 41
1.0
 50
0.0
 71
     0
 42
0.2
  3
txt
  4

  0
ENDTAB
  0
TABLE
  2
VIEW
 70
     0
  0
ENDTAB
  0
TABLE
  2
UCS
 70
     0
  0
ENDTAB
  0
TABLE
  2
APPID
 70
     1
  0
APPID
  2
ACAD
 70
     0
  0
ENDTAB
  0
TABLE
  2
DIMSTYLE
 70
     1
  0
DIMSTYLE
  2
STANDARD
 70
     0
  3

  4

  5

  6

  7

 40
1.0
 41
0.18
 42
0.0625
 43
0.38
 44
0.18
 45
0.0
 46
0.0
 47
0.0
 48
0.0
140
0.18
141
0.09
142
0.0
143
25.4
144
1.0
145
0.0
146
1.0
147
0.09
 71
     0
 72
     0
 73
     1
 74
     1
 75
     0
 76
     0
 77
     0
 78
     0
170
     0
171
     2
172
     0
173
     0
174
     0
175
     0
176
     0
177
     0
178
     0
  0
ENDTAB
  0
ENDSEC
  0
SECTION
  2
BLOCKS
  0
BLOCK
  8
0
  2
$MODEL_SPACE
 70
     0
 10
0.0
 20
0.0
 30
0.0
  3
$MODEL_SPACE
  1

  0
ENDBLK
  5
1D1
  8
0
  0
BLOCK
 67
     1
  8
0
  2
$PAPER_SPACE
 70
     0
 10
0.0
 20
0.0
 30
0.0
  3
$PAPER_SPACE
  1

  0
ENDBLK
  5
1D3
 67
     1
  8
0
  0
BLOCK
  8
0
  2
60-1_1
 70
     0
 10
0.0
 20
0.0
 30
0.0
  3
60-1_1
  1

  0
TEXT
  5
24
  8
1
 10
285.9761
 20
205.9788
 30
0.0
 40
0.25
  1
Piece Name: 60-1
  0
TEXT
  5
25
  8
1
 10
285.9761
 20
209.5348
 30
0.0
 40
0.25
  1
Quantity: 0,1
  0
TEXT
  5
26
  8
1
 10
285.9761
 20
213.0908
 30
0.0
 40
0.25
  1
ANNOTATION
  0
TEXT
  5
27
  8
1
 10
285.9761
 20
216.6468
 30
0.0
 40
0.25
  1
CATEGORY: 112287
  0
TEXT
  5
28
  8
1
 10
285.9761
 20
220.2028
 30
0.0
 40
0.25
  1
SIZE: 1
  0
POLYLINE
  5
29
  8
1
 66
     1
 10
0.0
 20
0.0
 30
0.0
 70
     1
  0
VERTEX
  5
57E
  8
1
 10
12.7051
 20
381.5868
 30
0.0
  0
VERTEX
  5
57F
  8
1
 10
124.9452
 20
384.9345
 30
0.0
  0
VERTEX
  5
580
  8
1
 10
244.0737
 20
392.9508
 30
0.0
  0
VERTEX
  5
581
  8
1
 10
385.793
 20
401.8484
 30
0.0
  0
VERTEX
  5
582
  8
1
 10
495.8512
 20
408.1374
 30
0.0
  0
VERTEX
  5
583
  8
1
 10
571.9547
 20
411.9601
 30
0.0
  0
VERTEX
  5
584
  8
1
 10
548.2743
 20
346.6821
 30
0.0
  0
VERTEX
  5
585
  8
1
 10
531.8608
 20
293.7231
 30
0.0
  0
VERTEX
  5
586
  8
1
 10
524.5939
 20
235.8822
 30
0.0
  0
VERTEX
  5
587
  8
1
 10
520.6086
 20
178.4605
 30
0.0
  0
VERTEX
  5
588
  8
1
 10
520.3165
 20
128.5977
 30
0.0
  0
VERTEX
  5
589
  8
1
 10
526.7453
 20
81.6179
 30
0.0
  0
VERTEX
  5
58A
  8
1
 10
534.8199
 20
42.3495
 30
0.0
  0
VERTEX
  5
58B
  8
1
 10
547.3751
 20
0.0
 30
0.0
  0
VERTEX
  5
58C
  8
1
 10
511.8304
 20
8.8951
 30
0.0
  0
VERTEX
  5
58D
  8
1
 10
439.7934
 20
25.3696
 30
0.0
  0
VERTEX
  5
58E
  8
1
 10
356.7608
 20
43.0708
 30
0.0
  0
VERTEX
  5
58F
  8
1
 10
291.1171
 20
58.8493
 30
0.0
  0
VERTEX
  5
590
  8
1
 10
184.8943
 20
82.5069
 30
0.0
  0
VERTEX
  5
591
  8
1
 10
107.2008
 20
100.2234
 30
0.0
  0
VERTEX
  5
592
  8
1
 10
39.3116
 20
115.123
 30
0.0
  0
VERTEX
  5
593
  8
1
 10
0.0
 20
123.0681
 30
0.0
  0
VERTEX
  5
594
  8
1
 10
12.7051
 20
381.5868
 30
0.0
  0
SEQEND
  5
671
  8
1
  0
POLYLINE
  5
42
  8
84
 66
     1
 10
0.0
 20
0.0
 30
0.0
 70
     1
  0
VERTEX
  5
595
  8
84
 10
12.7051
 20
381.5868
 30
0.0
  0
VERTEX
  5
596
  8
84
 10
68.8341
 20
383.0041
 30
0.0
  0
VERTEX
  5
597
  8
84
 10
124.9452
 20
384.9345
 30
0.0
  0
VERTEX
  5
598
  8
84
 10
184.5234
 20
388.7013
 30
0.0
  0
VERTEX
  5
599
  8
84
 10
244.0737
 20
392.9508
 30
0.0
  0
VERTEX
  5
59A
  8
84
 10
385.793
 20
401.8484
 30
0.0
  0
VERTEX
  5
59B
  8
84
 10
495.8512
 20
408.1374
 30
0.0
  0
VERTEX
  5
59C
  8
84
 10
571.9547
 20
411.9601
 30
0.0
  0
VERTEX
  5
59D
  8
84
 10
559.9227
 20
379.3872
 30
0.0
  0
VERTEX
  5
59E
  8
84
 10
548.2743
 20
346.6821
 30
0.0
  0
VERTEX
  5
59F
  8
84
 10
539.3386
 20
320.4033
 30
0.0
  0
VERTEX
  5
5A0
  8
84
 10
535.3127
 20
307.1394
 30
0.0
  0
VERTEX
  5
5A1
  8
84
 10
531.8608
 20
293.7231
 30
0.0
  0
VERTEX
  5
5A2
  8
84
 10
529.3259
 20
279.3797
 30
0.0
  0
VERTEX
  5
5A3
  8
84
 10
527.4107
 20
264.9297
 30
0.0
  0
VERTEX
  5
5A4
  8
84
 10
524.5939
 20
235.8822
 30
0.0
  0
VERTEX
  5
5A5
  8
84
 10
522.1834
 20
207.2005
 30
0.0
  0
VERTEX
  5
5A6
  8
84
 10
520.6086
 20
178.4605
 30
0.0
  0
VERTEX
  5
5A7
  8
84
 10
519.8365
 20
153.5202
 30
0.0
  0
VERTEX
  5
5A8
  8
84
 10
519.8593
 20
141.0539
 30
0.0
  0
VERTEX
  5
5A9
  8
84
 10
520.3165
 20
128.5977
 30
0.0
  0
VERTEX
  5
5AA
  8
84
 10
521.4163
 20
116.7969
 30
0.0
  0
VERTEX
  5
5AB
  8
84
 10
522.9302
 20
105.0367
 30
0.0
  0
VERTEX
  5
5AC
  8
84
 10
526.7453
 20
81.6179
 30
0.0
  0
VERTEX
  5
5AD
  8
84
 10
530.4181
 20
61.9075
 30
0.0
  0
VERTEX
  5
5AE
  8
84
 10
534.8199
 20
42.3495
 30
0.0
  0
VERTEX
  5
5AF
  8
84
 10
540.8753
 20
21.1151
 30
0.0
  0
VERTEX
  5
5B0
  8
84
 10
547.3751
 20
0.0
 30
0.0
  0
VERTEX
  5
5B1
  8
84
 10
511.8304
 20
8.8951
 30
0.0
  0
VERTEX
  5
5B2
  8
84
 10
475.8487
 20
17.2873
 30
0.0
  0
VERTEX
  5
5B3
  8
84
 10
439.7934
 20
25.3696
 30
0.0
  0
VERTEX
  5
5B4
  8
84
 10
356.7608
 20
43.0708
 30
0.0
  0
VERTEX
  5
5B5
  8
84
 10
291.1171
 20
58.8493
 30
0.0
  0
VERTEX
  5
5B6
  8
84
 10
184.8943
 20
82.5069
 30
0.0
  0
VERTEX
  5
5B7
  8
84
 10
107.2008
 20
100.2234
 30
0.0
  0
VERTEX
  5
5B8
  8
84
 10
39.3116
 20
115.123
 30
0.0
  0
VERTEX
  5
5B9
  8
84
 10
0.0
 20
123.0681
 30
0.0
  0
VERTEX
  5
5BA
  8
84
 10
12.7051
 20
381.5868
 30
0.0
  0
SEQEND
  5
672
  8
84
  0
POINT
  5
6A
  8
2
 10
12.7051
 20
381.5868
 30
0.0
  0
POINT
  5
6B
  8
3
 10
124.9452
 20
384.9345
 30
0.0
  0
POINT
  5
6C
  8
3
 10
244.0737
 20
392.9508
 30
0.0
  0
POINT
  5
6D
  8
3
 10
385.793
 20
401.8484
 30
0.0
  0
POINT
  5
6E
  8
3
 10
495.8512
 20
408.1374
 30
0.0
  0
POINT
  5
6F
  8
2
 10
571.9547
 20
411.9601
 30
0.0
  0
POINT
  5
70
  8
3
 10
548.2743
 20
346.6821
 30
0.0
  0
POINT
  5
71
  8
3
 10
531.8608
 20
293.7231
 30
0.0
  0
POINT
  5
72
  8
3
 10
524.5939
 20
235.8822
 30
0.0
  0
POINT
  5
73
  8
3
 10
520.6086
 20
178.4605
 30
0.0
  0
POINT
  5
74
  8
3
 10
520.3165
 20
128.5977
 30
0.0
  0
POINT
  5
75
  8
3
 10
526.7453
 20
81.6179
 30
0.0
  0
POINT
  5
76
  8
3
 10
534.8199
 20
42.3495
 30
0.0
  0
POINT
  5
77
  8
2
 10
547.3751
 20
0.0
 30
0.0
  0
POINT
  5
78
  8
3
 10
511.8304
 20
8.8951
 30
0.0
  0
POINT
  5
79
  8
3
 10
439.7934
 20
25.3696
 30
0.0
  0
POINT
  5
7A
  8
3
 10
356.7608
 20
43.0708
 30
0.0
  0
POINT
  5
7B
  8
3
 10
291.1171
 20
58.8493
 30
0.0
  0
POINT
  5
7C
  8
3
 10
184.8943
 20
82.5069
 30
0.0
  0
POINT
  5
7D
  8
3
 10
107.2008
 20
100.2234
 30
0.0
  0
POINT
  5
7E
  8
3
 10
39.3116
 20
115.123
 30
0.0
  0
POINT
  5
7F
  8
2
 10
0.0
 20
123.0681
 30
0.0
  0
POINT
  5
80
  8
2
 10
12.7051
 20
381.5868
 30
0.0
  0
LINE
  5
81
  8
7
 10
207.7441
 20
285.839
 30
0.0
 11
324.2234
 21
285.839
 31
0.0
  0
LINE
  5
82
  8
5
 10
207.7441
 20
285.839
 30
0.0
 11
324.2234
 21
285.839
 31
0.0
  0
POINT
  5
83
  8
2
 10
207.7441
 20
285.839
 30
0.0
  0
POINT
  5
84
  8
2
 10
324.2234
 20
285.839
 30
0.0
  0
ENDBLK
  5
85
  8
0
  0
BLOCK
  8
0
  2
60-2_1
 70
     0
 10
0.0
 20
0.0
 30
0.0
  3
60-2_1
  1

  0
TEXT
  5
88
  8
1
 10
310.6141
 20
133.1596
 30
0.0
 40
0.25
  1
Piece Name: 60-2
  0
TEXT
  5
89
  8
1
 10
310.6141
 20
136.7156
 30
0.0
 40
0.25
  1
Quantity: 0,1
  0
TEXT
  5
8A
  8
1
 10
310.6141
 20
140.2715
 30
0.0
 40
0.25
  1
ANNOTATION
  0
TEXT
  5
8B
  8
1
 10
310.6141
 20
143.8276
 30
0.0
 40
0.25
  1
CATEGORY: 112288
  0
TEXT
  5
8C
  8
1
 10
310.6141
 20
147.3836
 30
0.0
 40
0.25
  1
SIZE: 1
  0
POLYLINE
  5
8D
  8
1
 66
     1
 10
0.0
 20
0.0
 30
0.0
 70
     1
  0
VERTEX
  5
5BB
  8
1
 10
108.3209
 20
266.3191
 30
0.0
  0
VERTEX
  5
5BC
  8
1
 10
621.2282
 20
216.0245
 30
0.0
  0
VERTEX
  5
5BD
  8
1
 10
614.8909
 20
168.4046
 30
0.0
  0
VERTEX
  5
5BE
  8
1
 10
608.3199
 20
139.6899
 30
0.0
  0
VERTEX
  5
5BF
  8
1
 10
601.4365
 20
118.4047
 30
0.0
  0
VERTEX
  5
5C0
  8
1
 10
596.3031
 20
102.0547
 30
0.0
  0
VERTEX
  5
5C1
  8
1
 10
589.2902
 20
87.4142
 30
0.0
  0
VERTEX
  5
5C2
  8
1
 10
454.909
 20
109.7001
 30
0.0
  0
VERTEX
  5
5C3
  8
1
 10
438.8105
 20
109.4512
 30
0.0
  0
VERTEX
  5
5C4
  8
1
 10
423.0396
 20
109.9389
 30
0.0
  0
VERTEX
  5
5C5
  8
1
 10
409.3592
 20
110.9904
 30
0.0
  0
VERTEX
  5
5C6
  8
1
 10
399.4278
 20
111.1733
 30
0.0
  0
VERTEX
  5
5C7
  8
1
 10
391.1677
 20
110.1776
 30
0.0
  0
VERTEX
  5
5C8
  8
1
 10
383.8703
 20
108.5774
 30
0.0
  0
VERTEX
  5
5C9
  8
1
 10
378.8969
 20
107.2668
 30
0.0
  0
VERTEX
  5
5CA
  8
1
 10
369.4431
 20
101.7931
 30
0.0
  0
VERTEX
  5
5CB
  8
1
 10
366.0445
 20
98.2904
 30
0.0
  0
VERTEX
  5
5CC
  8
1
 10
360.3346
 20
86.5887
 30
0.0
  0
VERTEX
  5
5CD
  8
1
 10
354.391
 20
64.4475
 30
0.0
  0
VERTEX
  5
5CE
  8
1
 10
340.2788
 20
26.2459
 30
0.0
  0
VERTEX
  5
5CF
  8
1
 10
335.4934
 20
10.884
 30
0.0
  0
VERTEX
  5
5D0
  8
1
 10
330.0121
 20
4.2622
 30
0.0
  0
VERTEX
  5
5D1
  8
1
 10
324.9423
 20
1.9406
 30
0.0
  0
VERTEX
  5
5D2
  8
1
 10
320.9799
 20
0.5334
 30
0.0
  0
VERTEX
  5
5D3
  8
1
 10
314.5867
 20
0.3785
 30
0.0
  0
VERTEX
  5
5D4
  8
1
 10
297.2004
 20
0.0
 30
0.0
  0
VERTEX
  5
5D5
  8
1
 10
287.2918
 20
0.4369
 30
0.0
  0
VERTEX
  5
5D6
  8
1
 10
279.9944
 20
4.1961
 30
0.0
  0
VERTEX
  5
5D7
  8
1
 10
216.7306
 20
33.716
 30
0.0
  0
VERTEX
  5
5D8
  8
1
 10
200.5737
 20
40.8737
 30
0.0
  0
VERTEX
  5
5D9
  8
1
 10
181.5897
 20
47.7901
 30
0.0
  0
VERTEX
  5
5DA
  8
1
 10
127.2795
 20
69.5681
 30
0.0
  0
VERTEX
  5
5DB
  8
1
 10
74.1985
 20
88.1634
 30
0.0
  0
VERTEX
  5
5DC
  8
1
 10
28.1483
 20
105.5777
 30
0.0
  0
VERTEX
  5
5DD
  8
1
 10
0.0
 20
115.4126
 30
0.0
  0
VERTEX
  5
5DE
  8
1
 10
21.7399
 20
131.9607
 30
0.0
  0
VERTEX
  5
5DF
  8
1
 10
43.5864
 20
146.9695
 30
0.0
  0
VERTEX
  5
5E0
  8
1
 10
66.8935
 20
169.2352
 30
0.0
  0
VERTEX
  5
5E1
  8
1
 10
82.263
 20
191.2417
 30
0.0
  0
VERTEX
  5
5E2
  8
1
 10
94.5414
 20
215.5851
 30
0.0
  0
VERTEX
  5
5E3
  8
1
 10
102.0877
 20
241.1451
 30
0.0
  0
VERTEX
  5
5E4
  8
1
 10
105.7301
 20
257.8913
 30
0.0
  0
VERTEX
  5
5E5
  8
1
 10
107.5843
 20
261.2873
 30
0.0
  0
VERTEX
  5
5E6
  8
1
 10
108.3209
 20
266.3191
 30
0.0
  0
SEQEND
  5
673
  8
1
  0
POLYLINE
  5
BB
  8
84
 66
     1
 10
0.0
 20
0.0
 30
0.0
 70
     1
  0
VERTEX
  5
5E7
  8
84
 10
108.3209
 20
266.3191
 30
0.0
  0
VERTEX
  5
5E8
  8
84
 10
621.2282
 20
216.0245
 30
0.0
  0
VERTEX
  5
5E9
  8
84
 10
618.33
 20
192.1714
 30
0.0
  0
VERTEX
  5
5EA
  8
84
 10
614.8909
 20
168.4046
 30
0.0
  0
VERTEX
  5
5EB
  8
84
 10
611.9216
 20
153.9749
 30
0.0
  0
VERTEX
  5
5EC
  8
84
 10
608.3199
 20
139.6899
 30
0.0
  0
VERTEX
  5
5ED
  8
84
 10
601.4365
 20
118.4047
 30
0.0
  0
VERTEX
  5
5EE
  8
84
 10
596.3031
 20
102.0547
 30
0.0
  0
VERTEX
  5
5EF
  8
84
 10
589.2902
 20
87.4142
 30
0.0
  0
VERTEX
  5
5F0
  8
84
 10
555.8156
 20
93.9115
 30
0.0
  0
VERTEX
  5
5F1
  8
84
 10
522.2774
 20
100.0456
 30
0.0
  0
VERTEX
  5
5F2
  8
84
 10
488.6884
 20
105.7072
 30
0.0
  0
VERTEX
  5
5F3
  8
84
 10
471.8355
 20
108.0821
 30
0.0
  0
VERTEX
  5
5F4
  8
84
 10
454.909
 20
109.7001
 30
0.0
  0
VERTEX
  5
5F5
  8
84
 10
438.8105
 20
109.4512
 30
0.0
  0
VERTEX
  5
5F6
  8
84
 10
423.0396
 20
109.9389
 30
0.0
  0
VERTEX
  5
5F7
  8
84
 10
409.3592
 20
110.9904
 30
0.0
  0
VERTEX
  5
5F8
  8
84
 10
399.4278
 20
111.1733
 30
0.0
  0
VERTEX
  5
5F9
  8
84
 10
391.1677
 20
110.1776
 30
0.0
  0
VERTEX
  5
5FA
  8
84
 10
383.8703
 20
108.5774
 30
0.0
  0
VERTEX
  5
5FB
  8
84
 10
378.8969
 20
107.2668
 30
0.0
  0
VERTEX
  5
5FC
  8
84
 10
373.9871
 20
104.8436
 30
0.0
  0
VERTEX
  5
5FD
  8
84
 10
369.4431
 20
101.7931
 30
0.0
  0
VERTEX
  5
5FE
  8
84
 10
367.6168
 20
100.1624
 30
0.0
  0
VERTEX
  5
5FF
  8
84
 10
366.0445
 20
98.2904
 30
0.0
  0
VERTEX
  5
600
  8
84
 10
362.8314
 20
92.6288
 30
0.0
  0
VERTEX
  5
601
  8
84
 10
360.3346
 20
86.5887
 30
0.0
  0
VERTEX
  5
602
  8
84
 10
354.391
 20
64.4475
 30
0.0
  0
VERTEX
  5
603
  8
84
 10
340.2788
 20
26.2459
 30
0.0
  0
VERTEX
  5
604
  8
84
 10
338.1909
 20
18.4328
 30
0.0
  0
VERTEX
  5
605
  8
84
 10
336.992
 20
14.5974
 30
0.0
  0
VERTEX
  5
606
  8
84
 10
335.4934
 20
10.884
 30
0.0
  0
VERTEX
  5
607
  8
84
 10
333.0855
 20
7.2873
 30
0.0
  0
VERTEX
  5
608
  8
84
 10
330.0121
 20
4.2622
 30
0.0
  0
VERTEX
  5
609
  8
84
 10
327.5686
 20
2.9414
 30
0.0
  0
VERTEX
  5
60A
  8
84
 10
324.9423
 20
1.9406
 30
0.0
  0
VERTEX
  5
60B
  8
84
 10
320.9799
 20
0.5334
 30
0.0
  0
VERTEX
  5
60C
  8
84
 10
314.5867
 20
0.3785
 30
0.0
  0
VERTEX
  5
60D
  8
84
 10
297.2004
 20
0.0
 30
0.0
  0
VERTEX
  5
60E
  8
84
 10
292.2042
 20
-0.0813
 30
0.0
  0
VERTEX
  5
60F
  8
84
 10
287.2918
 20
0.4369
 30
0.0
  0
VERTEX
  5
610
  8
84
 10
283.5733
 20
2.1311
 30
0.0
  0
VERTEX
  5
611
  8
84
 10
279.9944
 20
4.1961
 30
0.0
  0
VERTEX
  5
612
  8
84
 10
264.3201
 20
11.8695
 30
0.0
  0
VERTEX
  5
613
  8
84
 10
248.4705
 20
19.1821
 30
0.0
  0
VERTEX
  5
614
  8
84
 10
216.7306
 20
33.716
 30
0.0
  0
VERTEX
  5
615
  8
84
 10
200.5737
 20
40.8737
 30
0.0
  0
VERTEX
  5
616
  8
84
 10
181.5897
 20
47.7901
 30
0.0
  0
VERTEX
  5
617
  8
84
 10
127.2795
 20
69.5681
 30
0.0
  0
VERTEX
  5
618
  8
84
 10
74.1985
 20
88.1634
 30
0.0
  0
VERTEX
  5
619
  8
84
 10
28.1483
 20
105.5777
 30
0.0
  0
VERTEX
  5
61A
  8
84
 10
0.0
 20
115.4126
 30
0.0
  0
VERTEX
  5
61B
  8
84
 10
21.7399
 20
131.9607
 30
0.0
  0
VERTEX
  5
61C
  8
84
 10
32.7737
 20
139.3216
 30
0.0
  0
VERTEX
  5
61D
  8
84
 10
43.5864
 20
146.9695
 30
0.0
  0
VERTEX
  5
61E
  8
84
 10
49.7841
 20
152.141
 30
0.0
  0
VERTEX
  5
61F
  8
84
 10
55.7327
 20
157.5943
 30
0.0
  0
VERTEX
  5
620
  8
84
 10
61.4579
 20
163.2789
 30
0.0
  0
VERTEX
  5
621
  8
84
 10
66.8935
 20
169.2352
 30
0.0
  0
VERTEX
  5
622
  8
84
 10
71.0896
 20
174.4752
 30
0.0
  0
VERTEX
  5
623
  8
84
 10
75.0342
 20
179.9108
 30
0.0
  0
VERTEX
  5
624
  8
84
 10
82.263
 20
191.2417
 30
0.0
  0
VERTEX
  5
625
  8
84
 10
88.8848
 20
203.1747
 30
0.0
  0
VERTEX
  5
626
  8
84
 10
91.8566
 20
209.3164
 30
0.0
  0
VERTEX
  5
627
  8
84
 10
94.5414
 20
215.5851
 30
0.0
  0
VERTEX
  5
628
  8
84
 10
98.707
 20
228.2368
 30
0.0
  0
VERTEX
  5
629
  8
84
 10
102.0877
 20
241.1451
 30
0.0
  0
VERTEX
  5
62A
  8
84
 10
103.6956
 20
249.5855
 30
0.0
  0
VERTEX
  5
62B
  8
84
 10
104.5566
 20
253.7842
 30
0.0
  0
VERTEX
  5
62C
  8
84
 10
105.7301
 20
257.8913
 30
0.0
  0
VERTEX
  5
62D
  8
84
 10
107.5843
 20
261.2873
 30
0.0
  0
VERTEX
  5
62E
  8
84
 10
108.3209
 20
266.3191
 30
0.0
  0
SEQEND
  5
674
  8
84
  0
POINT
  5
105
  8
2
 10
108.3209
 20
266.3191
 30
0.0
  0
POINT
  5
106
  8
2
 10
621.2282
 20
216.0245
 30
0.0
  0
POINT
  5
107
  8
3
 10
614.8909
 20
168.4046
 30
0.0
  0
POINT
  5
108
  8
3
 10
608.3199
 20
139.6899
 30
0.0
  0
POINT
  5
109
  8
3
 10
601.4365
 20
118.4047
 30
0.0
  0
POINT
  5
10A
  8
3
 10
596.3031
 20
102.0547
 30
0.0
  0
POINT
  5
10B
  8
2
 10
589.2902
 20
87.4142
 30
0.0
  0
POINT
  5
10C
  8
3
 10
454.909
 20
109.7001
 30
0.0
  0
POINT
  5
10D
  8
3
 10
438.8105
 20
109.4512
 30
0.0
  0
POINT
  5
10E
  8
3
 10
423.0396
 20
109.9389
 30
0.0
  0
POINT
  5
10F
  8
3
 10
409.3592
 20
110.9904
 30
0.0
  0
POINT
  5
110
  8
3
 10
399.4278
 20
111.1733
 30
0.0
  0
POINT
  5
111
  8
3
 10
391.1677
 20
110.1776
 30
0.0
  0
POINT
  5
112
  8
3
 10
383.8703
 20
108.5774
 30
0.0
  0
POINT
  5
113
  8
3
 10
378.8969
 20
107.2668
 30
0.0
  0
POINT
  5
114
  8
3
 10
369.4431
 20
101.7931
 30
0.0
  0
POINT
  5
115
  8
3
 10
366.0445
 20
98.2904
 30
0.0
  0
POINT
  5
116
  8
3
 10
360.3346
 20
86.5887
 30
0.0
  0
POINT
  5
117
  8
3
 10
354.391
 20
64.4475
 30
0.0
  0
POINT
  5
118
  8
3
 10
340.2788
 20
26.2459
 30
0.0
  0
POINT
  5
119
  8
3
 10
335.4934
 20
10.884
 30
0.0
  0
POINT
  5
11A
  8
3
 10
330.0121
 20
4.2622
 30
0.0
  0
POINT
  5
11B
  8
3
 10
324.9423
 20
1.9406
 30
0.0
  0
POINT
  5
11C
  8
3
 10
320.9799
 20
0.5334
 30
0.0
  0
POINT
  5
11D
  8
3
 10
314.5867
 20
0.3785
 30
0.0
  0
POINT
  5
11E
  8
3
 10
297.2004
 20
0.0
 30
0.0
  0
POINT
  5
11F
  8
3
 10
287.2918
 20
0.4369
 30
0.0
  0
POINT
  5
120
  8
3
 10
279.9944
 20
4.1961
 30
0.0
  0
POINT
  5
121
  8
3
 10
216.7306
 20
33.716
 30
0.0
  0
POINT
  5
122
  8
3
 10
200.5737
 20
40.8737
 30
0.0
  0
POINT
  5
123
  8
3
 10
181.5897
 20
47.7901
 30
0.0
  0
POINT
  5
124
  8
3
 10
127.2795
 20
69.5681
 30
0.0
  0
POINT
  5
125
  8
3
 10
74.1985
 20
88.1634
 30
0.0
  0
POINT
  5
126
  8
3
 10
28.1483
 20
105.5777
 30
0.0
  0
POINT
  5
127
  8
2
 10
0.0
 20
115.4126
 30
0.0
  0
POINT
  5
128
  8
3
 10
21.7399
 20
131.9607
 30
0.0
  0
POINT
  5
129
  8
3
 10
43.5864
 20
146.9695
 30
0.0
  0
POINT
  5
12A
  8
3
 10
66.8935
 20
169.2352
 30
0.0
  0
POINT
  5
12B
  8
3
 10
82.263
 20
191.2417
 30
0.0
  0
POINT
  5
12C
  8
3
 10
94.5414
 20
215.5851
 30
0.0
  0
POINT
  5
12D
  8
3
 10
102.0877
 20
241.1451
 30
0.0
  0
POINT
  5
12E
  8
3
 10
105.7301
 20
257.8913
 30
0.0
  0
POINT
  5
12F
  8
3
 10
107.5843
 20
261.2873
 30
0.0
  0
POINT
  5
130
  8
2
 10
108.3209
 20
266.3191
 30
0.0
  0
LINE
  5
131
  8
7
 10
245.4047
 20
197.5943
 30
0.0
 11
354.8685
 21
197.5943
 31
0.0
  0
LINE
  5
132
  8
5
 10
245.4047
 20
197.5943
 30
0.0
 11
354.8685
 21
197.5943
 31
0.0
  0
POINT
  5
133
  8
2
 10
245.4047
 20
197.5943
 30
0.0
  0
POINT
  5
134
  8
2
 10
354.8685
 20
197.5943
 30
0.0
  0
ENDBLK
  5
135
  8
0
  0
BLOCK
  8
0
  2
60-3_1
 70
     0
 10
0.0
 20
0.0
 30
0.0
  3
60-3_1
  1

  0
TEXT
  5
138
  8
1
 10
239.2579
 20
185.5623
 30
0.0
 40
0.25
  1
Piece Name: 60-3
  0
TEXT
  5
139
  8
1
 10
239.2579
 20
189.1183
 30
0.0
 40
0.25
  1
Quantity: 0,1
  0
TEXT
  5
13A
  8
1
 10
239.2579
 20
192.6743
 30
0.0
 40
0.25
  1
ANNOTATION
  0
TEXT
  5
13B
  8
1
 10
239.2579
 20
196.2303
 30
0.0
 40
0.25
  1
CATEGORY: 112289
  0
TEXT
  5
13C
  8
1
 10
239.2579
 20
199.7863
 30
0.0
 40
0.25
  1
SIZE: 1
  0
POLYLINE
  5
13D
  8
1
 66
     1
 10
0.0
 20
0.0
 30
0.0
 70
     1
  0
VERTEX
  5
62F
  8
1
 10
478.5157
 20
348.4703
 30
0.0
  0
VERTEX
  5
630
  8
1
 10
475.7395
 20
276.3851
 30
0.0
  0
VERTEX
  5
631
  8
1
 10
473.2147
 20
198.1912
 30
0.0
  0
VERTEX
  5
632
  8
1
 10
466.9892
 20
146.8451
 30
0.0
  0
VERTEX
  5
633
  8
1
 10
458.8028
 20
109.309
 30
0.0
  0
VERTEX
  5
634
  8
1
 10
443.4002
 20
63.434
 30
0.0
  0
VERTEX
  5
635
  8
1
 10
428.4066
 20
39.4056
 30
0.0
  0
VERTEX
  5
636
  8
1
 10
411.5131
 20
18.5065
 30
0.0
  0
VERTEX
  5
637
  8
1
 10
402.204
 20
8.7275
 30
0.0
  0
VERTEX
  5
638
  8
1
 10
389.1509
 20
0.6325
 30
0.0
  0
VERTEX
  5
639
  8
1
 10
355.821
 20
0.0
 30
0.0
  0
VERTEX
  5
63A
  8
1
 10
247.9345
 20
3.7719
 30
0.0
  0
VERTEX
  5
63B
  8
1
 10
119.8754
 20
11.4453
 30
0.0
  0
VERTEX
  5
63C
  8
1
 10
61.2522
 20
13.9091
 30
0.0
  0
VERTEX
  5
63D
  8
1
 10
38.6233
 20
98.4987
 30
0.0
  0
VERTEX
  5
63E
  8
1
 10
25.6718
 20
159.2962
 30
0.0
  0
VERTEX
  5
63F
  8
1
 10
11.9203
 20
231.3102
 30
0.0
  0
VERTEX
  5
640
  8
1
 10
3.8304
 20
286.8168
 30
0.0
  0
VERTEX
  5
641
  8
1
 10
0.2007
 20
339.593
 30
0.0
  0
VERTEX
  5
642
  8
1
 10
0.0
 20
371.1271
 30
0.0
  0
VERTEX
  5
643
  8
1
 10
478.5157
 20
348.4703
 30
0.0
  0
SEQEND
  5
675
  8
1
  0
POLYLINE
  5
154
  8
84
 66
     1
 10
0.0
 20
0.0
 30
0.0
 70
     1
  0
VERTEX
  5
644
  8
84
 10
478.5157
 20
348.4703
 30
0.0
  0
VERTEX
  5
645
  8
84
 10
475.7395
 20
276.3851
 30
0.0
  0
VERTEX
  5
646
  8
84
 10
474.8708
 20
237.2665
 30
0.0
  0
VERTEX
  5
647
  8
84
 10
474.2257
 20
217.7187
 30
0.0
  0
VERTEX
  5
648
  8
84
 10
473.2147
 20
198.1912
 30
0.0
  0
VERTEX
  5
649
  8
84
 10
472.1048
 20
185.3032
 30
0.0
  0
VERTEX
  5
64A
  8
84
 10
470.6748
 20
172.4483
 30
0.0
  0
VERTEX
  5
64B
  8
84
 10
466.9892
 20
146.8451
 30
0.0
  0
VERTEX
  5
64C
  8
84
 10
463.3621
 20
127.9729
 30
0.0
  0
VERTEX
  5
64D
  8
84
 10
458.8028
 20
109.309
 30
0.0
  0
VERTEX
  5
64E
  8
84
 10
455.6075
 20
97.6097
 30
0.0
  0
VERTEX
  5
64F
  8
84
 10
452.054
 20
86.0172
 30
0.0
  0
VERTEX
  5
650
  8
84
 10
448.0459
 20
74.5973
 30
0.0
  0
VERTEX
  5
651
  8
84
 10
443.4002
 20
63.434
 30
0.0
  0
VERTEX
  5
652
  8
84
 10
440.0982
 20
57.1729
 30
0.0
  0
VERTEX
  5
653
  8
84
 10
436.4355
 20
51.1074
 30
0.0
  0
VERTEX
  5
654
  8
84
 10
428.4066
 20
39.4056
 30
0.0
  0
VERTEX
  5
655
  8
84
 10
420.2227
 20
28.7478
 30
0.0
  0
VERTEX
  5
656
  8
84
 10
411.5131
 20
18.5065
 30
0.0
  0
VERTEX
  5
657
  8
84
 10
407.0503
 20
13.4163
 30
0.0
  0
VERTEX
  5
658
  8
84
 10
402.204
 20
8.7275
 30
0.0
  0
VERTEX
  5
659
  8
84
 10
396.0216
 20
4.0259
 30
0.0
  0
VERTEX
  5
65A
  8
84
 10
392.6917
 20
2.0905
 30
0.0
  0
VERTEX
  5
65B
  8
84
 10
389.1509
 20
0.6325
 30
0.0
  0
VERTEX
  5
65C
  8
84
 10
385.0971
 20
-0.1804
 30
0.0
  0
VERTEX
  5
65D
  8
84
 10
380.9772
 20
-0.63
 30
0.0
  0
VERTEX
  5
65E
  8
84
 10
372.6536
 20
-0.8738
 30
0.0
  0
VERTEX
  5
65F
  8
84
 10
355.821
 20
0.0
 30
0.0
  0
VERTEX
  5
660
  8
84
 10
301.8638
 20
1.364
 30
0.0
  0
VERTEX
  5
661
  8
84
 10
247.9345
 20
3.7719
 30
0.0
  0
VERTEX
  5
662
  8
84
 10
119.8754
 20
11.4453
 30
0.0
  0
VERTEX
  5
663
  8
84
 10
61.2522
 20
13.9091
 30
0.0
  0
VERTEX
  5
664
  8
84
 10
49.6698
 20
56.1366
 30
0.0
  0
VERTEX
  5
665
  8
84
 10
38.6233
 20
98.4987
 30
0.0
  0
VERTEX
  5
666
  8
84
 10
31.8771
 20
128.8365
 30
0.0
  0
VERTEX
  5
667
  8
84
 10
25.6718
 20
159.2962
 30
0.0
  0
VERTEX
  5
668
  8
84
 10
18.509
 20
195.2499
 30
0.0
  0
VERTEX
  5
669
  8
84
 10
11.9203
 20
231.3102
 30
0.0
  0
VERTEX
  5
66A
  8
84
 10
7.4676
 20
259.0064
 30
0.0
  0
VERTEX
  5
66B
  8
84
 10
3.8304
 20
286.8168
 30
0.0
  0
VERTEX
  5
66C
  8
84
 10
1.5672
 20
313.1719
 30
0.0
  0
VERTEX
  5
66D
  8
84
 10
0.2007
 20
339.593
 30
0.0
  0
VERTEX
  5
66E
  8
84
 10
0.0
 20
371.1271
 30
0.0
  0
VERTEX
  5
66F
  8
84
 10
478.5157
 20
348.4703
 30
0.0
  0
SEQEND
  5
676
  8
84
  0
POINT
  5
182
  8
2
 10
478.5157
 20
348.4703
 30
0.0
  0
POINT
  5
183
  8
3
 10
475.7395
 20
276.3851
 30
0.0
  0
POINT
  5
184
  8
3
 10
473.2147
 20
198.1912
 30
0.0
  0
POINT
  5
185
  8
3
 10
466.9892
 20
146.8451
 30
0.0
  0
POINT
  5
186
  8
3
 10
458.8028
 20
109.309
 30
0.0
  0
POINT
  5
187
  8
3
 10
443.4002
 20
63.434
 30
0.0
  0
POINT
  5
188
  8
3
 10
428.4066
 20
39.4056
 30
0.0
  0
POINT
  5
189
  8
3
 10
411.5131
 20
18.5065
 30
0.0
  0
POINT
  5
18A
  8
3
 10
402.204
 20
8.7275
 30
0.0
  0
POINT
  5
18B
  8
3
 10
389.1509
 20
0.6325
 30
0.0
  0
POINT
  5
18C
  8
3
 10
355.821
 20
0.0
 30
0.0
  0
POINT
  5
18D
  8
3
 10
247.9345
 20
3.7719
 30
0.0
  0
POINT
  5
18E
  8
3
 10
119.8754
 20
11.4453
 30
0.0
  0
POINT
  5
18F
  8
2
 10
61.2522
 20
13.9091
 30
0.0
  0
POINT
  5
190
  8
3
 10
38.6233
 20
98.4987
 30
0.0
  0
POINT
  5
191
  8
3
 10
25.6718
 20
159.2962
 30
0.0
  0
POINT
  5
192
  8
3
 10
11.9203
 20
231.3102
 30
0.0
  0
POINT
  5
193
  8
3
 10
3.8304
 20
286.8168
 30
0.0
  0
POINT
  5
194
  8
3
 10
0.2007
 20
339.593
 30
0.0
  0
POINT
  5
195
  8
2
 10
0.0
 20
371.1271
 30
0.0
  0
POINT
  5
196
  8
2
 10
478.5157
 20
348.4703
 30
0.0
  0
LINE
  5
197
  8
7
 10
156.7536
 20
259.7963
 30
0.0
 11
271.6632
 21
259.7963
 31
0.0
  0
LINE
  5
198
  8
5
 10
156.7536
 20
259.7963
 30
0.0
 11
271.6632
 21
259.7963
 31
0.0
  0
POINT
  5
199
  8
2
 10
156.7536
 20
259.7963
 30
0.0
  0
POINT
  5
19A
  8
2
 10
271.6632
 20
259.7963
 30
0.0
  0
ENDBLK
  5
19B
  8
0
  0
ENDSEC
  0
SECTION
  2
ENTITIES
  0
TEXT
  5
19C
  8
1
 10
0.0
 20
0.0
 30
0.0
 40
0.25
  1
Style Name: OPARCIE_PIANKA
  0
TEXT
  5
19D
  8
1
 10
0.0
 20
3.556
 30
0.0
 40
0.25
  1
Creation Date: 12-01-2018
  0
TEXT
  5
19E
  8
1
 10
0.0
 20
7.1121
 30
0.0
 40
0.25
  1
Creation Time: 13:10
  0
TEXT
  5
19F
  8
1
 10
0.0
 20
10.668
 30
0.0
 40
0.25
  1
Author: GERBER TECHNOLOGY ; ACCUMARK ; 8.3.1
  0
TEXT
  5
1A0
  8
1
 10
0.0
 20
14.2241
 30
0.0
 40
0.25
  1
Sample Size: 1
  0
TEXT
  5
1A1
  8
1
 10
0.0
 20
17.78
 30
0.0
 40
0.25
  1
Grade Rule Table: 1
  0
TEXT
  5
1A2
  8
1
 10
0.0
 20
21.3361
 30
0.0
 40
0.25
  1
Units: METRIC
  0
TEXT
  5
1A3
  8
1
 10
0.0
 20
24.8921
 30
0.0
 40
0.25
  1
Curve Tolerance: .152
  0
TEXT
  5
1A4
  8
1
 10
0.0
 20
28.448
 30
0.0
 40
0.25
  1
ASTM/D13Proposal 1 Version: D 6673-04
  0
POLYLINE
  5
201
  8
0
  6
BYBLOCK
 62
     1
 66
     1
 10
0.0
 20
0.0
 30
0.0
 70
     1
  0
VERTEX
  5
576
  8
0
  6
BYBLOCK
 62
     1
 10
1037.529986817012
 20
255.6640036600935
 30
0.0
 42
0.0904619551852778
  0
VERTEX
  5
577
  8
0
  6
BYBLOCK
 62
     1
 10
1179.678813881476
 20
245.8758412283733
 30
0.0
  0
VERTEX
  5
578
  8
0
  6
BYBLOCK
 62
     1
 10
1143.029992815818
 20
759.938394909292
 30
0.0
 42
-0.2619375853068171
  0
VERTEX
  5
579
  8
0
  6
BYBLOCK
 62
     1
 10
966.0611616303495
 20
841.2739909767703
 30
0.0
  0
VERTEX
  5
57A
  8
0
  6
BYBLOCK
 62
     1
 10
899.3502525244825
 20
531.1579140970028
 30
0.0
 42
0.4897006327800472
  0
VERTEX
  5
57B
  8
0
  6
BYBLOCK
 62
     1
 10
929.8668626300092
 20
491.3568368342241
 30
0.0
  0
VERTEX
  5
57C
  8
0
  6
BYBLOCK
 62
     1
 10
1004.59916680921
 20
479.7763443381867
 30
0.0
 42
-0.2613027131078028
  0
VERTEX
  5
57D
  8
0
  6
BYBLOCK
 62
     1
 10
1029.525883401238
 20
443.5626545438409
 30
0.0
 42
-0.0380625769570361
  0
SEQEND
  5
670
  8
0
  6
BYBLOCK
 62
     1
  0
ENDSEC
  0
EOF
