  0
SECTION
  2
HEADER
  9
$ACADVER
  1
AC1009
  9
$DWGCODEPAGE
  3
ansi_1250
  9
$INSBASE
 10
0.0
 20
0.0
 30
0.0
  9
$EXTMIN
 10
1334.1754
 20
43.10749999999997
 30
0.0
  9
$EXTMAX
 10
1772.103131780759
 20
705.0917
 30
0.0
  9
$LIMMIN
 10
0.0
 20
0.0
  9
$LIMMAX
 10
12.0
 20
9.0
  9
$ORTHOMODE
 70
     1
  9
$REGENMODE
 70
     1
  9
$FILLMODE
 70
     1
  9
$QTEXTMODE
 70
     0
  9
$MIRRTEXT
 70
     1
  9
$DRAGMODE
 70
     2
  9
$LTSCALE
 40
1.0
  9
$OSMODE
 70
   551
  9
$ATTMODE
 70
     1
  9
$TEXTSIZE
 40
0.2
  9
$TRACEWID
 40
0.05
  9
$TEXTSTYLE
  7
STANDARD
  9
$CLAYER
  8
0
  9
$CELTYPE
  6
BYBLOCK
  9
$CECOLOR
 62
     1
  9
$DIMSCALE
 40
1.0
  9
$DIMASZ
 40
0.18
  9
$DIMEXO
 40
0.0625
  9
$DIMDLI
 40
0.38
  9
$DIMRND
 40
0.0
  9
$DIMDLE
 40
0.0
  9
$DIMEXE
 40
0.18
  9
$DIMTP
 40
0.0
  9
$DIMTM
 40
0.0
  9
$DIMTXT
 40
0.18
  9
$DIMCEN
 40
0.09
  9
$DIMTSZ
 40
0.0
  9
$DIMTOL
 70
     0
  9
$DIMLIM
 70
     0
  9
$DIMTIH
 70
     1
  9
$DIMTOH
 70
     1
  9
$DIMSE1
 70
     0
  9
$DIMSE2
 70
     0
  9
$DIMTAD
 70
     0
  9
$DIMZIN
 70
     0
  9
$DIMBLK
  1

  9
$DIMASO
 70
     1
  9
$DIMSHO
 70
     1
  9
$DIMPOST
  1

  9
$DIMAPOST
  1

  9
$DIMALT
 70
     0
  9
$DIMALTD
 70
     2
  9
$DIMALTF
 40
25.4
  9
$DIMLFAC
 40
1.0
  9
$DIMTOFL
 70
     0
  9
$DIMTVP
 40
0.0
  9
$DIMTIX
 70
     0
  9
$DIMSOXD
 70
     0
  9
$DIMSAH
 70
     0
  9
$DIMBLK1
  1

  9
$DIMBLK2
  1

  9
$DIMSTYLE
  2
STANDARD
  9
$DIMCLRD
 70
     0
  9
$DIMCLRE
 70
     0
  9
$DIMCLRT
 70
     0
  9
$DIMTFAC
 40
1.0
  9
$DIMGAP
 40
0.09
  9
$LUNITS
 70
     2
  9
$LUPREC
 70
     4
  9
$SKETCHINC
 40
0.1
  9
$FILLETRAD
 40
0.5
  9
$AUNITS
 70
     0
  9
$AUPREC
 70
     0
  9
$MENU
  1
.
  9
$ELEVATION
 40
0.0
  9
$PELEVATION
 40
0.0
  9
$THICKNESS
 40
0.0
  9
$LIMCHECK
 70
     0
  9
$CHAMFERA
 40
0.0
  9
$CHAMFERB
 40
0.0
  9
$SKPOLY
 70
     0
  9
$TDCREATE
 40
2458864.35153566
  9
$TDUPDATE
 40
2458876.499774641
  9
$TDINDWG
 40
0.0042370486
  9
$TDUSRTIMER
 40
0.0013265046
  9
$USRTIMER
 70
     1
  9
$ANGBASE
 50
0.0
  9
$ANGDIR
 70
     0
  9
$PDMODE
 70
     0
  9
$PDSIZE
 40
0.0
  9
$PLINEWID
 40
0.0
  9
$COORDS
 70
     1
  9
$SPLFRAME
 70
     0
  9
$SPLINETYPE
 70
     6
  9
$SPLINESEGS
 70
     8
  9
$ATTDIA
 70
     0
  9
$ATTREQ
 70
     1
  9
$HANDLING
 70
     1
  9
$HANDSEED
  5
36A
  9
$SURFTAB1
 70
     6
  9
$SURFTAB2
 70
     6
  9
$SURFTYPE
 70
     6
  9
$SURFU
 70
     6
  9
$SURFV
 70
     6
  9
$UCSNAME
  2

  9
$UCSORG
 10
0.0
 20
0.0
 30
0.0
  9
$UCSXDIR
 10
1.0
 20
0.0
 30
0.0
  9
$UCSYDIR
 10
0.0
 20
1.0
 30
0.0
  9
$PUCSNAME
  2

  9
$PUCSORG
 10
0.0
 20
0.0
 30
0.0
  9
$PUCSXDIR
 10
1.0
 20
0.0
 30
0.0
  9
$PUCSYDIR
 10
0.0
 20
1.0
 30
0.0
  9
$USERI1
 70
     0
  9
$USERI2
 70
     0
  9
$USERI3
 70
     0
  9
$USERI4
 70
     0
  9
$USERI5
 70
     0
  9
$USERR1
 40
0.0
  9
$USERR2
 40
0.0
  9
$USERR3
 40
0.0
  9
$USERR4
 40
0.0
  9
$USERR5
 40
0.0
  9
$WORLDVIEW
 70
     1
  9
$SHADEDGE
 70
     3
  9
$SHADEDIF
 70
    70
  9
$TILEMODE
 70
     1
  9
$MAXACTVP
 70
    64
  9
$PLIMCHECK
 70
     0
  9
$PEXTMIN
 10
1.000000000000000E+20
 20
1.000000000000000E+20
 30
1.000000000000000E+20
  9
$PEXTMAX
 10
-1.000000000000000E+20
 20
-1.000000000000000E+20
 30
-1.000000000000000E+20
  9
$PLIMMIN
 10
0.0
 20
0.0
  9
$PLIMMAX
 10
0.0
 20
0.0
  9
$UNITMODE
 70
     0
  9
$VISRETAIN
 70
     1
  9
$PLINEGEN
 70
     0
  9
$PSLTSCALE
 70
     1
  0
ENDSEC
  0
SECTION
  2
TABLES
  0
TABLE
  2
VPORT
 70
     1
  0
VPORT
  2
*ACTIVE
 70
     0
 10
0.0
 20
0.0
 11
1.0
 21
1.0
 12
1672.433760919133
 22
-10.78432233108022
 13
0.0
 23
0.0
 14
0.5
 24
0.5
 15
0.5
 25
0.5
 16
0.0
 26
0.0
 36
1.0
 17
0.0
 27
0.0
 37
0.0
 40
1531.56816418269
 41
1.181818181818182
 42
50.0
 43
0.0
 44
0.0
 50
0.0
 51
0.0
 71
    16
 72
   100
 73
     1
 74
     3
 75
     0
 76
     0
 77
     0
 78
     0
  0
ENDTAB
  0
TABLE
  2
LTYPE
 70
     1
  0
LTYPE
  2
CONTINUOUS
 70
     0
  3
Solid line
 72
    65
 73
     0
 40
0.0
  0
ENDTAB
  0
TABLE
  2
LAYER
 70
     3
  0
LAYER
  2
0
 70
     0
 62
     7
  6
CONTINUOUS
  0
LAYER
  2
1
 70
     0
 62
     7
  6
CONTINUOUS
  0
LAYER
  2
7
 70
     0
 62
     7
  6
CONTINUOUS
  0
ENDTAB
  0
TABLE
  2
STYLE
 70
     1
  0
STYLE
  2
STANDARD
 70
     0
 40
0.0
 41
1.0
 50
0.0
 71
     0
 42
0.2
  3
txt
  4

  0
ENDTAB
  0
TABLE
  2
VIEW
 70
     0
  0
ENDTAB
  0
TABLE
  2
UCS
 70
     0
  0
ENDTAB
  0
TABLE
  2
APPID
 70
     1
  0
APPID
  2
ACAD
 70
     0
  0
ENDTAB
  0
TABLE
  2
DIMSTYLE
 70
     1
  0
DIMSTYLE
  2
STANDARD
 70
     0
  3

  4

  5

  6

  7

 40
1.0
 41
0.18
 42
0.0625
 43
0.38
 44
0.18
 45
0.0
 46
0.0
 47
0.0
 48
0.0
140
0.18
141
0.09
142
0.0
143
25.4
144
1.0
145
0.0
146
1.0
147
0.09
 71
     0
 72
     0
 73
     1
 74
     1
 75
     0
 76
     0
 77
     0
 78
     0
170
     0
171
     2
172
     0
173
     0
174
     0
175
     0
176
     0
177
     0
178
     0
  0
ENDTAB
  0
ENDSEC
  0
SECTION
  2
BLOCKS
  0
BLOCK
  8
0
  2
$MODEL_SPACE
 70
     0
 10
0.0
 20
0.0
 30
0.0
  3
$MODEL_SPACE
  1

  0
ENDBLK
  5
D7
  8
0
  0
BLOCK
 67
     1
  8
0
  2
$PAPER_SPACE
 70
     0
 10
0.0
 20
0.0
 30
0.0
  3
$PAPER_SPACE
  1

  0
ENDBLK
  5
D9
 67
     1
  8
0
  0
BLOCK
  8
0
  2
3
 70
     0
 10
1915.4779
 20
291.0662
 30
0.0
  3
3
  1

  0
POLYLINE
  5
24
  8
1
 66
     1
 10
0.0
 20
0.0
 30
0.0
 70
     1
  0
VERTEX
  5
2EB
  8
1
 10
1792.9954
 20
445.956
 30
0.0
  0
VERTEX
  5
2EC
  8
1
 10
1821.1919
 20
446.6762
 30
0.0
  0
VERTEX
  5
2ED
  8
1
 10
1849.3914
 20
447.1119
 30
0.0
  0
VERTEX
  5
2EE
  8
1
 10
1893.0168
 20
446.7406
 30
0.0
  0
VERTEX
  5
2EF
  8
1
 10
1936.6368
 20
445.819
 30
0.0
  0
VERTEX
  5
2F0
  8
1
 10
2023.8736
 20
443.6459
 30
0.0
  0
VERTEX
  5
2F1
  8
1
 10
2023.8736
 20
132.8104
 30
0.0
  0
VERTEX
  5
2F2
  8
1
 10
1817.7681
 20
138.3958
 30
0.0
  0
VERTEX
  5
2F3
  8
1
 10
1819.0404
 20
185.5962
 30
0.0
  0
VERTEX
  5
2F4
  8
1
 10
1819.5119
 20
209.1963
 30
0.0
  0
VERTEX
  5
2F5
  8
1
 10
1819.4344
 20
232.7958
 30
0.0
  0
VERTEX
  5
2F6
  8
1
 10
1818.5335
 20
258.8127
 30
0.0
  0
VERTEX
  5
2F7
  8
1
 10
1817.0176
 20
284.8126
 30
0.0
  0
VERTEX
  5
2F8
  8
1
 10
1813.1537
 20
336.7095
 30
0.0
  0
VERTEX
  5
2F9
  8
1
 10
1811.323
 20
350.5331
 30
0.0
  0
VERTEX
  5
2FA
  8
1
 10
1810.1154
 20
357.4806
 30
0.0
  0
VERTEX
  5
2FB
  8
1
 10
1808.6502
 20
364.3876
 30
0.0
  0
VERTEX
  5
2FC
  8
1
 10
1806.8802
 20
371.2061
 30
0.0
  0
VERTEX
  5
2FD
  8
1
 10
1804.7583
 20
377.888
 30
0.0
  0
VERTEX
  5
2FE
  8
1
 10
1802.2375
 20
384.385
 30
0.0
  0
VERTEX
  5
2FF
  8
1
 10
1799.2704
 20
390.6491
 30
0.0
  0
VERTEX
  5
300
  8
1
 10
1797.8072
 20
392.9348
 30
0.0
  0
VERTEX
  5
301
  8
1
 10
1796.2218
 20
394.9711
 30
0.0
  0
VERTEX
  5
302
  8
1
 10
1794.3801
 20
396.9323
 30
0.0
  0
VERTEX
  5
303
  8
1
 10
1792.1476
 20
398.9928
 30
0.0
  0
VERTEX
  5
304
  8
1
 10
1792.9954
 20
445.956
 30
0.0
  0
SEQEND
  5
367
  8
1
  0
LINE
  5
40
  8
7
 10
1865.4779
 20
291.0662
 30
0.0
 11
1965.4779
 21
291.0662
 31
0.0
  0
ENDBLK
  5
41
  8
0
  0
BLOCK
  8
0
  2
1
 70
     0
 10
1027.9963
 20
360.5515
 30
0.0
  3
1
  1

  0
POLYLINE
  5
44
  8
1
 66
     1
 10
0.0
 20
0.0
 30
0.0
 70
     1
  0
VERTEX
  5
305
  8
1
 10
891.2721
 20
668.8309
 30
0.0
  0
VERTEX
  5
306
  8
1
 10
1168.5809
 20
667.2868
 30
0.0
  0
VERTEX
  5
307
  8
1
 10
1168.5809
 20
52.2721
 30
0.0
  0
VERTEX
  5
308
  8
1
 10
905.6213
 20
54.9892
 30
0.0
  0
VERTEX
  5
309
  8
1
 10
900.6564
 20
59.067
 30
0.0
  0
VERTEX
  5
30A
  8
1
 10
896.1136
 20
63.6143
 30
0.0
  0
VERTEX
  5
30B
  8
1
 10
891.9606
 20
68.5316
 30
0.0
  0
VERTEX
  5
30C
  8
1
 10
888.1653
 20
73.7195
 30
0.0
  0
VERTEX
  5
30D
  8
1
 10
889.4118
 20
106.5441
 30
0.0
  0
VERTEX
  5
30E
  8
1
 10
892.6117
 20
109.1456
 30
0.0
  0
VERTEX
  5
30F
  8
1
 10
895.4898
 20
112.0428
 30
0.0
  0
VERTEX
  5
310
  8
1
 10
898.0694
 20
115.1964
 30
0.0
  0
VERTEX
  5
311
  8
1
 10
900.3743
 20
118.5673
 30
0.0
  0
VERTEX
  5
312
  8
1
 10
902.4279
 20
122.1165
 30
0.0
  0
VERTEX
  5
313
  8
1
 10
904.2541
 20
125.8046
 30
0.0
  0
VERTEX
  5
314
  8
1
 10
907.318
 20
133.4415
 30
0.0
  0
VERTEX
  5
315
  8
1
 10
909.4745
 20
142.6383
 30
0.0
  0
VERTEX
  5
316
  8
1
 10
911.3634
 20
151.9137
 30
0.0
  0
VERTEX
  5
317
  8
1
 10
913.0101
 20
161.2587
 30
0.0
  0
VERTEX
  5
318
  8
1
 10
914.44
 20
170.6639
 30
0.0
  0
VERTEX
  5
319
  8
1
 10
916.7507
 20
189.6187
 30
0.0
  0
VERTEX
  5
31A
  8
1
 10
918.4987
 20
208.7046
 30
0.0
  0
VERTEX
  5
31B
  8
1
 10
921.1192
 20
246.9757
 30
0.0
  0
VERTEX
  5
31C
  8
1
 10
922.3979
 20
266.0141
 30
0.0
  0
VERTEX
  5
31D
  8
1
 10
923.9265
 20
284.8897
 30
0.0
  0
VERTEX
  5
31E
  8
1
 10
925.0806
 20
305.7187
 30
0.0
  0
VERTEX
  5
31F
  8
1
 10
925.9771
 20
326.562
 30
0.0
  0
VERTEX
  5
320
  8
1
 10
926.6203
 20
347.4147
 30
0.0
  0
VERTEX
  5
321
  8
1
 10
927.0147
 20
368.2721
 30
0.0
  0
VERTEX
  5
322
  8
1
 10
927.1804
 20
403.4109
 30
0.0
  0
VERTEX
  5
323
  8
1
 10
926.8982
 20
420.9767
 30
0.0
  0
VERTEX
  5
324
  8
1
 10
926.2426
 20
438.5294
 30
0.0
  0
VERTEX
  5
325
  8
1
 10
924.7434
 20
464.6542
 30
0.0
  0
VERTEX
  5
326
  8
1
 10
922.7753
 20
490.7539
 30
0.0
  0
VERTEX
  5
327
  8
1
 10
920.2248
 20
516.7983
 30
0.0
  0
VERTEX
  5
328
  8
1
 10
916.9779
 20
542.7574
 30
0.0
  0
VERTEX
  5
329
  8
1
 10
915.4247
 20
552.8613
 30
0.0
  0
VERTEX
  5
32A
  8
1
 10
913.6118
 20
562.9252
 30
0.0
  0
VERTEX
  5
32B
  8
1
 10
911.5519
 20
572.9419
 30
0.0
  0
VERTEX
  5
32C
  8
1
 10
909.2574
 20
582.9044
 30
0.0
  0
VERTEX
  5
32D
  8
1
 10
907.1174
 20
590.976
 30
0.0
  0
VERTEX
  5
32E
  8
1
 10
904.4792
 20
598.9594
 30
0.0
  0
VERTEX
  5
32F
  8
1
 10
902.8891
 20
602.8811
 30
0.0
  0
VERTEX
  5
330
  8
1
 10
901.0732
 20
606.7365
 30
0.0
  0
VERTEX
  5
331
  8
1
 10
898.998
 20
610.5108
 30
0.0
  0
VERTEX
  5
332
  8
1
 10
896.6297
 20
614.1893
 30
0.0
  0
VERTEX
  5
333
  8
1
 10
895.1901
 20
615.979
 30
0.0
  0
VERTEX
  5
334
  8
1
 10
893.5387
 20
617.5358
 30
0.0
  0
VERTEX
  5
335
  8
1
 10
891.6345
 20
618.9432
 30
0.0
  0
VERTEX
  5
336
  8
1
 10
889.436
 20
620.2851
 30
0.0
  0
VERTEX
  5
337
  8
1
 10
891.2721
 20
668.8309
 30
0.0
  0
SEQEND
  5
368
  8
1
  0
LINE
  5
79
  8
7
 10
977.9963
 20
360.5515
 30
0.0
 11
1077.9963
 21
360.5515
 31
0.0
  0
ENDBLK
  5
7A
  8
0
  0
BLOCK
  8
0
  2
2
 70
     0
 10
1580.0184
 20
389.5037
 30
0.0
  3
2
  1

  0
POLYLINE
  5
7D
  8
1
 66
     1
 10
0.0
 20
0.0
 30
0.0
 70
     1
  0
VERTEX
  5
338
  8
1
 10
1394.1754
 20
702.9023
 30
0.0
  0
VERTEX
  5
339
  8
1
 10
1690.5795
 20
705.0917
 30
0.0
  0
VERTEX
  5
33A
  8
1
 10
1699.8541
 20
702.252
 30
0.0
  0
VERTEX
  5
33B
  8
1
 10
1708.4025
 20
699.0651
 30
0.0
  0
VERTEX
  5
33C
  8
1
 10
1716.4807
 20
695.3823
 30
0.0
  0
VERTEX
  5
33D
  8
1
 10
1724.3442
 20
691.0553
 30
0.0
  0
VERTEX
  5
33E
  8
1
 10
1728.3097
 20
688.4091
 30
0.0
  0
VERTEX
  5
33F
  8
1
 10
1731.9976
 20
685.4785
 30
0.0
  0
VERTEX
  5
340
  8
1
 10
1735.4232
 20
682.2877
 30
0.0
  0
VERTEX
  5
341
  8
1
 10
1738.6018
 20
678.8606
 30
0.0
  0
VERTEX
  5
342
  8
1
 10
1741.5488
 20
675.2215
 30
0.0
  0
VERTEX
  5
343
  8
1
 10
1744.2793
 20
671.3945
 30
0.0
  0
VERTEX
  5
344
  8
1
 10
1746.8088
 20
667.4037
 30
0.0
  0
VERTEX
  5
345
  8
1
 10
1749.1524
 20
663.2732
 30
0.0
  0
VERTEX
  5
346
  8
1
 10
1753.3434
 20
654.6897
 30
0.0
  0
VERTEX
  5
347
  8
1
 10
1756.9747
 20
645.8371
 30
0.0
  0
VERTEX
  5
348
  8
1
 10
1760.1686
 20
636.9084
 30
0.0
  0
VERTEX
  5
349
  8
1
 10
1763.0474
 20
628.0966
 30
0.0
  0
VERTEX
  5
34A
  8
1
 10
1765.343
 20
619.7616
 30
0.0
  0
VERTEX
  5
34B
  8
1
 10
1767.2903
 20
611.3232
 30
0.0
  0
VERTEX
  5
34C
  8
1
 10
1768.9583
 20
602.8384
 30
0.0
  0
VERTEX
  5
34D
  8
1
 10
1770.4156
 20
594.3644
 30
0.0
  0
VERTEX
  5
34E
  8
1
 10
1771.6939
 20
228.9992
 30
0.0
  0
VERTEX
  5
34F
  8
1
 10
1770.7904
 20
206.1697
 30
0.0
  0
VERTEX
  5
350
  8
1
 10
1770.1799
 20
194.8422
 30
0.0
  0
VERTEX
  5
351
  8
1
 10
1769.3263
 20
183.5777
 30
0.0
  0
VERTEX
  5
352
  8
1
 10
1768.1267
 20
172.38
 30
0.0
  0
VERTEX
  5
353
  8
1
 10
1766.478
 20
161.2527
 30
0.0
  0
VERTEX
  5
354
  8
1
 10
1764.2772
 20
150.1995
 30
0.0
  0
VERTEX
  5
355
  8
1
 10
1761.4215
 20
139.2242
 30
0.0
  0
VERTEX
  5
356
  8
1
 10
1754.247
 20
120.5417
 30
0.0
  0
VERTEX
  5
357
  8
1
 10
1749.9742
 20
110.4432
 30
0.0
  0
VERTEX
  5
358
  8
1
 10
1747.5849
 20
105.4416
 30
0.0
  0
VERTEX
  5
359
  8
1
 10
1744.9959
 20
100.5621
 30
0.0
  0
VERTEX
  5
35A
  8
1
 10
1742.1839
 20
95.8721
 30
0.0
  0
VERTEX
  5
35B
  8
1
 10
1739.1256
 20
91.4396
 30
0.0
  0
VERTEX
  5
35C
  8
1
 10
1735.7977
 20
87.3322
 30
0.0
  0
VERTEX
  5
35D
  8
1
 10
1732.1769
 20
83.6174
 30
0.0
  0
VERTEX
  5
35E
  8
1
 10
1728.2399
 20
80.3632
 30
0.0
  0
VERTEX
  5
35F
  8
1
 10
1723.9635
 20
77.637
 30
0.0
  0
VERTEX
  5
360
  8
1
 10
1719.3242
 20
75.5067
 30
0.0
  0
VERTEX
  5
361
  8
1
 10
1714.2988
 20
74.0398
 30
0.0
  0
VERTEX
  5
362
  8
1
 10
1694.5718
 20
73.7314
 30
0.0
  0
VERTEX
  5
363
  8
1
 10
1674.8448
 20
73.423
 30
0.0
  0
VERTEX
  5
364
  8
1
 10
1394.1754
 20
73.1075
 30
0.0
  0
VERTEX
  5
365
  8
1
 10
1394.1754
 20
702.9023
 30
0.0
  0
SEQEND
  5
369
  8
1
  0
LINE
  5
AD
  8
7
 10
1530.0184
 20
389.5037
 30
0.0
 11
1630.0184
 21
389.5037
 31
0.0
  0
ENDBLK
  5
AE
  8
0
  0
ENDSEC
  0
SECTION
  2
ENTITIES
  0
POLYLINE
  5
11D
  8
0
  6
BYBLOCK
 62
     1
 66
     1
 10
0.0
 20
0.0
 30
0.0
 70
     1
  0
VERTEX
  5
2E1
  8
0
  6
BYBLOCK
 62
     1
 10
1770.220913590657
 20
595.4964748183415
 30
0.0
 42
0.1030041745859354
  0
VERTEX
  5
2E2
  8
0
  6
BYBLOCK
 62
     1
 10
1744.2793
 20
671.3944999999999
 30
0.0
 42
0.2044650819205505
  0
VERTEX
  5
2E3
  8
0
  6
BYBLOCK
 62
     1
 10
1690.5795
 20
705.0917
 30
0.0
  0
VERTEX
  5
2E4
  8
0
  6
BYBLOCK
 62
     1
 10
1334.1754
 20
702.9023
 30
0.0
  0
VERTEX
  5
2E5
  8
0
  6
BYBLOCK
 62
     1
 10
1334.1754
 20
43.10749999999994
 30
0.0
  0
VERTEX
  5
2E6
  8
0
  6
BYBLOCK
 62
     1
 10
1714.2988
 20
44.0398
 30
0.0
 42
0.1611679728310363
  0
VERTEX
  5
2E7
  8
0
  6
BYBLOCK
 62
     1
 10
1734.881413793996
 20
56.39212598374245
 30
0.0
 42
0.0782934412024709
  0
VERTEX
  5
2E8
  8
0
  6
BYBLOCK
 62
     1
 10
1748.77955
 20
77.94239999999992
 30
0.0
 42
0.1224569643906915
  0
VERTEX
  5
2E9
  8
0
  6
BYBLOCK
 62
     1
 10
1771.6939
 20
198.9992
 30
0.0
  0
VERTEX
  5
2EA
  8
0
  6
BYBLOCK
 62
     1
 10
1770.465657974751
 20
580.0567711519282
 30
0.0
 42
0.031063668067924
  0
SEQEND
  5
366
  8
0
  6
BYBLOCK
 62
     1
  0
ENDSEC
  0
EOF
