  0
SECTION
  2
HEADER
  9
$ACADVER
  1
AC1009
  9
$DWGCODEPAGE
  3
ansi_1250
  9
$INSBASE
 10
0.0
 20
0.0
 30
0.0
  9
$EXTMIN
 10
1851.017915853113
 20
170.5399695724398
 30
0.0
  9
$EXTMAX
 10
2056.329498926972
 20
784.0814381205532
 30
0.0
  9
$LIMMIN
 10
0.0
 20
0.0
  9
$LIMMAX
 10
12.0
 20
9.0
  9
$ORTHOMODE
 70
     0
  9
$REGENMODE
 70
     1
  9
$FILLMODE
 70
     1
  9
$QTEXTMODE
 70
     0
  9
$MIRRTEXT
 70
     1
  9
$DRAGMODE
 70
     2
  9
$LTSCALE
 40
1.0
  9
$OSMODE
 70
   551
  9
$ATTMODE
 70
     1
  9
$TEXTSIZE
 40
0.2
  9
$TRACEWID
 40
0.05
  9
$TEXTSTYLE
  7
STANDARD
  9
$CLAYER
  8
0
  9
$CELTYPE
  6
BYBLOCK
  9
$CECOLOR
 62
     1
  9
$DIMSCALE
 40
1.0
  9
$DIMASZ
 40
0.18
  9
$DIMEXO
 40
0.0625
  9
$DIMDLI
 40
0.38
  9
$DIMRND
 40
0.0
  9
$DIMDLE
 40
0.0
  9
$DIMEXE
 40
0.18
  9
$DIMTP
 40
0.0
  9
$DIMTM
 40
0.0
  9
$DIMTXT
 40
0.18
  9
$DIMCEN
 40
0.09
  9
$DIMTSZ
 40
0.0
  9
$DIMTOL
 70
     0
  9
$DIMLIM
 70
     0
  9
$DIMTIH
 70
     1
  9
$DIMTOH
 70
     1
  9
$DIMSE1
 70
     0
  9
$DIMSE2
 70
     0
  9
$DIMTAD
 70
     0
  9
$DIMZIN
 70
     0
  9
$DIMBLK
  1

  9
$DIMASO
 70
     1
  9
$DIMSHO
 70
     1
  9
$DIMPOST
  1

  9
$DIMAPOST
  1

  9
$DIMALT
 70
     0
  9
$DIMALTD
 70
     2
  9
$DIMALTF
 40
25.4
  9
$DIMLFAC
 40
1.0
  9
$DIMTOFL
 70
     0
  9
$DIMTVP
 40
0.0
  9
$DIMTIX
 70
     0
  9
$DIMSOXD
 70
     0
  9
$DIMSAH
 70
     0
  9
$DIMBLK1
  1

  9
$DIMBLK2
  1

  9
$DIMSTYLE
  2
STANDARD
  9
$DIMCLRD
 70
     0
  9
$DIMCLRE
 70
     0
  9
$DIMCLRT
 70
     0
  9
$DIMTFAC
 40
1.0
  9
$DIMGAP
 40
0.09
  9
$LUNITS
 70
     2
  9
$LUPREC
 70
     4
  9
$SKETCHINC
 40
0.1
  9
$FILLETRAD
 40
0.5
  9
$AUNITS
 70
     0
  9
$AUPREC
 70
     0
  9
$MENU
  1
.
  9
$ELEVATION
 40
0.0
  9
$PELEVATION
 40
0.0
  9
$THICKNESS
 40
0.0
  9
$LIMCHECK
 70
     0
  9
$CHAMFERA
 40
0.0
  9
$CHAMFERB
 40
0.0
  9
$SKPOLY
 70
     0
  9
$TDCREATE
 40
2458851.361773739
  9
$TDUPDATE
 40
2458928.455314572
  9
$TDINDWG
 40
0.0045978125
  9
$TDUSRTIMER
 40
0.0023041204
  9
$USRTIMER
 70
     1
  9
$ANGBASE
 50
0.0
  9
$ANGDIR
 70
     0
  9
$PDMODE
 70
     0
  9
$PDSIZE
 40
0.0
  9
$PLINEWID
 40
0.0
  9
$COORDS
 70
     1
  9
$SPLFRAME
 70
     0
  9
$SPLINETYPE
 70
     6
  9
$SPLINESEGS
 70
     8
  9
$ATTDIA
 70
     0
  9
$ATTREQ
 70
     1
  9
$HANDLING
 70
     1
  9
$HANDSEED
  5
7B5
  9
$SURFTAB1
 70
     6
  9
$SURFTAB2
 70
     6
  9
$SURFTYPE
 70
     6
  9
$SURFU
 70
     6
  9
$SURFV
 70
     6
  9
$UCSNAME
  2

  9
$UCSORG
 10
0.0
 20
0.0
 30
0.0
  9
$UCSXDIR
 10
1.0
 20
0.0
 30
0.0
  9
$UCSYDIR
 10
0.0
 20
1.0
 30
0.0
  9
$PUCSNAME
  2

  9
$PUCSORG
 10
0.0
 20
0.0
 30
0.0
  9
$PUCSXDIR
 10
1.0
 20
0.0
 30
0.0
  9
$PUCSYDIR
 10
0.0
 20
1.0
 30
0.0
  9
$USERI1
 70
     0
  9
$USERI2
 70
     0
  9
$USERI3
 70
     0
  9
$USERI4
 70
     0
  9
$USERI5
 70
     0
  9
$USERR1
 40
0.0
  9
$USERR2
 40
0.0
  9
$USERR3
 40
0.0
  9
$USERR4
 40
0.0
  9
$USERR5
 40
0.0
  9
$WORLDVIEW
 70
     1
  9
$SHADEDGE
 70
     3
  9
$SHADEDIF
 70
    70
  9
$TILEMODE
 70
     1
  9
$MAXACTVP
 70
    64
  9
$PLIMCHECK
 70
     0
  9
$PEXTMIN
 10
1.000000000000000E+20
 20
1.000000000000000E+20
 30
1.000000000000000E+20
  9
$PEXTMAX
 10
-1.000000000000000E+20
 20
-1.000000000000000E+20
 30
-1.000000000000000E+20
  9
$PLIMMIN
 10
0.0
 20
0.0
  9
$PLIMMAX
 10
0.0
 20
0.0
  9
$UNITMODE
 70
     0
  9
$VISRETAIN
 70
     1
  9
$PLINEGEN
 70
     0
  9
$PSLTSCALE
 70
     1
  0
ENDSEC
  0
SECTION
  2
TABLES
  0
TABLE
  2
VPORT
 70
     1
  0
VPORT
  2
*ACTIVE
 70
     0
 10
0.0
 20
0.0
 11
1.0
 21
1.0
 12
2069.621709627002
 22
480.5870157770112
 13
0.0
 23
0.0
 14
0.5
 24
0.5
 15
0.5
 25
0.5
 16
0.0
 26
0.0
 36
1.0
 17
0.0
 27
0.0
 37
0.0
 40
1100.666291799013
 41
1.36241610738255
 42
50.0
 43
0.0
 44
0.0
 50
0.0
 51
0.0
 71
    16
 72
   100
 73
     1
 74
     3
 75
     0
 76
     0
 77
     0
 78
     0
  0
ENDTAB
  0
TABLE
  2
LTYPE
 70
     1
  0
LTYPE
  2
CONTINUOUS
 70
     0
  3
Solid line
 72
    65
 73
     0
 40
0.0
  0
ENDTAB
  0
TABLE
  2
LAYER
 70
     4
  0
LAYER
  2
0
 70
     0
 62
     7
  6
CONTINUOUS
  0
LAYER
  2
1
 70
     0
 62
     7
  6
CONTINUOUS
  0
LAYER
  2
7
 70
     0
 62
     7
  6
CONTINUOUS
  0
LAYER
  2
11
 70
     0
 62
     7
  6
CONTINUOUS
  0
ENDTAB
  0
TABLE
  2
STYLE
 70
     1
  0
STYLE
  2
STANDARD
 70
     0
 40
0.0
 41
1.0
 50
0.0
 71
     0
 42
0.2
  3
txt
  4

  0
ENDTAB
  0
TABLE
  2
VIEW
 70
     0
  0
ENDTAB
  0
TABLE
  2
UCS
 70
     0
  0
ENDTAB
  0
TABLE
  2
APPID
 70
     1
  0
APPID
  2
ACAD
 70
     0
  0
ENDTAB
  0
TABLE
  2
DIMSTYLE
 70
     1
  0
DIMSTYLE
  2
STANDARD
 70
     0
  3

  4

  5

  6

  7

 40
1.0
 41
0.18
 42
0.0625
 43
0.38
 44
0.18
 45
0.0
 46
0.0
 47
0.0
 48
0.0
140
0.18
141
0.09
142
0.0
143
25.4
144
1.0
145
0.0
146
1.0
147
0.09
 71
     0
 72
     0
 73
     1
 74
     1
 75
     0
 76
     0
 77
     0
 78
     0
170
     0
171
     2
172
     0
173
     0
174
     0
175
     0
176
     0
177
     0
178
     0
  0
ENDTAB
  0
ENDSEC
  0
SECTION
  2
BLOCKS
  0
BLOCK
  8
0
  2
$MODEL_SPACE
 70
     0
 10
0.0
 20
0.0
 30
0.0
  3
$MODEL_SPACE
  1

  0
ENDBLK
  5
1E2
  8
0
  0
BLOCK
 67
     1
  8
0
  2
$PAPER_SPACE
 70
     0
 10
0.0
 20
0.0
 30
0.0
  3
$PAPER_SPACE
  1

  0
ENDBLK
  5
1E4
 67
     1
  8
0
  0
BLOCK
  8
0
  2
3
 70
     0
 10
1948.2904
 20
482.9228
 30
0.0
  3
3
  1

  0
POLYLINE
  5
24
  8
1
 66
     1
 10
0.0
 20
0.0
 30
0.0
 70
     1
  0
VERTEX
  5
62C
  8
1
 10
1914.7059
 20
793.6765
 30
0.0
  0
VERTEX
  5
62D
  8
1
 10
1926.2509
 20
791.6823
 30
0.0
  0
VERTEX
  5
62E
  8
1
 10
1932.1671
 20
790.3508
 30
0.0
  0
VERTEX
  5
62F
  8
1
 10
1938.1319
 20
788.7858
 30
0.0
  0
VERTEX
  5
630
  8
1
 10
1944.11
 20
786.9792
 30
0.0
  0
VERTEX
  5
631
  8
1
 10
1950.066
 20
784.9232
 30
0.0
  0
VERTEX
  5
632
  8
1
 10
1955.9646
 20
782.6099
 30
0.0
  0
VERTEX
  5
633
  8
1
 10
1961.7704
 20
780.0312
 30
0.0
  0
VERTEX
  5
634
  8
1
 10
1967.448
 20
777.1792
 30
0.0
  0
VERTEX
  5
635
  8
1
 10
1972.9621
 20
774.0461
 30
0.0
  0
VERTEX
  5
636
  8
1
 10
1978.2773
 20
770.6238
 30
0.0
  0
VERTEX
  5
637
  8
1
 10
1983.3582
 20
766.9044
 30
0.0
  0
VERTEX
  5
638
  8
1
 10
1988.1696
 20
762.8799
 30
0.0
  0
VERTEX
  5
639
  8
1
 10
1992.6759
 20
758.5425
 30
0.0
  0
VERTEX
  5
63A
  8
1
 10
1996.842
 20
753.8842
 30
0.0
  0
VERTEX
  5
63B
  8
1
 10
2000.6324
 20
748.8971
 30
0.0
  0
VERTEX
  5
63C
  8
1
 10
2003.1683
 20
744.7391
 30
0.0
  0
VERTEX
  5
63D
  8
1
 10
2005.2372
 20
740.3181
 30
0.0
  0
VERTEX
  5
63E
  8
1
 10
2006.909
 20
735.6868
 30
0.0
  0
VERTEX
  5
63F
  8
1
 10
2008.2539
 20
730.8976
 30
0.0
  0
VERTEX
  5
640
  8
1
 10
2010.2427
 20
721.0563
 30
0.0
  0
VERTEX
  5
641
  8
1
 10
2011.7639
 20
711.215
 30
0.0
  0
VERTEX
  5
642
  8
1
 10
1902.0553
 20
705.5613
 30
0.0
  0
VERTEX
  5
643
  8
1
 10
1902.7423
 20
687.8503
 30
0.0
  0
VERTEX
  5
644
  8
1
 10
1903.5809
 20
670.1471
 30
0.0
  0
VERTEX
  5
645
  8
1
 10
1905.7279
 20
638.4716
 30
0.0
  0
VERTEX
  5
646
  8
1
 10
1908.214
 20
606.8196
 30
0.0
  0
VERTEX
  5
647
  8
1
 10
1913.3897
 20
543.5294
 30
0.0
  0
VERTEX
  5
648
  8
1
 10
1914.5807
 20
530.5519
 30
0.0
  0
VERTEX
  5
649
  8
1
 10
1916.0802
 20
517.6066
 30
0.0
  0
VERTEX
  5
64A
  8
1
 10
1919.6444
 20
491.774
 30
0.0
  0
VERTEX
  5
64B
  8
1
 10
1923.3626
 20
465.9551
 30
0.0
  0
VERTEX
  5
64C
  8
1
 10
1925.0544
 20
453.0269
 30
0.0
  0
VERTEX
  5
64D
  8
1
 10
1926.5147
 20
440.0735
 30
0.0
  0
VERTEX
  5
64E
  8
1
 10
1929.8371
 20
403.26
 30
0.0
  0
VERTEX
  5
64F
  8
1
 10
1932.5802
 20
366.3951
 30
0.0
  0
VERTEX
  5
650
  8
1
 10
1937.7188
 20
292.6345
 30
0.0
  0
VERTEX
  5
651
  8
1
 10
2054.5248
 20
308.6747
 30
0.0
  0
VERTEX
  5
652
  8
1
 10
2055.7916
 20
292.5361
 30
0.0
  0
VERTEX
  5
653
  8
1
 10
2056.268
 20
284.4668
 30
0.0
  0
VERTEX
  5
654
  8
1
 10
2056.2206
 20
276.3971
 30
0.0
  0
VERTEX
  5
655
  8
1
 10
2055.2199
 20
266.056
 30
0.0
  0
VERTEX
  5
656
  8
1
 10
2054.4679
 20
260.848
 30
0.0
  0
VERTEX
  5
657
  8
1
 10
2053.4813
 20
255.6756
 30
0.0
  0
VERTEX
  5
658
  8
1
 10
2052.2097
 20
250.5842
 30
0.0
  0
VERTEX
  5
659
  8
1
 10
2050.6031
 20
245.6192
 30
0.0
  0
VERTEX
  5
65A
  8
1
 10
2048.6112
 20
240.826
 30
0.0
  0
VERTEX
  5
65B
  8
1
 10
2046.1838
 20
236.25
 30
0.0
  0
VERTEX
  5
65C
  8
1
 10
2039.6116
 20
227.7532
 30
0.0
  0
VERTEX
  5
65D
  8
1
 10
2032.4189
 20
219.6545
 30
0.0
  0
VERTEX
  5
65E
  8
1
 10
2024.6652
 20
212.0133
 30
0.0
  0
VERTEX
  5
65F
  8
1
 10
2016.4097
 20
204.8891
 30
0.0
  0
VERTEX
  5
660
  8
1
 10
2007.7119
 20
198.3413
 30
0.0
  0
VERTEX
  5
661
  8
1
 10
1998.6313
 20
192.4292
 30
0.0
  0
VERTEX
  5
662
  8
1
 10
1989.2271
 20
187.2123
 30
0.0
  0
VERTEX
  5
663
  8
1
 10
1984.4223
 20
184.8831
 30
0.0
  0
VERTEX
  5
664
  8
1
 10
1979.5588
 20
182.75
 30
0.0
  0
VERTEX
  5
665
  8
1
 10
1971.732
 20
179.8037
 30
0.0
  0
VERTEX
  5
666
  8
1
 10
1963.9732
 20
177.4615
 30
0.0
  0
VERTEX
  5
667
  8
1
 10
1956.2086
 20
175.6354
 30
0.0
  0
VERTEX
  5
668
  8
1
 10
1948.364
 20
174.2376
 30
0.0
  0
VERTEX
  5
669
  8
1
 10
1940.3654
 20
173.1799
 30
0.0
  0
VERTEX
  5
66A
  8
1
 10
1932.1389
 20
172.3746
 30
0.0
  0
VERTEX
  5
66B
  8
1
 10
1914.7059
 20
171.1691
 30
0.0
  0
VERTEX
  5
66C
  8
1
 10
1899.2832
 20
170.7018
 30
0.0
  0
VERTEX
  5
66D
  8
1
 10
1883.8477
 20
170.5487
 30
0.0
  0
VERTEX
  5
66E
  8
1
 10
1876.7447
 20
256.3195
 30
0.0
  0
VERTEX
  5
66F
  8
1
 10
1873.059
 20
299.1921
 30
0.0
  0
VERTEX
  5
670
  8
1
 10
1868.9265
 20
342.0221
 30
0.0
  0
VERTEX
  5
671
  8
1
 10
1866.8991
 20
360.1844
 30
0.0
  0
VERTEX
  5
672
  8
1
 10
1864.6509
 20
378.3229
 30
0.0
  0
VERTEX
  5
673
  8
1
 10
1859.8403
 20
414.5651
 30
0.0
  0
VERTEX
  5
674
  8
1
 10
1855.1903
 20
450.8225
 30
0.0
  0
VERTEX
  5
675
  8
1
 10
1853.1431
 20
468.98
 30
0.0
  0
VERTEX
  5
676
  8
1
 10
1851.3971
 20
487.1691
 30
0.0
  0
VERTEX
  5
677
  8
1
 10
1849.5962
 20
509.6126
 30
0.0
  0
VERTEX
  5
678
  8
1
 10
1848.0348
 20
532.0746
 30
0.0
  0
VERTEX
  5
679
  8
1
 10
1845.5191
 20
577.0415
 30
0.0
  0
VERTEX
  5
67A
  8
1
 10
1843.6262
 20
622.0447
 30
0.0
  0
VERTEX
  5
67B
  8
1
 10
1842.1324
 20
667.0588
 30
0.0
  0
VERTEX
  5
67C
  8
1
 10
1840.5402
 20
707.9697
 30
0.0
  0
VERTEX
  5
67D
  8
1
 10
1840.3383
 20
718.2302
 30
0.0
  0
VERTEX
  5
67E
  8
1
 10
1840.3595
 20
728.5762
 30
0.0
  0
VERTEX
  5
67F
  8
1
 10
1840.676
 20
739.0438
 30
0.0
  0
VERTEX
  5
680
  8
1
 10
1841.3603
 20
749.6691
 30
0.0
  0
VERTEX
  5
681
  8
1
 10
1841.9493
 20
754.1294
 30
0.0
  0
VERTEX
  5
682
  8
1
 10
1842.8902
 20
758.5746
 30
0.0
  0
VERTEX
  5
683
  8
1
 10
1844.185
 20
762.954
 30
0.0
  0
VERTEX
  5
684
  8
1
 10
1845.8354
 20
767.2171
 30
0.0
  0
VERTEX
  5
685
  8
1
 10
1847.8433
 20
771.3134
 30
0.0
  0
VERTEX
  5
686
  8
1
 10
1850.2103
 20
775.1923
 30
0.0
  0
VERTEX
  5
687
  8
1
 10
1852.9384
 20
778.8032
 30
0.0
  0
VERTEX
  5
688
  8
1
 10
1856.0294
 20
782.0956
 30
0.0
  0
VERTEX
  5
689
  8
1
 10
1859.1283
 20
784.3877
 30
0.0
  0
VERTEX
  5
68A
  8
1
 10
1862.3744
 20
786.3811
 30
0.0
  0
VERTEX
  5
68B
  8
1
 10
1865.7523
 20
788.095
 30
0.0
  0
VERTEX
  5
68C
  8
1
 10
1869.2468
 20
789.5486
 30
0.0
  0
VERTEX
  5
68D
  8
1
 10
1872.8426
 20
790.761
 30
0.0
  0
VERTEX
  5
68E
  8
1
 10
1876.5243
 20
791.7516
 30
0.0
  0
VERTEX
  5
68F
  8
1
 10
1884.0846
 20
793.1439
 30
0.0
  0
VERTEX
  5
690
  8
1
 10
1891.8053
 20
793.8789
 30
0.0
  0
VERTEX
  5
691
  8
1
 10
1899.564
 20
794.1103
 30
0.0
  0
VERTEX
  5
692
  8
1
 10
1907.2383
 20
793.9916
 30
0.0
  0
VERTEX
  5
693
  8
1
 10
1914.7059
 20
793.6765
 30
0.0
  0
SEQEND
  5
7B1
  8
1
  0
LINE
  5
8E
  8
7
 10
1879.8542
 20
279.3256
 30
0.0
 11
1979.8542
 21
279.3256
 31
0.0
  0
POLYLINE
  5
8F
  8
11
 66
     1
 10
0.0
 20
0.0
 30
0.0
  0
VERTEX
  5
694
  8
11
 10
1902.0609
 20
705.4156
 30
0.0
  0
VERTEX
  5
695
  8
11
 10
1894.8316
 20
743.8059
 30
0.0
  0
SEQEND
  5
7B2
  8
11
  0
ENDBLK
  5
93
  8
0
  0
BLOCK
  8
0
  2
1
 70
     0
 10
358.2353
 20
448.5662
 30
0.0
  3
1
  1

  0
POLYLINE
  5
96
  8
1
 66
     1
 10
0.0
 20
0.0
 30
0.0
 70
     1
  0
VERTEX
  5
696
  8
1
 10
218.5652
 20
795.1722
 30
0.0
  0
VERTEX
  5
697
  8
1
 10
255.2403
 20
788.8369
 30
0.0
  0
VERTEX
  5
698
  8
1
 10
273.5634
 20
785.5931
 30
0.0
  0
VERTEX
  5
699
  8
1
 10
291.8382
 20
782.0956
 30
0.0
  0
VERTEX
  5
69A
  8
1
 10
306.3468
 20
778.9836
 30
0.0
  0
VERTEX
  5
69B
  8
1
 10
320.7987
 20
775.5894
 30
0.0
  0
VERTEX
  5
69C
  8
1
 10
349.6272
 20
768.4382
 30
0.0
  0
VERTEX
  5
69D
  8
1
 10
364.0513
 20
764.9232
 30
0.0
  0
VERTEX
  5
69E
  8
1
 10
378.5135
 20
761.6101
 30
0.0
  0
VERTEX
  5
69F
  8
1
 10
393.0375
 20
758.6199
 30
0.0
  0
VERTEX
  5
6A0
  8
1
 10
407.6471
 20
756.0735
 30
0.0
  0
VERTEX
  5
6A1
  8
1
 10
419.9652
 20
754.5836
 30
0.0
  0
VERTEX
  5
6A2
  8
1
 10
432.3432
 20
753.562
 30
0.0
  0
VERTEX
  5
6A3
  8
1
 10
444.6576
 20
752.4564
 30
0.0
  0
VERTEX
  5
6A4
  8
1
 10
450.7525
 20
751.6996
 30
0.0
  0
VERTEX
  5
6A5
  8
1
 10
456.7853
 20
750.7147
 30
0.0
  0
VERTEX
  5
6A6
  8
1
 10
463.2876
 20
749.2421
 30
0.0
  0
VERTEX
  5
6A7
  8
1
 10
469.4814
 20
747.2353
 30
0.0
  0
VERTEX
  5
6A8
  8
1
 10
472.4172
 20
746.0027
 30
0.0
  0
VERTEX
  5
6A9
  8
1
 10
475.2215
 20
744.6017
 30
0.0
  0
VERTEX
  5
6AA
  8
1
 10
477.8759
 20
743.0208
 30
0.0
  0
VERTEX
  5
6AB
  8
1
 10
480.3624
 20
741.2485
 30
0.0
  0
VERTEX
  5
6AC
  8
1
 10
482.6629
 20
739.2731
 30
0.0
  0
VERTEX
  5
6AD
  8
1
 10
484.759
 20
737.0831
 30
0.0
  0
VERTEX
  5
6AE
  8
1
 10
486.6328
 20
734.6668
 30
0.0
  0
VERTEX
  5
6AF
  8
1
 10
488.2659
 20
732.0127
 30
0.0
  0
VERTEX
  5
6B0
  8
1
 10
489.6404
 20
729.1093
 30
0.0
  0
VERTEX
  5
6B1
  8
1
 10
490.7378
 20
725.9449
 30
0.0
  0
VERTEX
  5
6B2
  8
1
 10
491.5402
 20
722.5079
 30
0.0
  0
VERTEX
  5
6B3
  8
1
 10
492.0294
 20
718.7868
 30
0.0
  0
VERTEX
  5
6B4
  8
1
 10
493.2599
 20
702.8234
 30
0.0
  0
VERTEX
  5
6B5
  8
1
 10
494.2437
 20
687.1906
 30
0.0
  0
VERTEX
  5
6B6
  8
1
 10
495.5924
 20
656.609
 30
0.0
  0
VERTEX
  5
6B7
  8
1
 10
496.3177
 20
626.4269
 30
0.0
  0
VERTEX
  5
6B8
  8
1
 10
496.6618
 20
596.0294
 30
0.0
  0
VERTEX
  5
6B9
  8
1
 10
496.7104
 20
561.6587
 30
0.0
  0
VERTEX
  5
6BA
  8
1
 10
496.272
 20
527.2862
 30
0.0
  0
VERTEX
  5
6BB
  8
1
 10
495.2564
 20
492.9287
 30
0.0
  0
VERTEX
  5
6BC
  8
1
 10
493.5735
 20
458.6029
 30
0.0
  0
VERTEX
  5
6BD
  8
1
 10
491.7272
 20
432.6832
 30
0.0
  0
VERTEX
  5
6BE
  8
1
 10
489.3612
 20
406.8017
 30
0.0
  0
VERTEX
  5
6BF
  8
1
 10
486.5922
 20
380.9568
 30
0.0
  0
VERTEX
  5
6C0
  8
1
 10
483.5368
 20
355.1471
 30
0.0
  0
VERTEX
  5
6C1
  8
1
 10
478.8027
 20
319.8197
 30
0.0
  0
VERTEX
  5
6C2
  8
1
 10
473.464
 20
284.5538
 30
0.0
  0
VERTEX
  5
6C3
  8
1
 10
470.461
 20
266.9771
 30
0.0
  0
VERTEX
  5
6C4
  8
1
 10
467.1783
 20
249.4558
 30
0.0
  0
VERTEX
  5
6C5
  8
1
 10
463.5732
 20
232.0031
 30
0.0
  0
VERTEX
  5
6C6
  8
1
 10
459.6029
 20
214.6324
 30
0.0
  0
VERTEX
  5
6C7
  8
1
 10
455.6096
 20
198.9983
 30
0.0
  0
VERTEX
  5
6C8
  8
1
 10
451.3315
 20
183.4313
 30
0.0
  0
VERTEX
  5
6C9
  8
1
 10
446.5568
 20
168.0236
 30
0.0
  0
VERTEX
  5
6CA
  8
1
 10
443.917
 20
160.4084
 30
0.0
  0
VERTEX
  5
6CB
  8
1
 10
441.0735
 20
152.8676
 30
0.0
  0
VERTEX
  5
6CC
  8
1
 10
438.0574
 20
145.6802
 30
0.0
  0
VERTEX
  5
6CD
  8
1
 10
434.6325
 20
138.5661
 30
0.0
  0
VERTEX
  5
6CE
  8
1
 10
430.7654
 20
131.6974
 30
0.0
  0
VERTEX
  5
6CF
  8
1
 10
426.4229
 20
125.2466
 30
0.0
  0
VERTEX
  5
6D0
  8
1
 10
423.8676
 20
122.1206
 30
0.0
  0
VERTEX
  5
6D1
  8
1
 10
421.0294
 20
119.2265
 30
0.0
  0
VERTEX
  5
6D2
  8
1
 10
417.9485
 20
116.59
 30
0.0
  0
VERTEX
  5
6D3
  8
1
 10
414.6653
 20
114.2368
 30
0.0
  0
VERTEX
  5
6D4
  8
1
 10
408.3837
 20
110.3792
 30
0.0
  0
VERTEX
  5
6D5
  8
1
 10
401.9632
 20
107.0556
 30
0.0
  0
VERTEX
  5
6D6
  8
1
 10
395.2767
 20
104.3781
 30
0.0
  0
VERTEX
  5
6D7
  8
1
 10
391.7939
 20
103.3167
 30
0.0
  0
VERTEX
  5
6D8
  8
1
 10
388.1967
 20
102.4587
 30
0.0
  0
VERTEX
  5
6D9
  8
1
 10
381.7804
 20
101.3267
 30
0.0
  0
VERTEX
  5
6DA
  8
1
 10
375.2352
 20
100.7313
 30
0.0
  0
VERTEX
  5
6DB
  8
1
 10
371.9736
 20
100.7371
 30
0.0
  0
VERTEX
  5
6DC
  8
1
 10
368.751
 20
100.9997
 30
0.0
  0
VERTEX
  5
6DD
  8
1
 10
365.5912
 20
101.5599
 30
0.0
  0
VERTEX
  5
6DE
  8
1
 10
362.5179
 20
102.4587
 30
0.0
  0
VERTEX
  5
6DF
  8
1
 10
359.1483
 20
104.3558
 30
0.0
  0
VERTEX
  5
6E0
  8
1
 10
355.9534
 20
106.5388
 30
0.0
  0
VERTEX
  5
6E1
  8
1
 10
352.9249
 20
108.9808
 30
0.0
  0
VERTEX
  5
6E2
  8
1
 10
350.0541
 20
111.6551
 30
0.0
  0
VERTEX
  5
6E3
  8
1
 10
347.3325
 20
114.5349
 30
0.0
  0
VERTEX
  5
6E4
  8
1
 10
344.7517
 20
117.5932
 30
0.0
  0
VERTEX
  5
6E5
  8
1
 10
339.9781
 20
124.1383
 30
0.0
  0
VERTEX
  5
6E6
  8
1
 10
335.6652
 20
131.0757
 30
0.0
  0
VERTEX
  5
6E7
  8
1
 10
331.7448
 20
138.1909
 30
0.0
  0
VERTEX
  5
6E8
  8
1
 10
324.8088
 20
152.0956
 30
0.0
  0
VERTEX
  5
6E9
  8
1
 10
321.3898
 20
161.2533
 30
0.0
  0
VERTEX
  5
6EA
  8
1
 10
318.5378
 20
170.5937
 30
0.0
  0
VERTEX
  5
6EB
  8
1
 10
316.186
 20
180.0821
 30
0.0
  0
VERTEX
  5
6EC
  8
1
 10
314.2677
 20
189.6838
 30
0.0
  0
VERTEX
  5
6ED
  8
1
 10
312.7162
 20
199.3641
 30
0.0
  0
VERTEX
  5
6EE
  8
1
 10
311.4649
 20
209.0882
 30
0.0
  0
VERTEX
  5
6EF
  8
1
 10
309.5956
 20
228.5294
 30
0.0
  0
VERTEX
  5
6F0
  8
1
 10
303.8539
 20
320.6406
 30
0.0
  0
VERTEX
  5
6F1
  8
1
 10
302.1356
 20
343.6538
 30
0.0
  0
VERTEX
  5
6F2
  8
1
 10
300.1691
 20
366.6138
 30
0.0
  0
VERTEX
  5
6F3
  8
1
 10
297.8868
 20
389.4969
 30
0.0
  0
VERTEX
  5
6F4
  8
1
 10
295.2213
 20
412.2794
 30
0.0
  0
VERTEX
  5
6F5
  8
1
 10
293.9716
 20
420.2009
 30
0.0
  0
VERTEX
  5
6F6
  8
1
 10
292.2953
 20
428.0358
 30
0.0
  0
VERTEX
  5
6F7
  8
1
 10
290.2715
 20
435.7987
 30
0.0
  0
VERTEX
  5
6F8
  8
1
 10
287.9795
 20
443.5042
 30
0.0
  0
VERTEX
  5
6F9
  8
1
 10
277.7132
 20
474.0441
 30
0.0
  0
VERTEX
  5
6FA
  8
1
 10
271.2126
 20
492.8071
 30
0.0
  0
VERTEX
  5
6FB
  8
1
 10
264.2127
 20
511.4561
 30
0.0
  0
VERTEX
  5
6FC
  8
1
 10
256.8276
 20
529.8973
 30
0.0
  0
VERTEX
  5
6FD
  8
1
 10
249.1713
 20
548.0371
 30
0.0
  0
VERTEX
  5
6FE
  8
1
 10
245.2678
 20
556.1771
 30
0.0
  0
VERTEX
  5
6FF
  8
1
 10
242.9982
 20
560.1044
 30
0.0
  0
VERTEX
  5
700
  8
1
 10
240.3838
 20
564.0634
 30
0.0
  0
VERTEX
  5
701
  8
1
 10
238.8518
 20
598.5955
 30
0.0
  0
VERTEX
  5
702
  8
1
 10
238.034
 20
615.8834
 30
0.0
  0
VERTEX
  5
703
  8
1
 10
236.7941
 20
633.0882
 30
0.0
  0
VERTEX
  5
704
  8
1
 10
234.4868
 20
654.9342
 30
0.0
  0
VERTEX
  5
705
  8
1
 10
231.7354
 20
676.733
 30
0.0
  0
VERTEX
  5
706
  8
1
 10
228.8682
 20
698.52
 30
0.0
  0
VERTEX
  5
707
  8
1
 10
226.2132
 20
720.3309
 30
0.0
  0
VERTEX
  5
708
  8
1
 10
222.3011
 20
757.7421
 30
0.0
  0
VERTEX
  5
709
  8
1
 10
218.5652
 20
795.1722
 30
0.0
  0
SEQEND
  5
7B3
  8
1
  0
LINE
  5
10C
  8
7
 10
308.2353
 20
448.5662
 30
0.0
 11
408.2353
 21
448.5662
 31
0.0
  0
ENDBLK
  5
10D
  8
0
  0
BLOCK
  8
0
  2
2
 70
     0
 10
759.3199
 20
455.5147
 30
0.0
  3
2
  1

  0
POLYLINE
  5
110
  8
1
 66
     1
 10
0.0
 20
0.0
 30
0.0
 70
     1
  0
VERTEX
  5
70A
  8
1
 10
659.3382
 20
819.9265
 30
0.0
  0
VERTEX
  5
70B
  8
1
 10
665.7408
 20
820.9025
 30
0.0
  0
VERTEX
  5
70C
  8
1
 10
672.18
 20
821.6615
 30
0.0
  0
VERTEX
  5
70D
  8
1
 10
685.1496
 20
822.5919
 30
0.0
  0
VERTEX
  5
70E
  8
1
 10
698.2096
 20
822.8447
 30
0.0
  0
VERTEX
  5
70F
  8
1
 10
711.323
 20
822.5467
 30
0.0
  0
VERTEX
  5
710
  8
1
 10
724.4526
 20
821.8246
 30
0.0
  0
VERTEX
  5
711
  8
1
 10
737.5611
 20
820.8052
 30
0.0
  0
VERTEX
  5
712
  8
1
 10
763.5662
 20
818.3824
 30
0.0
  0
VERTEX
  5
713
  8
1
 10
783.0641
 20
815.5731
 30
0.0
  0
VERTEX
  5
714
  8
1
 10
802.4947
 20
812.2953
 30
0.0
  0
VERTEX
  5
715
  8
1
 10
821.8634
 20
808.6195
 30
0.0
  0
VERTEX
  5
716
  8
1
 10
841.1761
 20
804.6158
 30
0.0
  0
VERTEX
  5
717
  8
1
 10
879.6555
 20
795.9059
 30
0.0
  0
VERTEX
  5
718
  8
1
 10
917.9779
 20
786.7279
 30
0.0
  0
VERTEX
  5
719
  8
1
 10
928.4545
 20
783.8734
 30
0.0
  0
VERTEX
  5
71A
  8
1
 10
938.8998
 20
780.9012
 30
0.0
  0
VERTEX
  5
71B
  8
1
 10
942.4926
 20
732.035
 30
0.0
  0
VERTEX
  5
71C
  8
1
 10
944.2257
 20
707.5978
 30
0.0
  0
VERTEX
  5
71D
  8
1
 10
945.7479
 20
683.1474
 30
0.0
  0
VERTEX
  5
71E
  8
1
 10
949.5083
 20
601.9552
 30
0.0
  0
VERTEX
  5
71F
  8
1
 10
952.9634
 20
520.7362
 30
0.0
  0
VERTEX
  5
720
  8
1
 10
954.4086
 20
480.118
 30
0.0
  0
VERTEX
  5
721
  8
1
 10
955.576
 20
439.4948
 30
0.0
  0
VERTEX
  5
722
  8
1
 10
956.3985
 20
398.867
 30
0.0
  0
VERTEX
  5
723
  8
1
 10
956.8088
 20
358.2353
 30
0.0
  0
VERTEX
  5
724
  8
1
 10
956.0892
 20
321.5149
 30
0.0
  0
VERTEX
  5
725
  8
1
 10
955.2178
 20
303.1827
 30
0.0
  0
VERTEX
  5
726
  8
1
 10
953.7206
 20
284.8897
 30
0.0
  0
VERTEX
  5
727
  8
1
 10
951.6354
 20
267.1037
 30
0.0
  0
VERTEX
  5
728
  8
1
 10
949.0259
 20
249.3712
 30
0.0
  0
VERTEX
  5
729
  8
1
 10
945.9007
 20
231.7108
 30
0.0
  0
VERTEX
  5
72A
  8
1
 10
942.2683
 20
214.1414
 30
0.0
  0
VERTEX
  5
72B
  8
1
 10
938.1373
 20
196.6815
 30
0.0
  0
VERTEX
  5
72C
  8
1
 10
933.5163
 20
179.35
 30
0.0
  0
VERTEX
  5
72D
  8
1
 10
928.4138
 20
162.1656
 30
0.0
  0
VERTEX
  5
72E
  8
1
 10
922.8382
 20
145.1471
 30
0.0
  0
VERTEX
  5
72F
  8
1
 10
918.0509
 20
133.3859
 30
0.0
  0
VERTEX
  5
730
  8
1
 10
912.9211
 20
121.5857
 30
0.0
  0
VERTEX
  5
731
  8
1
 10
910.1049
 20
115.812
 30
0.0
  0
VERTEX
  5
732
  8
1
 10
907.0559
 20
110.198
 30
0.0
  0
VERTEX
  5
733
  8
1
 10
903.7248
 20
104.7999
 30
0.0
  0
VERTEX
  5
734
  8
1
 10
900.0626
 20
99.6742
 30
0.0
  0
VERTEX
  5
735
  8
1
 10
896.6212
 20
96.1837
 30
0.0
  0
VERTEX
  5
736
  8
1
 10
892.8544
 20
92.9736
 30
0.0
  0
VERTEX
  5
737
  8
1
 10
890.8421
 20
91.5697
 30
0.0
  0
VERTEX
  5
738
  8
1
 10
888.7402
 20
90.3512
 30
0.0
  0
VERTEX
  5
739
  8
1
 10
886.5459
 20
89.3565
 30
0.0
  0
VERTEX
  5
73A
  8
1
 10
884.2566
 20
88.624
 30
0.0
  0
VERTEX
  5
73B
  8
1
 10
881.1217
 20
88.2322
 30
0.0
  0
VERTEX
  5
73C
  8
1
 10
877.9229
 20
88.4769
 30
0.0
  0
VERTEX
  5
73D
  8
1
 10
874.7404
 20
89.165
 30
0.0
  0
VERTEX
  5
73E
  8
1
 10
871.6544
 20
90.1029
 30
0.0
  0
VERTEX
  5
73F
  8
1
 10
867.2362
 20
91.8581
 30
0.0
  0
VERTEX
  5
740
  8
1
 10
863.0072
 20
94.0804
 30
0.0
  0
VERTEX
  5
741
  8
1
 10
858.9916
 20
96.6871
 30
0.0
  0
VERTEX
  5
742
  8
1
 10
855.2132
 20
99.5956
 30
0.0
  0
VERTEX
  5
743
  8
1
 10
851.7115
 20
102.9991
 30
0.0
  0
VERTEX
  5
744
  8
1
 10
848.4952
 20
106.7509
 30
0.0
  0
VERTEX
  5
745
  8
1
 10
845.5772
 20
110.7974
 30
0.0
  0
VERTEX
  5
746
  8
1
 10
842.9703
 20
115.0846
 30
0.0
  0
VERTEX
  5
747
  8
1
 10
840.6875
 20
119.5589
 30
0.0
  0
VERTEX
  5
748
  8
1
 10
838.7416
 20
124.1664
 30
0.0
  0
VERTEX
  5
749
  8
1
 10
837.1454
 20
128.8534
 30
0.0
  0
VERTEX
  5
74A
  8
1
 10
835.9118
 20
133.5662
 30
0.0
  0
VERTEX
  5
74B
  8
1
 10
825.6554
 20
191.4082
 30
0.0
  0
VERTEX
  5
74C
  8
1
 10
820.6868
 20
220.7991
 30
0.0
  0
VERTEX
  5
74D
  8
1
 10
816.0662
 20
250.1471
 30
0.0
  0
VERTEX
  5
74E
  8
1
 10
813.5455
 20
268.6292
 30
0.0
  0
VERTEX
  5
74F
  8
1
 10
811.3108
 20
287.1515
 30
0.0
  0
VERTEX
  5
750
  8
1
 10
809.0501
 20
305.6698
 30
0.0
  0
VERTEX
  5
751
  8
1
 10
806.4517
 20
324.1401
 30
0.0
  0
VERTEX
  5
752
  8
1
 10
802.4599
 20
349.7381
 30
0.0
  0
VERTEX
  5
753
  8
1
 10
798.2485
 20
375.3071
 30
0.0
  0
VERTEX
  5
754
  8
1
 10
793.5064
 20
400.7705
 30
0.0
  0
VERTEX
  5
755
  8
1
 10
790.8391
 20
413.4387
 30
0.0
  0
VERTEX
  5
756
  8
1
 10
787.9223
 20
426.0518
 30
0.0
  0
VERTEX
  5
757
  8
1
 10
784.5072
 20
439.6487
 30
0.0
  0
VERTEX
  5
758
  8
1
 10
780.7551
 20
453.1663
 30
0.0
  0
VERTEX
  5
759
  8
1
 10
776.4961
 20
466.5191
 30
0.0
  0
VERTEX
  5
75A
  8
1
 10
774.1234
 20
473.107
 30
0.0
  0
VERTEX
  5
75B
  8
1
 10
771.5602
 20
479.6216
 30
0.0
  0
VERTEX
  5
75C
  8
1
 10
768.0343
 20
486.9565
 30
0.0
  0
VERTEX
  5
75D
  8
1
 10
765.9283
 20
490.4273
 30
0.0
  0
VERTEX
  5
75E
  8
1
 10
764.6625
 20
491.9707
 30
0.0
  0
VERTEX
  5
75F
  8
1
 10
763.2062
 20
493.3317
 30
0.0
  0
VERTEX
  5
760
  8
1
 10
761.5289
 20
493.8307
 30
0.0
  0
VERTEX
  5
761
  8
1
 10
760.641
 20
493.8054
 30
0.0
  0
VERTEX
  5
762
  8
1
 10
759.8063
 20
493.5809
 30
0.0
  0
VERTEX
  5
763
  8
1
 10
759.0396
 20
493.1132
 30
0.0
  0
VERTEX
  5
764
  8
1
 10
758.3978
 20
492.4523
 30
0.0
  0
VERTEX
  5
765
  8
1
 10
757.466
 20
490.8424
 30
0.0
  0
VERTEX
  5
766
  8
1
 10
756.766
 20
487.8637
 30
0.0
  0
VERTEX
  5
767
  8
1
 10
756.3279
 20
484.8328
 30
0.0
  0
VERTEX
  5
768
  8
1
 10
755.9754
 20
478.67
 30
0.0
  0
VERTEX
  5
769
  8
1
 10
755.884
 20
472.4637
 30
0.0
  0
VERTEX
  5
76A
  8
1
 10
755.5294
 20
466.3235
 30
0.0
  0
VERTEX
  5
76B
  8
1
 10
753.7487
 20
419.6144
 30
0.0
  0
VERTEX
  5
76C
  8
1
 10
751.9853
 20
372.9044
 30
0.0
  0
VERTEX
  5
76D
  8
1
 10
747.2122
 20
275.973
 30
0.0
  0
VERTEX
  5
76E
  8
1
 10
745.3795
 20
251.7263
 30
0.0
  0
VERTEX
  5
76F
  8
1
 10
744.2001
 20
239.641
 30
0.0
  0
VERTEX
  5
770
  8
1
 10
742.8047
 20
227.5911
 30
0.0
  0
VERTEX
  5
771
  8
1
 10
741.163
 20
215.5836
 30
0.0
  0
VERTEX
  5
772
  8
1
 10
739.2446
 20
203.626
 30
0.0
  0
VERTEX
  5
773
  8
1
 10
737.019
 20
191.7256
 30
0.0
  0
VERTEX
  5
774
  8
1
 10
734.4559
 20
179.8897
 30
0.0
  0
VERTEX
  5
775
  8
1
 10
732.644
 20
173.3657
 30
0.0
  0
VERTEX
  5
776
  8
1
 10
730.5498
 20
166.9051
 30
0.0
  0
VERTEX
  5
777
  8
1
 10
727.9706
 20
160.6607
 30
0.0
  0
VERTEX
  5
778
  8
1
 10
726.4358
 20
157.6675
 30
0.0
  0
VERTEX
  5
779
  8
1
 10
724.7037
 20
154.7857
 30
0.0
  0
VERTEX
  5
77A
  8
1
 10
722.7047
 20
152.023
 30
0.0
  0
VERTEX
  5
77B
  8
1
 10
720.4262
 20
149.4592
 30
0.0
  0
VERTEX
  5
77C
  8
1
 10
717.8889
 20
147.1611
 30
0.0
  0
VERTEX
  5
77D
  8
1
 10
715.1134
 20
145.1955
 30
0.0
  0
VERTEX
  5
77E
  8
1
 10
712.5494
 20
143.8719
 30
0.0
  0
VERTEX
  5
77F
  8
1
 10
709.8208
 20
142.8786
 30
0.0
  0
VERTEX
  5
780
  8
1
 10
704.1418
 20
141.5844
 30
0.0
  0
VERTEX
  5
781
  8
1
 10
700.0275
 20
141.1416
 30
0.0
  0
VERTEX
  5
782
  8
1
 10
695.8936
 20
140.9062
 30
0.0
  0
VERTEX
  5
783
  8
1
 10
687.5975
 20
140.9779
 30
0.0
  0
VERTEX
  5
784
  8
1
 10
679.3147
 20
141.6393
 30
0.0
  0
VERTEX
  5
785
  8
1
 10
671.1061
 20
142.7304
 30
0.0
  0
VERTEX
  5
786
  8
1
 10
656.8718
 20
145.9709
 30
0.0
  0
VERTEX
  5
787
  8
1
 10
649.7944
 20
147.8837
 30
0.0
  0
VERTEX
  5
788
  8
1
 10
642.7792
 20
150.0244
 30
0.0
  0
VERTEX
  5
789
  8
1
 10
635.8528
 20
152.4177
 30
0.0
  0
VERTEX
  5
78A
  8
1
 10
629.0422
 20
155.0883
 30
0.0
  0
VERTEX
  5
78B
  8
1
 10
622.374
 20
158.061
 30
0.0
  0
VERTEX
  5
78C
  8
1
 10
615.875
 20
161.3603
 30
0.0
  0
VERTEX
  5
78D
  8
1
 10
611.1861
 20
164.1991
 30
0.0
  0
VERTEX
  5
78E
  8
1
 10
606.6087
 20
167.2258
 30
0.0
  0
VERTEX
  5
78F
  8
1
 10
597.7393
 20
173.7234
 30
0.0
  0
VERTEX
  5
790
  8
1
 10
589.1688
 20
180.614
 30
0.0
  0
VERTEX
  5
791
  8
1
 10
580.7994
 20
187.6587
 30
0.0
  0
VERTEX
  5
792
  8
1
 10
576.5
 20
545.0735
 30
0.0
  0
VERTEX
  5
793
  8
1
 10
570.3235
 20
698.7132
 30
0.0
  0
VERTEX
  5
794
  8
1
 10
568.9724
 20
709.0649
 30
0.0
  0
VERTEX
  5
795
  8
1
 10
567.0345
 20
719.4626
 30
0.0
  0
VERTEX
  5
796
  8
1
 10
562.8309
 20
740.4044
 30
0.0
  0
VERTEX
  5
797
  8
1
 10
562.3426
 20
743.7189
 30
0.0
  0
VERTEX
  5
798
  8
1
 10
562.0435
 20
747.1418
 30
0.0
  0
VERTEX
  5
799
  8
1
 10
561.9682
 20
750.6226
 30
0.0
  0
VERTEX
  5
79A
  8
1
 10
562.1516
 20
754.1109
 30
0.0
  0
VERTEX
  5
79B
  8
1
 10
562.6285
 20
757.5562
 30
0.0
  0
VERTEX
  5
79C
  8
1
 10
563.4338
 20
760.9079
 30
0.0
  0
VERTEX
  5
79D
  8
1
 10
564.6021
 20
764.1156
 30
0.0
  0
VERTEX
  5
79E
  8
1
 10
566.1684
 20
767.1288
 30
0.0
  0
VERTEX
  5
79F
  8
1
 10
570.2056
 20
772.4658
 30
0.0
  0
VERTEX
  5
7A0
  8
1
 10
574.6388
 20
777.5358
 30
0.0
  0
VERTEX
  5
7A1
  8
1
 10
579.4344
 20
782.3376
 30
0.0
  0
VERTEX
  5
7A2
  8
1
 10
584.5583
 20
786.8704
 30
0.0
  0
VERTEX
  5
7A3
  8
1
 10
589.9768
 20
791.1331
 30
0.0
  0
VERTEX
  5
7A4
  8
1
 10
595.6559
 20
795.1249
 30
0.0
  0
VERTEX
  5
7A5
  8
1
 10
601.5619
 20
798.8448
 30
0.0
  0
VERTEX
  5
7A6
  8
1
 10
607.6609
 20
802.2917
 30
0.0
  0
VERTEX
  5
7A7
  8
1
 10
613.919
 20
805.4647
 30
0.0
  0
VERTEX
  5
7A8
  8
1
 10
620.3025
 20
808.3629
 30
0.0
  0
VERTEX
  5
7A9
  8
1
 10
626.7773
 20
810.9853
 30
0.0
  0
VERTEX
  5
7AA
  8
1
 10
633.3097
 20
813.3309
 30
0.0
  0
VERTEX
  5
7AB
  8
1
 10
639.8659
 20
815.3988
 30
0.0
  0
VERTEX
  5
7AC
  8
1
 10
646.4119
 20
817.188
 30
0.0
  0
VERTEX
  5
7AD
  8
1
 10
652.914
 20
818.6976
 30
0.0
  0
VERTEX
  5
7AE
  8
1
 10
659.3382
 20
819.9265
 30
0.0
  0
SEQEND
  5
7B4
  8
1
  0
LINE
  5
1B7
  8
7
 10
729.6463
 20
518.6105
 30
0.0
 11
829.6463
 21
518.6105
 31
0.0
  0
ENDBLK
  5
1B8
  8
0
  0
ENDSEC
  0
SECTION
  2
ENTITIES
  0
POLYLINE
  5
5C2
  8
0
  6
BYBLOCK
 62
     1
 66
     1
 10
0.0
 20
0.0
 30
0.0
  0
VERTEX
  5
614
  8
0
  6
BYBLOCK
 62
     1
 10
1977.737557709781
 20
758.6334641251793
 30
0.0
 42
-0.1984044718496743
  0
VERTEX
  5
615
  8
0
  6
BYBLOCK
 62
     1
 10
2001.031472376734
 20
720.6751871774592
 30
0.0
  0
VERTEX
  5
616
  8
0
  6
BYBLOCK
 62
     1
 10
2001.847978225277
 20
710.7039949654106
 30
0.0
  0
VERTEX
  5
617
  8
0
  6
BYBLOCK
 62
     1
 10
1902.256465963176
 20
705.5716668445865
 30
0.0
  0
VERTEX
  5
618
  8
0
  6
BYBLOCK
 62
     1
 10
1895.8316
 20
743.8059
 30
0.0
  0
VERTEX
  5
619
  8
0
  6
BYBLOCK
 62
     1
 10
1894.8316
 20
743.8059
 30
0.0
  0
VERTEX
  5
61A
  8
0
  6
BYBLOCK
 62
     1
 10
1902.0609
 20
705.4156
 30
0.0
  0
VERTEX
  5
61B
  8
0
  6
BYBLOCK
 62
     1
 10
1937.7188
 20
292.6345
 30
0.0
  0
VERTEX
  5
61C
  8
0
  6
BYBLOCK
 62
     1
 10
2054.5248
 20
308.6747
 30
0.0
 42
-0.0978939899875595
  0
VERTEX
  5
61D
  8
0
  6
BYBLOCK
 62
     1
 10
2052.2097
 20
250.5842
 30
0.0
 42
-0.0998731572844264
  0
VERTEX
  5
61E
  8
0
  6
BYBLOCK
 62
     1
 10
2042.8977
 20
232.0016
 30
0.0
 42
-0.0714004219410092
  0
VERTEX
  5
61F
  8
0
  6
BYBLOCK
 62
     1
 10
2009.777046014652
 20
199.8959647514012
 30
0.0
 42
-0.1444643448983835
  0
VERTEX
  5
620
  8
0
  6
BYBLOCK
 62
     1
 10
1936.25215
 20
172.7772500000001
 30
0.0
 42
-0.0240856157230386
  0
VERTEX
  5
621
  8
0
  6
BYBLOCK
 62
     1
 10
1883.8477
 20
170.5487000000008
 30
0.0
 42
-0.0139051857232932
  0
VERTEX
  5
622
  8
0
  6
BYBLOCK
 62
     1
 10
1855.797419464993
 20
428.0746811480831
 30
0.0
 42
-0.2343901718761146
  0
VERTEX
  5
623
  8
0
  6
BYBLOCK
 62
     1
 10
1860.852658139995
 20
436.7900381877301
 30
0.0
 42
0.2410186176863792
  0
VERTEX
  5
624
  8
0
  6
BYBLOCK
 62
     1
 10
1864.613531531922
 20
443.4024946375751
 30
0.0
 42
-0.0162109999465765
  0
VERTEX
  5
625
  8
0
  6
BYBLOCK
 62
     1
 10
1851.017996054399
 20
744.4321046389432
 30
0.0
 42
-0.1575188360498525
  0
VERTEX
  5
626
  8
0
  6
BYBLOCK
 62
     1
 10
1859.519872955191
 20
770.9197439044625
 30
0.0
 42
-0.2036849649800119
  0
VERTEX
  5
627
  8
0
  6
BYBLOCK
 62
     1
 10
1881.536348230103
 20
782.5176424663526
 30
0.0
 42
-0.0836071391055315
  0
VERTEX
  5
628
  8
0
  6
BYBLOCK
 62
     1
 10
1922.131736530944
 20
782.2456836130332
 30
0.0
 42
-0.1170566144356848
  0
VERTEX
  5
629
  8
0
  6
BYBLOCK
 62
     1
 10
1977.439889252988
 20
758.8437798066276
 30
0.0
  0
SEQEND
  5
7AF
  8
0
  6
BYBLOCK
 62
     1
  0
POLYLINE
  5
5C7
  8
0
  6
BYBLOCK
 62
     1
 66
     1
 10
0.0
 20
0.0
 30
0.0
  0
VERTEX
  5
62A
  8
0
  6
BYBLOCK
 62
     1
 10
1892.575193688496
 20
180.5697488925379
 30
0.0
  0
VERTEX
  5
62B
  8
0
  6
BYBLOCK
 62
     1
 10
1892.575193688495
 20
180.5697488925379
 30
0.0
 42
-0.0200873594652462
  0
SEQEND
  5
7B0
  8
0
  6
BYBLOCK
 62
     1
  0
ENDSEC
  0
EOF
