  0
SECTION
  2
HEADER
  9
$ACADVER
  1
AC1009
  9
$DWGCODEPAGE
  3
ansi_1250
  9
$INSBASE
 10
0.0
 20
0.0
 30
0.0
  9
$EXTMIN
 10
-2031.543681498338
 20
1286.008176704432
 30
-0.4326429582159519
  9
$EXTMAX
 10
-1324.85911016722
 20
1529.034339087176
 30
0.4326429582159509
  9
$LIMMIN
 10
0.0
 20
0.0
  9
$LIMMAX
 10
12.0
 20
9.0
  9
$ORTHOMODE
 70
     1
  9
$REGENMODE
 70
     1
  9
$FILLMODE
 70
     1
  9
$QTEXTMODE
 70
     0
  9
$MIRRTEXT
 70
     1
  9
$DRAGMODE
 70
     2
  9
$LTSCALE
 40
1.0
  9
$OSMODE
 70
 14719
  9
$ATTMODE
 70
     1
  9
$TEXTSIZE
 40
0.2
  9
$TRACEWID
 40
0.05
  9
$TEXTSTYLE
  7
STANDARD
  9
$CLAYER
  8
0
  9
$CELTYPE
  6
BYBLOCK
  9
$CECOLOR
 62
     1
  9
$DIMSCALE
 40
1.0
  9
$DIMASZ
 40
0.18
  9
$DIMEXO
 40
0.0625
  9
$DIMDLI
 40
0.38
  9
$DIMRND
 40
0.0
  9
$DIMDLE
 40
0.0
  9
$DIMEXE
 40
0.18
  9
$DIMTP
 40
0.0
  9
$DIMTM
 40
0.0
  9
$DIMTXT
 40
0.18
  9
$DIMCEN
 40
0.09
  9
$DIMTSZ
 40
0.0
  9
$DIMTOL
 70
     0
  9
$DIMLIM
 70
     0
  9
$DIMTIH
 70
     1
  9
$DIMTOH
 70
     1
  9
$DIMSE1
 70
     0
  9
$DIMSE2
 70
     0
  9
$DIMTAD
 70
     0
  9
$DIMZIN
 70
     0
  9
$DIMBLK
  1

  9
$DIMASO
 70
     1
  9
$DIMSHO
 70
     1
  9
$DIMPOST
  1

  9
$DIMAPOST
  1

  9
$DIMALT
 70
     0
  9
$DIMALTD
 70
     2
  9
$DIMALTF
 40
25.4
  9
$DIMLFAC
 40
1.0
  9
$DIMTOFL
 70
     0
  9
$DIMTVP
 40
0.0
  9
$DIMTIX
 70
     0
  9
$DIMSOXD
 70
     0
  9
$DIMSAH
 70
     0
  9
$DIMBLK1
  1

  9
$DIMBLK2
  1

  9
$DIMSTYLE
  2
STANDARD
  9
$DIMCLRD
 70
     0
  9
$DIMCLRE
 70
     0
  9
$DIMCLRT
 70
     0
  9
$DIMTFAC
 40
1.0
  9
$DIMGAP
 40
0.09
  9
$LUNITS
 70
     2
  9
$LUPREC
 70
     4
  9
$SKETCHINC
 40
0.1
  9
$FILLETRAD
 40
0.5
  9
$AUNITS
 70
     0
  9
$AUPREC
 70
     0
  9
$MENU
  1
.
  9
$ELEVATION
 40
0.0
  9
$PELEVATION
 40
0.0
  9
$THICKNESS
 40
0.0
  9
$LIMCHECK
 70
     0
  9
$CHAMFERA
 40
0.0
  9
$CHAMFERB
 40
0.0
  9
$SKPOLY
 70
     0
  9
$TDCREATE
 40
2459200.393237164
  9
$TDUPDATE
 40
2459331.380323854
  9
$TDINDWG
 40
0.0077640625
  9
$TDUSRTIMER
 40
0.0001479861
  9
$USRTIMER
 70
     1
  9
$ANGBASE
 50
0.0
  9
$ANGDIR
 70
     0
  9
$PDMODE
 70
     0
  9
$PDSIZE
 40
0.0
  9
$PLINEWID
 40
0.0
  9
$COORDS
 70
     1
  9
$SPLFRAME
 70
     0
  9
$SPLINETYPE
 70
     6
  9
$SPLINESEGS
 70
     8
  9
$ATTDIA
 70
     0
  9
$ATTREQ
 70
     1
  9
$HANDLING
 70
     1
  9
$HANDSEED
  5
636
  9
$SURFTAB1
 70
     6
  9
$SURFTAB2
 70
     6
  9
$SURFTYPE
 70
     6
  9
$SURFU
 70
     6
  9
$SURFV
 70
     6
  9
$UCSNAME
  2

  9
$UCSORG
 10
0.0
 20
0.0
 30
0.0
  9
$UCSXDIR
 10
1.0
 20
0.0
 30
0.0
  9
$UCSYDIR
 10
0.0
 20
1.0
 30
0.0
  9
$PUCSNAME
  2

  9
$PUCSORG
 10
0.0
 20
0.0
 30
0.0
  9
$PUCSXDIR
 10
1.0
 20
0.0
 30
0.0
  9
$PUCSYDIR
 10
0.0
 20
1.0
 30
0.0
  9
$USERI1
 70
     0
  9
$USERI2
 70
     0
  9
$USERI3
 70
     0
  9
$USERI4
 70
     0
  9
$USERI5
 70
     0
  9
$USERR1
 40
0.0
  9
$USERR2
 40
0.0
  9
$USERR3
 40
0.0
  9
$USERR4
 40
0.0
  9
$USERR5
 40
0.0
  9
$WORLDVIEW
 70
     1
  9
$SHADEDGE
 70
     3
  9
$SHADEDIF
 70
    70
  9
$TILEMODE
 70
     1
  9
$MAXACTVP
 70
    64
  9
$PLIMCHECK
 70
     0
  9
$PEXTMIN
 10
1.000000000000000E+20
 20
1.000000000000000E+20
 30
1.000000000000000E+20
  9
$PEXTMAX
 10
-1.000000000000000E+20
 20
-1.000000000000000E+20
 30
-1.000000000000000E+20
  9
$PLIMMIN
 10
0.0
 20
0.0
  9
$PLIMMAX
 10
0.0
 20
0.0
  9
$UNITMODE
 70
     0
  9
$VISRETAIN
 70
     1
  9
$PLINEGEN
 70
     0
  9
$PSLTSCALE
 70
     1
  0
ENDSEC
  0
SECTION
  2
TABLES
  0
TABLE
  2
VPORT
 70
     1
  0
VPORT
  2
*ACTIVE
 70
     0
 10
0.0
 20
0.0
 11
1.0
 21
1.0
 12
-1257.746490524029
 22
1196.078357217263
 13
0.0
 23
0.0
 14
0.5
 24
0.5
 15
0.5
 25
0.5
 16
0.0
 26
-0.001780234850230045
 36
0.9999984153806833
 17
0.0
 27
0.0
 37
0.0
 40
2915.333200589693
 41
1.268292682926829
 42
50.0
 43
0.0
 44
0.0
 50
0.0
 51
0.0
 71
    16
 72
   100
 73
     1
 74
     3
 75
     0
 76
     0
 77
     0
 78
     0
  0
ENDTAB
  0
TABLE
  2
LTYPE
 70
     1
  0
LTYPE
  2
CONTINUOUS
 70
     0
  3
Solid line
 72
    65
 73
     0
 40
0.0
  0
ENDTAB
  0
TABLE
  2
LAYER
 70
     3
  0
LAYER
  2
0
 70
     0
 62
     7
  6
CONTINUOUS
  0
LAYER
  2
1
 70
     0
 62
     7
  6
CONTINUOUS
  0
LAYER
  2
7
 70
     0
 62
     7
  6
CONTINUOUS
  0
ENDTAB
  0
TABLE
  2
STYLE
 70
     1
  0
STYLE
  2
STANDARD
 70
     0
 40
0.0
 41
1.0
 50
0.0
 71
     0
 42
0.2
  3
txt
  4

  0
ENDTAB
  0
TABLE
  2
VIEW
 70
     0
  0
ENDTAB
  0
TABLE
  2
UCS
 70
     0
  0
ENDTAB
  0
TABLE
  2
APPID
 70
     1
  0
APPID
  2
ACAD
 70
     0
  0
ENDTAB
  0
TABLE
  2
DIMSTYLE
 70
     1
  0
DIMSTYLE
  2
STANDARD
 70
     0
  3

  4

  5

  6

  7

 40
1.0
 41
0.18
 42
0.0625
 43
0.38
 44
0.18
 45
0.0
 46
0.0
 47
0.0
 48
0.0
140
0.18
141
0.09
142
0.0
143
25.4
144
1.0
145
0.0
146
1.0
147
0.09
 71
     0
 72
     0
 73
     1
 74
     1
 75
     0
 76
     0
 77
     0
 78
     0
170
     0
171
     2
172
     0
173
     0
174
     0
175
     0
176
     0
177
     0
178
     0
  0
ENDTAB
  0
ENDSEC
  0
SECTION
  2
BLOCKS
  0
BLOCK
  8
0
  2
$MODEL_SPACE
 70
     0
 10
0.0
 20
0.0
 30
0.0
  3
$MODEL_SPACE
  1

  0
ENDBLK
  5
15E
  8
0
  0
BLOCK
 67
     1
  8
0
  2
$PAPER_SPACE
 70
     0
 10
0.0
 20
0.0
 30
0.0
  3
$PAPER_SPACE
  1

  0
ENDBLK
  5
160
 67
     1
  8
0
  0
BLOCK
  8
0
  2
SZABLON
 70
     0
 10
-960.8807
 20
911.7949
 30
0.0
  3
SZABLON
  1

  0
POLYLINE
  5
24
  8
1
 66
     1
 10
0.0
 20
0.0
 30
0.0
 70
     1
  0
VERTEX
  5
530
  8
1
 10
-702.0212
 20
727.2932
 30
0.0
  0
VERTEX
  5
531
  8
1
 10
-731.1443
 20
736.6993
 30
0.0
  0
VERTEX
  5
532
  8
1
 10
-760.3641
 20
745.4599
 30
0.0
  0
VERTEX
  5
533
  8
1
 10
-789.7128
 20
753.4941
 30
0.0
  0
VERTEX
  5
534
  8
1
 10
-804.4456
 20
757.2134
 30
0.0
  0
VERTEX
  5
535
  8
1
 10
-819.2227
 20
760.7206
 30
0.0
  0
VERTEX
  5
536
  8
1
 10
-834.0481
 20
764.0057
 30
0.0
  0
VERTEX
  5
537
  8
1
 10
-848.926
 20
767.0584
 30
0.0
  0
VERTEX
  5
538
  8
1
 10
-863.8603
 20
769.8687
 30
0.0
  0
VERTEX
  5
539
  8
1
 10
-878.8551
 20
772.4264
 30
0.0
  0
VERTEX
  5
53A
  8
1
 10
-893.9144
 20
774.7214
 30
0.0
  0
VERTEX
  5
53B
  8
1
 10
-909.0422
 20
776.7435
 30
0.0
  0
VERTEX
  5
53C
  8
1
 10
-924.2425
 20
778.4826
 30
0.0
  0
VERTEX
  5
53D
  8
1
 10
-939.5195
 20
779.9286
 30
0.0
  0
VERTEX
  5
53E
  8
1
 10
-946.505
 20
786.6552
 30
0.0
  0
VERTEX
  5
53F
  8
1
 10
-953.5296
 20
793.0931
 30
0.0
  0
VERTEX
  5
540
  8
1
 10
-960.6003
 20
799.2519
 30
0.0
  0
VERTEX
  5
541
  8
1
 10
-967.7239
 20
805.141
 30
0.0
  0
VERTEX
  5
542
  8
1
 10
-974.907
 20
810.7695
 30
0.0
  0
VERTEX
  5
543
  8
1
 10
-982.1565
 20
816.1471
 30
0.0
  0
VERTEX
  5
544
  8
1
 10
-989.4793
 20
821.283
 30
0.0
  0
VERTEX
  5
545
  8
1
 10
-996.882
 20
826.1867
 30
0.0
  0
VERTEX
  5
546
  8
1
 10
-1004.3716
 20
830.8674
 30
0.0
  0
VERTEX
  5
547
  8
1
 10
-1011.9547
 20
835.3347
 30
0.0
  0
VERTEX
  5
548
  8
1
 10
-1019.6382
 20
839.5979
 30
0.0
  0
VERTEX
  5
549
  8
1
 10
-1027.4289
 20
843.6663
 30
0.0
  0
VERTEX
  5
54A
  8
1
 10
-1035.3335
 20
847.5493
 30
0.0
  0
VERTEX
  5
54B
  8
1
 10
-1043.3589
 20
851.2564
 30
0.0
  0
VERTEX
  5
54C
  8
1
 10
-1059.7992
 20
858.1802
 30
0.0
  0
VERTEX
  5
54D
  8
1
 10
-1076.804
 20
864.5126
 30
0.0
  0
VERTEX
  5
54E
  8
1
 10
-1094.4278
 20
870.3288
 30
0.0
  0
VERTEX
  5
54F
  8
1
 10
-1112.7248
 20
875.7038
 30
0.0
  0
VERTEX
  5
550
  8
1
 10
-1131.7495
 20
880.7126
 30
0.0
  0
VERTEX
  5
551
  8
1
 10
-1151.5562
 20
885.4303
 30
0.0
  0
VERTEX
  5
552
  8
1
 10
-1172.1993
 20
889.932
 30
0.0
  0
VERTEX
  5
553
  8
1
 10
-1193.733
 20
894.2927
 30
0.0
  0
VERTEX
  5
554
  8
1
 10
-1216.2118
 20
898.5875
 30
0.0
  0
VERTEX
  5
555
  8
1
 10
-1233.5264
 20
901.8589
 30
0.0
  0
VERTEX
  5
556
  8
1
 10
-1251.1351
 20
905.4282
 30
0.0
  0
VERTEX
  5
557
  8
1
 10
-1268.825
 20
909.5006
 30
0.0
  0
VERTEX
  5
558
  8
1
 10
-1277.6338
 20
911.7895
 30
0.0
  0
VERTEX
  5
559
  8
1
 10
-1286.3832
 20
914.2811
 30
0.0
  0
VERTEX
  5
55A
  8
1
 10
-1295.0464
 20
917.0011
 30
0.0
  0
VERTEX
  5
55B
  8
1
 10
-1303.5968
 20
919.975
 30
0.0
  0
VERTEX
  5
55C
  8
1
 10
-1312.0079
 20
923.2285
 30
0.0
  0
VERTEX
  5
55D
  8
1
 10
-1320.2529
 20
926.7872
 30
0.0
  0
VERTEX
  5
55E
  8
1
 10
-1328.3054
 20
930.6769
 30
0.0
  0
VERTEX
  5
55F
  8
1
 10
-1336.1387
 20
934.9231
 30
0.0
  0
VERTEX
  5
560
  8
1
 10
-1343.7262
 20
939.5514
 30
0.0
  0
VERTEX
  5
561
  8
1
 10
-1351.0413
 20
944.5875
 30
0.0
  0
VERTEX
  5
562
  8
1
 10
-1358.4627
 20
951.3231
 30
0.0
  0
VERTEX
  5
563
  8
1
 10
-1361.9525
 20
954.9188
 30
0.0
  0
VERTEX
  5
564
  8
1
 10
-1365.2566
 20
958.6767
 30
0.0
  0
VERTEX
  5
565
  8
1
 10
-1368.3463
 20
962.6044
 30
0.0
  0
VERTEX
  5
566
  8
1
 10
-1371.1928
 20
966.7097
 30
0.0
  0
VERTEX
  5
567
  8
1
 10
-1373.7674
 20
971.0002
 30
0.0
  0
VERTEX
  5
568
  8
1
 10
-1376.0413
 20
975.4838
 30
0.0
  0
VERTEX
  5
569
  8
1
 10
-1377.1527
 20
978.1521
 30
0.0
  0
VERTEX
  5
56A
  8
1
 10
-1378.075
 20
980.9848
 30
0.0
  0
VERTEX
  5
56B
  8
1
 10
-1379.3699
 20
987.0364
 30
0.0
  0
VERTEX
  5
56C
  8
1
 10
-1379.9619
 20
993.4242
 30
0.0
  0
VERTEX
  5
56D
  8
1
 10
-1379.887
 20
999.9338
 30
0.0
  0
VERTEX
  5
56E
  8
1
 10
-1379.1812
 20
1006.3507
 30
0.0
  0
VERTEX
  5
56F
  8
1
 10
-1377.8804
 20
1012.4605
 30
0.0
  0
VERTEX
  5
570
  8
1
 10
-1376.0206
 20
1018.0487
 30
0.0
  0
VERTEX
  5
571
  8
1
 10
-1374.8923
 20
1020.5802
 30
0.0
  0
VERTEX
  5
572
  8
1
 10
-1373.6377
 20
1022.9009
 30
0.0
  0
VERTEX
  5
573
  8
1
 10
-1370.6384
 20
1027.1636
 30
0.0
  0
VERTEX
  5
574
  8
1
 10
-1367.3561
 20
1031.1431
 30
0.0
  0
VERTEX
  5
575
  8
1
 10
-1363.8131
 20
1034.8519
 30
0.0
  0
VERTEX
  5
576
  8
1
 10
-1360.032
 20
1038.3024
 30
0.0
  0
VERTEX
  5
577
  8
1
 10
-1356.0351
 20
1041.5071
 30
0.0
  0
VERTEX
  5
578
  8
1
 10
-1351.845
 20
1044.4786
 30
0.0
  0
VERTEX
  5
579
  8
1
 10
-1347.4841
 20
1047.2292
 30
0.0
  0
VERTEX
  5
57A
  8
1
 10
-1342.9749
 20
1049.7716
 30
0.0
  0
VERTEX
  5
57B
  8
1
 10
-1338.3397
 20
1052.1182
 30
0.0
  0
VERTEX
  5
57C
  8
1
 10
-1333.6011
 20
1054.2815
 30
0.0
  0
VERTEX
  5
57D
  8
1
 10
-1323.9033
 20
1058.1081
 30
0.0
  0
VERTEX
  5
57E
  8
1
 10
-1314.0611
 20
1061.3515
 30
0.0
  0
VERTEX
  5
57F
  8
1
 10
-1304.2542
 20
1064.1114
 30
0.0
  0
VERTEX
  5
580
  8
1
 10
-1289.7347
 20
1067.3232
 30
0.0
  0
VERTEX
  5
581
  8
1
 10
-1275.1474
 20
1070.313
 30
0.0
  0
VERTEX
  5
582
  8
1
 10
-1260.4966
 20
1073.0821
 30
0.0
  0
VERTEX
  5
583
  8
1
 10
-1245.7869
 20
1075.6317
 30
0.0
  0
VERTEX
  5
584
  8
1
 10
-1231.0229
 20
1077.9631
 30
0.0
  0
VERTEX
  5
585
  8
1
 10
-1216.2091
 20
1080.0776
 30
0.0
  0
VERTEX
  5
586
  8
1
 10
-1201.35
 20
1081.9763
 30
0.0
  0
VERTEX
  5
587
  8
1
 10
-1186.4501
 20
1083.6605
 30
0.0
  0
VERTEX
  5
588
  8
1
 10
-1171.514
 20
1085.1314
 30
0.0
  0
VERTEX
  5
589
  8
1
 10
-1156.5461
 20
1086.3904
 30
0.0
  0
VERTEX
  5
58A
  8
1
 10
-1141.551
 20
1087.4385
 30
0.0
  0
VERTEX
  5
58B
  8
1
 10
-1126.5333
 20
1088.2771
 30
0.0
  0
VERTEX
  5
58C
  8
1
 10
-1111.4975
 20
1088.9075
 30
0.0
  0
VERTEX
  5
58D
  8
1
 10
-1096.448
 20
1089.3307
 30
0.0
  0
VERTEX
  5
58E
  8
1
 10
-1081.3894
 20
1089.5482
 30
0.0
  0
VERTEX
  5
58F
  8
1
 10
-1066.3263
 20
1089.5611
 30
0.0
  0
VERTEX
  5
590
  8
1
 10
-1051.2631
 20
1089.3707
 30
0.0
  0
VERTEX
  5
591
  8
1
 10
-1036.2045
 20
1088.9781
 30
0.0
  0
VERTEX
  5
592
  8
1
 10
-1021.1548
 20
1088.3848
 30
0.0
  0
VERTEX
  5
593
  8
1
 10
-1006.1187
 20
1087.5918
 30
0.0
  0
VERTEX
  5
594
  8
1
 10
-976.1052
 20
1085.412
 30
0.0
  0
VERTEX
  5
595
  8
1
 10
-946.2002
 20
1082.4487
 30
0.0
  0
VERTEX
  5
596
  8
1
 10
-916.4398
 20
1078.7118
 30
0.0
  0
VERTEX
  5
597
  8
1
 10
-886.8604
 20
1074.2112
 30
0.0
  0
VERTEX
  5
598
  8
1
 10
-857.4981
 20
1068.9569
 30
0.0
  0
VERTEX
  5
599
  8
1
 10
-828.3891
 20
1062.9587
 30
0.0
  0
VERTEX
  5
59A
  8
1
 10
-819.8089
 20
1061.3783
 30
0.0
  0
VERTEX
  5
59B
  8
1
 10
-811.3998
 20
1059.4965
 30
0.0
  0
VERTEX
  5
59C
  8
1
 10
-803.1765
 20
1057.2976
 30
0.0
  0
VERTEX
  5
59D
  8
1
 10
-795.1533
 20
1054.7658
 30
0.0
  0
VERTEX
  5
59E
  8
1
 10
-787.3448
 20
1051.8854
 30
0.0
  0
VERTEX
  5
59F
  8
1
 10
-779.7655
 20
1048.6406
 30
0.0
  0
VERTEX
  5
5A0
  8
1
 10
-772.4299
 20
1045.0156
 30
0.0
  0
VERTEX
  5
5A1
  8
1
 10
-765.3524
 20
1040.9948
 30
0.0
  0
VERTEX
  5
5A2
  8
1
 10
-758.5476
 20
1036.5623
 30
0.0
  0
VERTEX
  5
5A3
  8
1
 10
-752.03
 20
1031.7023
 30
0.0
  0
VERTEX
  5
5A4
  8
1
 10
-745.8141
 20
1026.3992
 30
0.0
  0
VERTEX
  5
5A5
  8
1
 10
-739.9143
 20
1020.6372
 30
0.0
  0
VERTEX
  5
5A6
  8
1
 10
-734.3452
 20
1014.4004
 30
0.0
  0
VERTEX
  5
5A7
  8
1
 10
-729.1213
 20
1007.6733
 30
0.0
  0
VERTEX
  5
5A8
  8
1
 10
-724.2571
 20
1000.4399
 30
0.0
  0
VERTEX
  5
5A9
  8
1
 10
-719.767
 20
992.6845
 30
0.0
  0
VERTEX
  5
5AA
  8
1
 10
-717.6165
 20
988.3419
 30
0.0
  0
VERTEX
  5
5AB
  8
1
 10
-715.7131
 20
983.8376
 30
0.0
  0
VERTEX
  5
5AC
  8
1
 10
-714.0375
 20
979.1892
 30
0.0
  0
VERTEX
  5
5AD
  8
1
 10
-712.5705
 20
974.4141
 30
0.0
  0
VERTEX
  5
5AE
  8
1
 10
-710.1859
 20
964.5539
 30
0.0
  0
VERTEX
  5
5AF
  8
1
 10
-708.4054
 20
954.397
 30
0.0
  0
VERTEX
  5
5B0
  8
1
 10
-707.0757
 20
944.0832
 30
0.0
  0
VERTEX
  5
5B1
  8
1
 10
-706.0429
 20
933.7525
 30
0.0
  0
VERTEX
  5
5B2
  8
1
 10
-704.2542
 20
913.6
 30
0.0
  0
VERTEX
  5
5B3
  8
1
 10
-703.1863
 20
882.0008
 30
0.0
  0
VERTEX
  5
5B4
  8
1
 10
-703.0473
 20
859.7771
 30
0.0
  0
VERTEX
  5
5B5
  8
1
 10
-703.1818
 20
836.4216
 30
0.0
  0
VERTEX
  5
5B6
  8
1
 10
-702.9342
 20
801.427
 30
0.0
  0
VERTEX
  5
5B7
  8
1
 10
-701.9098
 20
763.6359
 30
0.0
  0
VERTEX
  5
5B8
  8
1
 10
-701.6837
 20
748.7644
 30
0.0
  0
VERTEX
  5
5B9
  8
1
 10
-702.0212
 20
727.2932
 30
0.0
  0
SEQEND
  5
633
  8
1
  0
LINE
  5
B0
  8
7
 10
-1010.8807
 20
911.7949
 30
0.0
 11
-910.8807
 21
911.7949
 31
0.0
  0
ENDBLK
  5
B1
  8
0
  0
BLOCK
  8
0
  2
SZABLON_2_
 70
     0
 10
-1898.6232
 20
1265.0725
 30
0.0
  3
SZABLON_2_
  1

  0
POLYLINE
  5
B4
  8
1
 66
     1
 10
0.0
 20
0.0
 30
0.0
 70
     1
  0
VERTEX
  5
5BA
  8
1
 10
-1866.048
 20
1616.243
 30
0.0
  0
VERTEX
  5
5BB
  8
1
 10
-1776.767
 20
1621.7547
 30
0.0
  0
VERTEX
  5
5BC
  8
1
 10
-1757.9108
 20
910.0925
 30
0.0
  0
VERTEX
  5
5BD
  8
1
 10
-1777.5297
 20
909.9044
 30
0.0
  0
VERTEX
  5
5BE
  8
1
 10
-1787.7043
 20
910.0239
 30
0.0
  0
VERTEX
  5
5BF
  8
1
 10
-1797.1349
 20
910.3902
 30
0.0
  0
VERTEX
  5
5C0
  8
1
 10
-1807.4622
 20
910.5285
 30
0.0
  0
VERTEX
  5
5C1
  8
1
 10
-1815.9897
 20
910.9723
 30
0.0
  0
VERTEX
  5
5C2
  8
1
 10
-1825.649
 20
912.0699
 30
0.0
  0
VERTEX
  5
5C3
  8
1
 10
-1830.6427
 20
912.9585
 30
0.0
  0
VERTEX
  5
5C4
  8
1
 10
-1835.6069
 20
914.1241
 30
0.0
  0
VERTEX
  5
5C5
  8
1
 10
-1840.4374
 20
915.6046
 30
0.0
  0
VERTEX
  5
5C6
  8
1
 10
-1845.0302
 20
917.4379
 30
0.0
  0
VERTEX
  5
5C7
  8
1
 10
-1849.2811
 20
919.6618
 30
0.0
  0
VERTEX
  5
5C8
  8
1
 10
-1853.086
 20
922.3141
 30
0.0
  0
VERTEX
  5
5C9
  8
1
 10
-1856.3406
 20
925.4328
 30
0.0
  0
VERTEX
  5
5CA
  8
1
 10
-1857.7291
 20
927.1789
 30
0.0
  0
VERTEX
  5
5CB
  8
1
 10
-1858.9409
 20
929.0557
 30
0.0
  0
VERTEX
  5
5CC
  8
1
 10
-1863.162
 20
936.1101
 30
0.0
  0
VERTEX
  5
5CD
  8
1
 10
-1867.4306
 20
943.8819
 30
0.0
  0
VERTEX
  5
5CE
  8
1
 10
-1875.4995
 20
958.9588
 30
0.0
  0
VERTEX
  5
5CF
  8
1
 10
-1884.54
 20
963.1328
 30
0.0
  0
VERTEX
  5
5D0
  8
1
 10
-1893.7998
 20
966.6578
 30
0.0
  0
VERTEX
  5
5D1
  8
1
 10
-1903.2542
 20
969.5911
 30
0.0
  0
VERTEX
  5
5D2
  8
1
 10
-1912.8789
 20
971.9902
 30
0.0
  0
VERTEX
  5
5D3
  8
1
 10
-1922.6491
 20
973.9127
 30
0.0
  0
VERTEX
  5
5D4
  8
1
 10
-1932.5405
 20
975.4158
 30
0.0
  0
VERTEX
  5
5D5
  8
1
 10
-1942.5284
 20
976.5572
 30
0.0
  0
VERTEX
  5
5D6
  8
1
 10
-1952.5884
 20
977.3942
 30
0.0
  0
VERTEX
  5
5D7
  8
1
 10
-1972.8262
 20
978.385
 30
0.0
  0
VERTEX
  5
5D8
  8
1
 10
-1993.0578
 20
978.8479
 30
0.0
  0
VERTEX
  5
5D9
  8
1
 10
-2013.0868
 20
979.2427
 30
0.0
  0
VERTEX
  5
5DA
  8
1
 10
-2032.7169
 20
980.029
 30
0.0
  0
VERTEX
  5
5DB
  8
1
 10
-2037.6333
 20
1552.33
 30
0.0
  0
VERTEX
  5
5DC
  8
1
 10
-2003.9785
 20
1554.824
 30
0.0
  0
VERTEX
  5
5DD
  8
1
 10
-1980.7224
 20
1556.8052
 30
0.0
  0
VERTEX
  5
5DE
  8
1
 10
-1969.6313
 20
1558.0754
 30
0.0
  0
VERTEX
  5
5DF
  8
1
 10
-1957.1048
 20
1559.7837
 30
0.0
  0
VERTEX
  5
5E0
  8
1
 10
-1922.3657
 20
1565.2698
 30
0.0
  0
VERTEX
  5
5E1
  8
1
 10
-1907.1592
 20
1568.0527
 30
0.0
  0
VERTEX
  5
5E2
  8
1
 10
-1899.3569
 20
1569.8682
 30
0.0
  0
VERTEX
  5
5E3
  8
1
 10
-1892.2486
 20
1571.9955
 30
0.0
  0
VERTEX
  5
5E4
  8
1
 10
-1889.4747
 20
1573.1629
 30
0.0
  0
VERTEX
  5
5E5
  8
1
 10
-1886.8763
 20
1574.6486
 30
0.0
  0
VERTEX
  5
5E6
  8
1
 10
-1884.4482
 20
1576.4302
 30
0.0
  0
VERTEX
  5
5E7
  8
1
 10
-1882.1853
 20
1578.485
 30
0.0
  0
VERTEX
  5
5E8
  8
1
 10
-1880.0825
 20
1580.7905
 30
0.0
  0
VERTEX
  5
5E9
  8
1
 10
-1878.1346
 20
1583.3241
 30
0.0
  0
VERTEX
  5
5EA
  8
1
 10
-1876.3365
 20
1586.0633
 30
0.0
  0
VERTEX
  5
5EB
  8
1
 10
-1874.6831
 20
1588.9855
 30
0.0
  0
VERTEX
  5
5EC
  8
1
 10
-1871.7898
 20
1595.2886
 30
0.0
  0
VERTEX
  5
5ED
  8
1
 10
-1869.4136
 20
1602.0529
 30
0.0
  0
VERTEX
  5
5EE
  8
1
 10
-1867.5133
 20
1609.0979
 30
0.0
  0
VERTEX
  5
5EF
  8
1
 10
-1866.048
 20
1616.243
 30
0.0
  0
SEQEND
  5
634
  8
1
  0
LINE
  5
EC
  8
7
 10
-1948.6232
 20
1265.0725
 30
0.0
 11
-1848.6232
 21
1265.0725
 31
0.0
  0
ENDBLK
  5
ED
  8
0
  0
BLOCK
  8
0
  2
SZABLON_3_
 70
     0
 10
-894.4704
 20
1347.7927
 30
0.0
  3
SZABLON_3_
  1

  0
POLYLINE
  5
F0
  8
1
 66
     1
 10
0.0
 20
0.0
 30
0.0
 70
     1
  0
VERTEX
  5
5F0
  8
1
 10
-1177.8116
 20
1465.3813
 30
0.0
  0
VERTEX
  5
5F1
  8
1
 10
-1172.7112
 20
1467.7152
 30
0.0
  0
VERTEX
  5
5F2
  8
1
 10
-1167.2333
 20
1469.3956
 30
0.0
  0
VERTEX
  5
5F3
  8
1
 10
-1161.4944
 20
1470.4408
 30
0.0
  0
VERTEX
  5
5F4
  8
1
 10
-1155.6112
 20
1470.8694
 30
0.0
  0
VERTEX
  5
5F5
  8
1
 10
-1149.7003
 20
1470.6997
 30
0.0
  0
VERTEX
  5
5F6
  8
1
 10
-1143.8785
 20
1469.9503
 30
0.0
  0
VERTEX
  5
5F7
  8
1
 10
-1138.2625
 20
1468.6396
 30
0.0
  0
VERTEX
  5
5F8
  8
1
 10
-1132.9688
 20
1466.786
 30
0.0
  0
VERTEX
  5
5F9
  8
1
 10
-1129.8614
 20
1464.4983
 30
0.0
  0
VERTEX
  5
5FA
  8
1
 10
-1126.7453
 20
1461.6755
 30
0.0
  0
VERTEX
  5
5FB
  8
1
 10
-1123.5803
 20
1458.9498
 30
0.0
  0
VERTEX
  5
5FC
  8
1
 10
-1121.9671
 20
1457.8208
 30
0.0
  0
VERTEX
  5
5FD
  8
1
 10
-1120.3266
 20
1456.9532
 30
0.0
  0
VERTEX
  5
5FE
  8
1
 10
-1113.3418
 20
1454.2461
 30
0.0
  0
VERTEX
  5
5FF
  8
1
 10
-1105.6321
 20
1451.7891
 30
0.0
  0
VERTEX
  5
600
  8
1
 10
-1097.7939
 20
1449.8071
 30
0.0
  0
VERTEX
  5
601
  8
1
 10
-1090.4236
 20
1448.5251
 30
0.0
  0
VERTEX
  5
602
  8
1
 10
-1076.0297
 20
1446.8716
 30
0.0
  0
VERTEX
  5
603
  8
1
 10
-1060.7467
 20
1445.3286
 30
0.0
  0
VERTEX
  5
604
  8
1
 10
-1028.6871
 20
1442.5451
 30
0.0
  0
VERTEX
  5
605
  8
1
 10
-966.8116
 20
1437.99
 30
0.0
  0
VERTEX
  5
606
  8
1
 10
-952.454
 20
1437.2834
 30
0.0
  0
VERTEX
  5
607
  8
1
 10
-938.0815
 20
1436.7957
 30
0.0
  0
VERTEX
  5
608
  8
1
 10
-909.3002
 20
1436.4032
 30
0.0
  0
VERTEX
  5
609
  8
1
 10
-880.4838
 20
1436.6647
 30
0.0
  0
VERTEX
  5
60A
  8
1
 10
-851.6486
 20
1437.4324
 30
0.0
  0
VERTEX
  5
60B
  8
1
 10
-822.8107
 20
1438.5585
 30
0.0
  0
VERTEX
  5
60C
  8
1
 10
-793.9865
 20
1439.8951
 30
0.0
  0
VERTEX
  5
60D
  8
1
 10
-736.4437
 20
1442.6087
 30
0.0
  0
VERTEX
  5
60E
  8
1
 10
-730.0113
 20
1443.2538
 30
0.0
  0
VERTEX
  5
60F
  8
1
 10
-722.275
 20
1444.3229
 30
0.0
  0
VERTEX
  5
610
  8
1
 10
-704.3077
 20
1447.3908
 30
0.0
  0
VERTEX
  5
611
  8
1
 10
-685.3767
 20
1451.1271
 30
0.0
  0
VERTEX
  5
612
  8
1
 10
-668.3166
 20
1454.8462
 30
0.0
  0
VERTEX
  5
613
  8
1
 10
-656.9987
 20
1457.7306
 30
0.0
  0
VERTEX
  5
614
  8
1
 10
-648.3551
 20
1460.4222
 30
0.0
  0
VERTEX
  5
615
  8
1
 10
-636.3759
 20
1464.9178
 30
0.0
  0
VERTEX
  5
616
  8
1
 10
-631.6825
 20
1466.5669
 30
0.0
  0
VERTEX
  5
617
  8
1
 10
-626.9481
 20
1467.7137
 30
0.0
  0
VERTEX
  5
618
  8
1
 10
-621.4939
 20
1468.2808
 30
0.0
  0
VERTEX
  5
619
  8
1
 10
-614.641
 20
1468.1907
 30
0.0
  0
VERTEX
  5
61A
  8
1
 10
-610.1629
 20
1467.8216
 30
0.0
  0
VERTEX
  5
61B
  8
1
 10
-606.1492
 20
1466.9975
 30
0.0
  0
VERTEX
  5
61C
  8
1
 10
-602.5809
 20
1465.6849
 30
0.0
  0
VERTEX
  5
61D
  8
1
 10
-599.4392
 20
1463.8507
 30
0.0
  0
VERTEX
  5
61E
  8
1
 10
-596.7052
 20
1461.4615
 30
0.0
  0
VERTEX
  5
61F
  8
1
 10
-594.3602
 20
1458.4842
 30
0.0
  0
VERTEX
  5
620
  8
1
 10
-592.3852
 20
1454.8855
 30
0.0
  0
VERTEX
  5
621
  8
1
 10
-590.7614
 20
1450.6321
 30
0.0
  0
VERTEX
  5
622
  8
1
 10
-585.98
 20
1424.3751
 30
0.0
  0
VERTEX
  5
623
  8
1
 10
-581.1185
 20
1396.5004
 30
0.0
  0
VERTEX
  5
624
  8
1
 10
-571.3388
 20
1338.0415
 30
0.0
  0
VERTEX
  5
625
  8
1
 10
-552.835
 20
1225.2877
 30
0.0
  0
VERTEX
  5
626
  8
1
 10
-1236.7012
 20
1230.204
 30
0.0
  0
VERTEX
  5
627
  8
1
 10
-1216.7207
 20
1333.112
 30
0.0
  0
VERTEX
  5
628
  8
1
 10
-1206.2243
 20
1386.4685
 30
0.0
  0
VERTEX
  5
629
  8
1
 10
-1196.0724
 20
1435.883
 30
0.0
  0
VERTEX
  5
62A
  8
1
 10
-1193.4949
 20
1444.3886
 30
0.0
  0
VERTEX
  5
62B
  8
1
 10
-1191.8544
 20
1448.6379
 30
0.0
  0
VERTEX
  5
62C
  8
1
 10
-1189.9019
 20
1452.736
 30
0.0
  0
VERTEX
  5
62D
  8
1
 10
-1187.5795
 20
1456.571
 30
0.0
  0
VERTEX
  5
62E
  8
1
 10
-1184.829
 20
1460.0314
 30
0.0
  0
VERTEX
  5
62F
  8
1
 10
-1181.5924
 20
1463.0054
 30
0.0
  0
VERTEX
  5
630
  8
1
 10
-1179.7736
 20
1464.2751
 30
0.0
  0
VERTEX
  5
631
  8
1
 10
-1177.8116
 20
1465.3813
 30
0.0
  0
SEQEND
  5
635
  8
1
  0
LINE
  5
134
  8
7
 10
-944.4704
 20
1347.7927
 30
0.0
 11
-844.4704
 21
1347.7927
 31
0.0
  0
ENDBLK
  5
135
  8
0
  0
ENDSEC
  0
SECTION
  2
ENTITIES
  0
POLYLINE
  5
520
  8
0
  6
BYBLOCK
 62
     1
 66
     1
 10
0.0
 20
0.0
 30
0.0
  0
VERTEX
  5
521
  8
0
  6
BYBLOCK
 62
     1
 10
-1979.671481498337
 20
1515.835576704432
 30
0.0
 42
0.119089561375056
  0
VERTEX
  5
522
  8
0
  6
BYBLOCK
 62
     1
 10
-1990.914881498337
 20
1491.687176704432
 30
0.0
  0
VERTEX
  5
523
  8
0
  6
BYBLOCK
 62
     1
 10
-2031.543681498338
 20
1286.008176704432
 30
0.0
  0
VERTEX
  5
524
  8
0
  6
BYBLOCK
 62
     1
 10
-1324.85911016722
 20
1286.008176704433
 30
0.0
  0
VERTEX
  5
525
  8
0
  6
BYBLOCK
 62
     1
 10
-1362.320657142502
 20
1508.799841967742
 30
0.0
 42
0.2120499586099439
  0
VERTEX
  5
526
  8
0
  6
BYBLOCK
 62
     1
 10
-1372.409197490999
 20
1525.123408467261
 30
0.0
 42
0.0752088403809588
  0
VERTEX
  5
527
  8
0
  6
BYBLOCK
 62
     1
 10
-1378.945069558474
 20
1527.876435710919
 30
0.0
 42
0.0855002524206343
  0
VERTEX
  5
528
  8
0
  6
BYBLOCK
 62
     1
 10
-1398.972210167219
 20
1528.434176704433
 30
0.0
 42
0.0462176734463926
  0
VERTEX
  5
529
  8
0
  6
BYBLOCK
 62
     1
 10
-1414.38961016722
 20
1523.390476704433
 30
0.0
 42
-0.0363943560036253
  0
VERTEX
  5
52A
  8
0
  6
BYBLOCK
 62
     1
 10
-1476.33181016722
 20
1508.111276704433
 30
0.0
 42
-0.067593238508759
  0
VERTEX
  5
52B
  8
0
  6
BYBLOCK
 62
     1
 10
-1877.532026248964
 20
1503.44082671139
 30
0.0
 42
-0.0703061106960357
  0
VERTEX
  5
52C
  8
0
  6
BYBLOCK
 62
     1
 10
-1910.896411648673
 20
1511.101417399939
 30
0.0
 42
-0.1464577791994404
  0
VERTEX
  5
52D
  8
0
  6
BYBLOCK
 62
     1
 10
-1925.54078972564
 20
1520.918617192171
 30
0.0
 42
0.1372640249859521
  0
VERTEX
  5
52E
  8
0
  6
BYBLOCK
 62
     1
 10
-1950.014111332373
 20
1526.660956789163
 30
0.0
 42
0.1869274849574975
  0
VERTEX
  5
52F
  8
0
  6
BYBLOCK
 62
     1
 10
-1979.757394117838
 20
1515.72749016434
 30
0.0
  0
SEQEND
  5
632
  8
0
  6
BYBLOCK
 62
     1
  0
ENDSEC
  0
EOF
